<?xml version="1.0" encoding="UTF-8"?>
<svg version="1.1" xmlns="http://www.w3.org/2000/svg" width="512" height="512">
<path d="M0 0 C0.67637512 0.00465271 1.35275024 0.00930542 2.04962158 0.01409912 C34.4101808 0.27458659 61.13575422 12.32154621 84.5625 34.375 C85.46742188 35.18324219 85.46742188 35.18324219 86.390625 36.0078125 C104.95492051 53.27087234 117.50475176 81.65023635 118.7265625 106.74462891 C119.81808374 141.61418451 111.9889283 172.77755756 88.07958984 199.00146484 C82.36962827 205.07793809 76.43550694 210.61676443 69.5625 215.375 C70.67367188 215.40078125 71.78484375 215.4265625 72.9296875 215.453125 C87.68635737 215.94783617 96.37148238 218.95645411 106.8125 229.6875 C112.72286956 238.76413897 113.07804038 247.46606315 112.8125 258 C112.79238824 259.3997138 112.77414579 260.79945576 112.7578125 262.19921875 C112.71101718 265.59187915 112.64546363 268.98306384 112.5625 272.375 C115.81404712 272.35215855 119.06209514 272.27480426 122.3125 272.1875 C123.23289062 272.18169922 124.15328125 272.17589844 125.1015625 272.16992188 C125.99101562 272.14091797 126.88046875 272.11191406 127.796875 272.08203125 C128.61381836 272.0663208 129.43076172 272.05061035 130.27246094 272.03442383 C133.53831725 271.09401041 134.53187647 269.03806872 136.5625 266.375 C139.0065918 264.66845703 139.0065918 264.66845703 141.76171875 263.1328125 C142.79385498 262.54894775 143.82599121 261.96508301 144.8894043 261.36352539 C145.99840088 260.74856201 147.10739746 260.13359863 148.25 259.5 C150.60689739 258.17278072 152.95960277 256.83820095 155.3125 255.50390625 C155.9132988 255.1644548 156.5140976 254.82500336 157.13310242 254.4752655 C163.41231591 250.91769416 169.57973228 247.18015242 175.75 243.4375 C204.78402176 225.97572538 204.78402176 225.97572538 217.1875 227.9375 C225.47518554 230.14462613 231.17180591 236.24961755 235.5625 243.375 C236.81770055 247.14060164 236.71058062 250.65547964 236.70967102 254.57841492 C236.71334771 255.42471256 236.7170244 256.2710102 236.7208125 257.14295322 C236.73185858 259.98943258 236.73569476 262.83587545 236.73950195 265.68237305 C236.74576592 267.71907162 236.75241266 269.75576904 236.75941467 271.79246521 C236.77683085 277.33396632 236.78737821 282.8754588 236.7956202 288.4169805 C236.80076925 291.87864885 236.80684503 295.34031452 236.81313133 298.80198097 C236.83218548 309.63127443 236.84641592 320.46056106 236.8547433 331.28986806 C236.86451634 343.79303998 236.89083679 356.2960349 236.93124419 368.79914445 C236.96139911 378.46124729 236.9762116 388.12329938 236.97952431 397.78544837 C236.98187556 403.55707988 236.99084592 409.32852233 237.01598549 415.10010338 C237.03926004 420.53133396 237.04350178 425.96225093 237.03322411 431.39351845 C237.03272848 433.38490466 237.03905666 435.37630628 237.05278015 437.36764526 C237.07049556 440.09102734 237.06339467 442.81328352 237.05024719 445.53666687 C237.06670106 446.7126191 237.06670106 446.7126191 237.08348733 447.91232795 C237.00521814 454.64956956 234.85294495 459.79363985 230.37890625 464.8359375 C229.26322266 465.78339844 229.26322266 465.78339844 228.125 466.75 C227.38378906 467.39710938 226.64257812 468.04421875 225.87890625 468.7109375 C222.27591279 471.29925995 218.69436203 472.57320997 214.3125 473.125 C213.62671875 473.22296875 212.9409375 473.3209375 212.234375 473.421875 C204.45401431 473.28537744 198.20341154 470.50958274 191.5625 466.6875 C190.71365234 466.20982178 189.86480469 465.73214355 188.99023438 465.23999023 C178.7529632 459.43216561 168.69092138 453.3235021 158.62792969 447.22070312 C155.64162047 445.42263864 152.64097278 443.65184296 149.6328125 441.890625 C148.71177734 441.34849365 147.79074219 440.8063623 146.84179688 440.24780273 C145.12023007 439.23579635 143.39515616 438.2297235 141.66601562 437.23071289 C140.90224609 436.77946045 140.13847656 436.32820801 139.3515625 435.86328125 C138.68850098 435.47696533 138.02543945 435.09064941 137.34228516 434.69262695 C135.5625 433.375 135.5625 433.375 134.11743164 431.25756836 C132.71905824 429.18565366 132.71905824 429.18565366 130.38598633 428.82910156 C129.15271606 428.79768066 129.15271606 428.79768066 127.89453125 428.765625 C126.55551758 428.71728516 126.55551758 428.71728516 125.18945312 428.66796875 C124.26068359 428.65378906 123.33191406 428.63960938 122.375 428.625 C121.43462891 428.59535156 120.49425781 428.56570313 119.52539062 428.53515625 C117.20434084 428.46446438 114.88429465 428.41176835 112.5625 428.375 C112.58344727 429.2314209 112.60439453 430.0878418 112.62597656 430.97021484 C112.69477201 434.19445709 112.74459826 437.41832119 112.78222656 440.64306641 C112.80215342 442.02991156 112.8293056 443.41667482 112.86425781 444.80322266 C113.15935561 456.82411805 111.76076442 465.77824751 103.2734375 474.6953125 C94.60328889 483.20710223 85.6243364 484.97561262 73.7565918 484.90844727 C72.51470596 484.91706284 71.27282013 484.92567841 69.99330139 484.93455505 C66.61729399 484.95325111 63.24227657 484.95415295 59.86629462 484.94523358 C57.04041408 484.9400945 54.21462008 484.9474388 51.38874847 484.95470566 C44.72417521 484.97164565 38.05983131 484.96819411 31.39526367 484.95141602 C24.52848618 484.9344524 17.66234244 484.95039995 10.79563397 484.9826389 C4.88452742 485.00933574 -1.02638184 485.01661206 -6.93754262 485.00812382 C-10.46164661 485.00320065 -13.98536836 485.00537824 -17.50942421 485.02591133 C-21.43272422 485.04768274 -25.35525782 485.02886882 -29.27856445 485.00610352 C-30.44177216 485.01779572 -31.60497986 485.02948792 -32.80343628 485.04153442 C-41.55846102 484.93794149 -41.55846102 484.93794149 -44.65592957 481.99180603 C-46.58079526 479.16452508 -47.11543834 477.76305395 -47.0625 474.375 C-47.07539063 473.55 -47.08828125 472.725 -47.1015625 471.875 C-46.08488652 468.04751394 -44.61729502 466.7611985 -41.4375 464.375 C-37.6188271 463.62657058 -33.84617903 463.7055359 -29.96533203 463.74731445 C-28.22546021 463.73640778 -28.22546021 463.73640778 -26.45043945 463.72528076 C-22.61508765 463.70667454 -18.78066495 463.72276427 -14.9453125 463.73828125 C-12.2787552 463.73024262 -9.61229736 463.72006296 -6.94577026 463.70683289 C-0.63954432 463.67969967 5.66644081 463.6761881 11.97271359 463.68260592 C23.25628412 463.69354315 34.53978102 463.6688527 45.82327759 463.62885827 C50.4161853 463.61372865 55.00885886 463.61748318 59.60177612 463.62580872 C62.01169897 463.62242357 64.42162135 463.61867411 66.83154297 463.61450195 C67.92060944 463.62019699 69.0096759 463.62589203 70.13174438 463.63175964 C79.21693819 463.71614747 79.21693819 463.71614747 87.3046875 460.04296875 C91.71467666 454.27956912 91.71058473 449.27064731 91.69621277 442.22805786 C91.69847833 441.41201423 91.70074388 440.59597059 91.70307809 439.75519836 C91.70940381 437.02314516 91.70858964 434.29114174 91.70776367 431.55908203 C91.71075604 429.5992832 91.71415875 427.63948496 91.71794128 425.6796875 C91.72677727 420.35736611 91.72911922 415.0350608 91.72975707 409.71273279 C91.73070672 405.26937308 91.73438563 400.82601711 91.73792917 396.38265884 C91.74607209 385.89947245 91.74851354 375.41629465 91.74780273 364.93310547 C91.74720187 354.11939481 91.75775576 343.30573402 91.7735464 332.49203598 C91.78662166 323.20697454 91.79198664 313.9219294 91.79134732 304.63685882 C91.79109235 299.09171093 91.7939435 293.54660737 91.80452538 288.00146866 C91.81420617 282.78614307 91.81428563 277.5709042 91.80700874 272.35557556 C91.8059629 270.44279224 91.80832575 268.53000352 91.8143692 266.61722946 C91.82209213 264.00335424 91.81744232 261.38977825 91.80973816 258.77590942 C91.8174535 257.64432567 91.8174535 257.64432567 91.82532471 256.48988163 C91.79175587 251.32525547 91.47222766 245.87276696 88.23046875 241.6328125 C83.18176435 237.76968776 79.18442873 237.25089593 72.96925545 237.24636555 C71.84893051 237.2431411 70.72860558 237.23991665 69.5743314 237.2365945 C68.34856699 237.2381431 67.12280258 237.2396917 65.8598938 237.24128723 C64.55382388 237.23902167 63.24775396 237.23675612 61.90210617 237.23442191 C58.27840725 237.22830382 54.65473141 237.22843751 51.03102851 237.22961628 C47.12228524 237.22982029 43.21354939 237.22430159 39.30480957 237.21955872 C31.64761977 237.21125169 23.99043767 237.20850386 16.33324374 237.20794634 C10.1096418 237.20747123 3.88604239 237.20541673 -2.33755875 237.20224571 C-19.98056874 237.1934392 -37.62357265 237.18882636 -55.26658486 237.18957619 C-56.69334362 237.18963612 -56.69334362 237.18963612 -58.14892578 237.18969727 C-59.10125883 237.18973815 -60.05359187 237.18977903 -61.0347835 237.18982115 C-76.47181232 237.19022768 -91.90881676 237.18065639 -107.34583853 237.1665589 C-123.19445628 237.15219965 -139.04306214 237.14528846 -154.89168656 237.14615268 C-163.79030838 237.14648479 -172.68890463 237.1437314 -181.5875206 237.13297462 C-189.1633216 237.12387559 -196.73908544 237.12168948 -204.31488954 237.12848405 C-208.18002608 237.1317522 -212.04509131 237.1317953 -215.9102211 237.1231308 C-220.10051039 237.11383398 -224.29063408 237.12003408 -228.48092651 237.12776184 C-229.70222948 237.12261828 -230.92353245 237.11747471 -232.18184459 237.11217529 C-241.69427411 236.94620622 -241.69427411 236.94620622 -250.1796875 240.70703125 C-254.58967666 246.47043088 -254.58558473 251.47935269 -254.57121277 258.52194214 C-254.57347833 259.33798577 -254.57574388 260.15402941 -254.57807809 260.99480164 C-254.58440381 263.72685484 -254.58358964 266.45885826 -254.58276367 269.19091797 C-254.58575604 271.1507168 -254.58915875 273.11051504 -254.59294128 275.0703125 C-254.60177727 280.39263389 -254.60411922 285.7149392 -254.60475707 291.03726721 C-254.60570672 295.48062692 -254.60938563 299.92398289 -254.61292917 304.36734116 C-254.62107209 314.85052755 -254.62351354 325.33370535 -254.62280273 335.81689453 C-254.62220187 346.63060519 -254.63275576 357.44426598 -254.6485464 368.25796402 C-254.66162166 377.54302546 -254.66698664 386.8280706 -254.66634732 396.11314118 C-254.66609235 401.65828907 -254.6689435 407.20339263 -254.67952538 412.74853134 C-254.68920617 417.96385693 -254.68928563 423.1790958 -254.68200874 428.39442444 C-254.6809629 430.30720776 -254.68332575 432.21999648 -254.6893692 434.13277054 C-254.69709213 436.74664576 -254.69244232 439.36022175 -254.68473816 441.97409058 C-254.68988172 442.72847975 -254.69502529 443.48286892 -254.70032471 444.26011837 C-254.66675587 449.42474453 -254.34722766 454.87723304 -251.10546875 459.1171875 C-246.21833721 462.85668129 -242.33453536 463.49985897 -236.31420898 463.49957275 C-235.30486298 463.50213577 -234.29551697 463.50469879 -233.25558472 463.50733948 C-232.1593277 463.50523972 -231.06307068 463.50313995 -229.93359375 463.50097656 C-228.77046661 463.5028447 -227.60733948 463.50471283 -226.40896606 463.50663757 C-223.88536806 463.51063834 -221.36176643 463.51271611 -218.83816528 463.51309967 C-214.84576287 463.51564363 -210.85345131 463.52710348 -206.86108398 463.54266357 C-205.84902751 463.54652285 -205.84902751 463.54652285 -204.81652546 463.5504601 C-203.43729139 463.55572614 -202.05805739 463.56101163 -200.67882347 463.56631613 C-191.38905762 463.60139377 -182.09940797 463.62797473 -172.80957031 463.62548828 C-166.53575665 463.62389939 -160.26225806 463.63993744 -153.98854542 463.67619491 C-150.67111191 463.69464399 -147.35432251 463.70126675 -144.03683472 463.69171906 C-140.33786486 463.68213249 -136.6402533 463.70321436 -132.94140625 463.73144531 C-131.84514923 463.72124863 -130.74889221 463.71105194 -129.61941528 463.70054626 C-122.2008455 463.80228559 -122.2008455 463.80228559 -118.26000977 466.75897217 C-116.28832501 469.58912557 -115.7591575 470.9610801 -115.8125 474.375 C-115.79960937 475.2 -115.78671875 476.025 -115.7734375 476.875 C-116.72062561 480.44088464 -118.28705788 482.54252998 -121.4375 484.375 C-125.48373306 485.13171181 -129.49029246 485.04737718 -133.59643555 485.00610352 C-134.82955978 485.01325882 -136.06268402 485.02041412 -137.33317566 485.02778625 C-140.71002931 485.04178917 -144.0853494 485.03337064 -147.46207786 485.01369596 C-151.00482289 484.99727545 -154.54751914 485.00612791 -158.09028625 485.01121521 C-164.04461235 485.01573537 -169.99862427 484.99987885 -175.95288086 484.97192383 C-182.81655637 484.93994553 -189.67966303 484.93985915 -196.54337853 484.9571386 C-203.16369862 484.97306549 -209.78381211 484.96622602 -216.40412331 484.94920158 C-219.21212137 484.94236574 -222.01995211 484.94332779 -224.82794762 484.95074654 C-228.7627118 484.95990929 -232.69690424 484.93574412 -236.6315918 484.90844727 C-237.78467834 484.91497314 -238.93776489 484.92149902 -240.12579346 484.92822266 C-251.51386888 484.79448688 -259.48428429 481.47618252 -267.4375 473.375 C-277.15172821 463.39093212 -276.01080571 450.50044592 -275.95507812 437.5703125 C-275.96050383 435.45700601 -275.967629 433.34370331 -275.97631836 431.23040771 C-275.99450114 425.51140762 -275.98750492 419.79269726 -275.97480202 414.07369232 C-275.96464824 408.07792909 -275.9740743 402.08219003 -275.98034668 396.08642578 C-275.98761615 386.0191606 -275.97805371 375.95201295 -275.95898438 365.88476562 C-275.93721708 354.25921014 -275.94426894 342.6339353 -275.96629 331.00838661 C-275.98446389 321.01233334 -275.98699256 311.01636437 -275.97653532 301.02029991 C-275.97031137 295.0564756 -275.96943461 289.09278304 -275.98268127 283.12896729 C-275.99426803 277.52113002 -275.98616216 271.91365327 -275.96310425 266.3058548 C-275.95783228 264.25242968 -275.9593049 262.19897403 -275.96815491 260.14556122 C-276.02044823 246.77577304 -275.82412046 236.22027845 -266.1484375 226.0546875 C-259.95897465 219.9782742 -252.96841871 216.88314456 -244.4375 215.375 C-244.89898437 215.02050781 -245.36046875 214.66601562 -245.8359375 214.30078125 C-261.91682559 201.17547141 -272.67589447 180.87974539 -275.4375 160.375 C-277.56469747 135.71717463 -273.9876007 111.75383461 -258.375 91.875 C-257.07249791 90.36631032 -255.76067239 88.8655942 -254.4375 87.375 C-253.90898437 86.7046875 -253.38046875 86.034375 -252.8359375 85.34375 C-240.08674735 69.51716913 -219.40730243 59.07024691 -199.4375 56.375 C-171.35201274 54.04345536 -147.34177004 59.71200973 -125.5 78 C-124.95609619 78.4552002 -124.41219238 78.91040039 -123.85180664 79.37939453 C-120.65355876 82.1295787 -117.96507387 85.00084115 -115.4375 88.375 C-115.00824219 87.21226563 -114.57898438 86.04953125 -114.13671875 84.8515625 C-101.38437286 50.90002721 -80.53824595 25.13922448 -47.52490234 9.32080078 C-32.38545964 2.46112815 -16.51538822 -0.17949266 0 0 Z M-69.6875 50.1875 C-87.94200655 69.18045747 -97.58058457 94.2411884 -97.47265625 120.48046875 C-96.37430853 147.61769417 -85.37489886 170.1643342 -66.4375 189.375 C-65.71949219 190.10589844 -65.00148437 190.83679688 -64.26171875 191.58984375 C-47.13356241 207.8793333 -21.83724128 216.6381701 1.5625 216.375 C29.05679329 215.33027941 53.73327667 204.38796888 72.765625 184.4609375 C76.33988149 180.31169192 79.49446013 175.90675055 82.5625 171.375 C83.09875 170.59511719 83.635 169.81523437 84.1875 169.01171875 C97.3725755 148.58171895 101.23891148 121.80500781 96.38012695 98.15649414 C95.57989158 94.83913369 94.61324801 91.62370615 93.5625 88.375 C93.20027344 87.23160156 92.83804688 86.08820313 92.46484375 84.91015625 C87.99829008 72.17669307 80.45286232 61.41606524 71.5625 51.375 C70.93859375 50.66730469 70.3146875 49.95960937 69.671875 49.23046875 C51.76045339 30.15254699 26.92539751 22.25269517 1.5625 20.375 C-25.9685014 20.375 -49.94544068 31.44772985 -69.6875 50.1875 Z M-229.6875 92.8125 C-231.27704995 94.32683465 -232.86091335 95.84717376 -234.4375 97.375 C-235.06398438 97.91640625 -235.69046875 98.4578125 -236.3359375 99.015625 C-246.60713989 108.21787873 -253.58766455 124.09621835 -254.61450195 137.72412109 C-255.12020145 157.73047965 -252.78037465 175.1148622 -238.9375 190.75 C-237.44553522 192.29944416 -235.94619417 193.84184052 -234.4375 195.375 C-233.89738281 195.99890625 -233.35726562 196.6228125 -232.80078125 197.265625 C-221.36251559 210.05804301 -203.14968135 215.31010006 -186.5703125 216.3203125 C-170.24331319 216.73895351 -153.57991613 210.85898911 -141.3125 200.125 C-139.67097869 198.55880166 -138.04571327 196.97538106 -136.4375 195.375 C-135.6640625 194.63636719 -134.890625 193.89773437 -134.09375 193.13671875 C-120.74194217 179.53342139 -115.90594216 162.30195402 -116.01733398 143.66186523 C-116.5086533 125.24131517 -123.56700069 110.45421011 -136.4375 97.375 C-137.24767578 96.43914062 -137.24767578 96.43914062 -138.07421875 95.484375 C-149.51248441 82.69195699 -167.72531865 77.43989994 -184.3046875 76.4296875 C-200.72152107 76.00874305 -217.43533273 81.92991034 -229.6875 92.8125 Z M-101.4375 179.375 C-101.9221875 180.41398438 -102.406875 181.45296875 -102.90625 182.5234375 C-106.94181936 190.99000103 -111.15653236 198.32520022 -117.4375 205.375 C-118.52140077 206.66619054 -119.60478499 207.957815 -120.6875 209.25 C-122.84133003 211.77124809 -125.07139933 214.00889933 -127.4375 216.375 C-107.6375 216.375 -87.8375 216.375 -67.4375 216.375 C-70.96144972 212.85105028 -74.4832103 209.50470123 -78.1875 206.1875 C-86.4107896 198.69773138 -93.38656793 191.02030776 -99.125 181.4296875 C-99.558125 180.75164062 -99.99125 180.07359375 -100.4375 179.375 C-100.7675 179.375 -101.0975 179.375 -101.4375 179.375 Z M204.2578125 251.1015625 C203.20972412 251.71523682 202.16163574 252.32891113 201.08178711 252.96118164 C199.96167236 253.6339917 198.84155762 254.30680176 197.6875 255 C196.52350699 255.68785031 195.35886713 256.37460712 194.19360352 257.06030273 C191.80914692 258.46602816 189.42904933 259.87873744 187.05224609 261.29736328 C183.80192118 263.23601768 180.53780369 265.15032252 177.26953125 267.05859375 C175.34608834 268.1844418 173.42289784 269.31072124 171.5 270.4375 C170.62811035 270.94812988 169.7562207 271.45875977 168.85791016 271.98486328 C168.02694824 272.47583496 167.19598633 272.96680664 166.33984375 273.47265625 C165.63077881 273.89039307 164.92171387 274.30812988 164.19116211 274.73852539 C163.32370361 275.27856201 162.45624512 275.81859863 161.5625 276.375 C160.84161036 276.7092269 160.12072073 277.04345381 159.37798595 277.3878088 C155.60138748 279.38449512 153.03123588 280.87685812 151.71689892 285.07765293 C151.38738731 288.56018584 151.34658547 291.9472963 151.39794922 295.4453125 C151.38217834 296.7630365 151.36640747 298.0807605 151.35015869 299.43841553 C151.30922503 303.04241607 151.32498907 306.6440911 151.35357046 310.2481308 C151.37640929 314.02502052 151.35521015 317.80171546 151.34109497 321.57861328 C151.32473563 327.92060996 151.34625853 334.26166243 151.38916016 340.60351562 C151.43814173 347.92856317 151.42227492 355.25135633 151.37272251 362.57634926 C151.33183629 368.8730984 151.32613772 375.1691701 151.34967053 381.46600914 C151.36367912 385.22350375 151.36563993 388.97993978 151.33584213 392.73736572 C151.30492955 396.92782333 151.34779893 401.1144164 151.39794922 405.3046875 C151.37973114 406.54539001 151.36151306 407.78609253 151.34274292 409.06439209 C151.36012028 415.3320864 151.36012028 415.3320864 154.5360651 420.44716549 C156.82131959 421.993113 159.06343373 423.21463823 161.5625 424.375 C162.57207764 424.98609619 163.58165527 425.59719238 164.62182617 426.22680664 C165.97497925 426.9981897 165.97497925 426.9981897 167.35546875 427.78515625 C168.38776611 428.3769165 169.42006348 428.96867676 170.48364258 429.57836914 C171.56154053 430.19188232 172.63943848 430.80539551 173.75 431.4375 C176.05042281 432.7483876 178.35030178 434.06011764 180.6484375 435.375 C181.22497574 435.70480362 181.80151398 436.03460724 182.39552307 436.37440491 C186.29959842 438.61917892 190.14724212 440.94281805 193.9765625 443.3125 C195.47086792 444.22890259 195.47086792 444.22890259 196.99536133 445.16381836 C198.87941458 446.32428015 200.75473084 447.49907861 202.61987305 448.68969727 C203.46332275 449.20588623 204.30677246 449.7220752 205.17578125 450.25390625 C206.27079956 450.94335327 206.27079956 450.94335327 207.38793945 451.64672852 C209.62015778 452.60572903 209.62015778 452.60572903 212.21166992 451.75756836 C215.01581184 450.10839859 215.46405048 449.40377004 216.5625 446.375 C216.75389311 443.76010134 216.83669335 441.25272651 216.82319641 438.63856506 C216.82702196 437.85463314 216.83084751 437.07070122 216.83478898 436.26301378 C216.84511562 433.63368921 216.84112749 431.00458315 216.8371582 428.37524414 C216.84150485 426.4911631 216.84668785 424.60708383 216.85264587 422.7230072 C216.86605193 417.60321704 216.86661277 412.48350063 216.86408257 407.36369634 C216.86301398 403.09168159 216.86789334 398.81968184 216.872688 394.5476703 C216.88378867 384.4706523 216.88421739 374.39367156 216.87817383 364.31665039 C216.87213208 353.91585194 216.88444891 343.5151887 216.9057439 333.11441332 C216.92334793 324.1886296 216.92936316 315.26288897 216.92610615 306.33708853 C216.92429129 301.00435711 216.92694972 295.67172215 216.94082069 290.33900642 C216.95337497 285.32474681 216.95147768 280.31069832 216.93840981 275.29644203 C216.93603926 273.45538513 216.93879576 271.61431347 216.94703293 269.77327347 C216.95746176 267.26140872 216.94943112 264.75025742 216.9367218 262.23841858 C216.94778323 261.1437645 216.94778323 261.1437645 216.95906812 260.0269962 C216.91237684 255.64523796 216.24833745 252.86587572 213.5625 249.375 C209.85753186 247.41285823 207.64160893 249.09336948 204.2578125 251.1015625 Z M112.5625 292.375 C112.5625 330.655 112.5625 368.935 112.5625 408.375 C119.1625 408.375 125.7625 408.375 132.5625 408.375 C132.5625 370.095 132.5625 331.815 132.5625 292.375 C125.9625 292.375 119.3625 292.375 112.5625 292.375 Z " fill="#000000" transform="translate(275.4375,13.625)"/>
<path d="M0 0 C1.12817689 -0.01169993 1.12817689 -0.01169993 2.27914524 -0.02363622 C4.79524013 -0.04355407 7.30982208 -0.02779372 9.82592773 -0.01205444 C11.63134646 -0.0188307 13.43675827 -0.02773388 15.24215698 -0.03860474 C20.14303907 -0.06140375 25.04339503 -0.05255924 29.94428635 -0.03670931 C35.07224703 -0.02405347 40.20016256 -0.03578955 45.328125 -0.04364014 C53.93977957 -0.05273761 62.55121977 -0.04074618 71.1628418 -0.01693726 C81.12014604 0.01027416 91.0769384 0.00146007 101.03423023 -0.02606928 C109.58215372 -0.04875652 118.12992307 -0.0519623 126.67786694 -0.03887594 C131.78371255 -0.03107933 136.88931753 -0.03004566 141.99514771 -0.04655838 C146.79537043 -0.06099823 151.594933 -0.05099028 156.39508438 -0.0220871 C158.15711495 -0.01547369 159.91920105 -0.01737833 161.68120956 -0.02840042 C164.08623817 -0.04205823 166.48914946 -0.02494031 168.89404297 0 C169.59200265 -0.01115361 170.28996233 -0.02230722 171.0090723 -0.03379881 C174.7428725 0.04135215 176.38537887 0.58756348 179.37940025 2.8876133 C181.50589 5.71313843 182.07350082 6.77718486 182.0819397 10.22671509 C182.09603882 11.11826294 182.11013794 12.00981079 182.12466431 12.92837524 C182.11454315 13.89372192 182.104422 14.8590686 182.09399414 15.85366821 C182.10275574 16.88024536 182.11151733 17.90682251 182.12054443 18.96450806 C182.14253604 22.35507577 182.1279855 25.74433743 182.11108398 29.13491821 C182.11445216 31.49234263 182.11930479 33.84976536 182.12557983 36.20718384 C182.13295089 41.14680522 182.12223747 46.0859744 182.09887695 51.02554321 C182.07038985 57.35781854 182.08679246 63.6890343 182.11673927 70.02127075 C182.13480546 74.8889057 182.12905715 79.75628937 182.11610031 84.62393188 C182.11276446 86.95873134 182.1168596 89.29355359 182.12849808 91.62832642 C182.14119483 94.8915552 182.12184395 98.15306733 182.09399414 101.41616821 C182.1041153 102.38151489 182.11423645 103.34686157 182.12466431 104.34146118 C182.11056519 105.23300903 182.09646606 106.12455688 182.0819397 107.04312134 C182.08005457 107.81369873 182.07816944 108.58427612 182.07622719 109.37820435 C181.08662392 112.92752281 179.33837426 114.41373988 176.44702148 116.63491821 C173.71944762 117.12880882 171.61439757 117.31330852 168.89404297 117.26983643 C167.76586607 117.28153636 167.76586607 117.28153636 166.61489773 117.29347265 C164.09880284 117.31339049 161.58422089 117.29763014 159.06811523 117.28189087 C157.26269651 117.28866713 155.4572847 117.2975703 153.65188599 117.30844116 C148.7510039 117.33124017 143.85064794 117.32239566 138.94975662 117.30654573 C133.82179594 117.29388989 128.69388041 117.30562597 123.56591797 117.31347656 C114.9542634 117.32257403 106.3428232 117.31058261 97.73120117 117.28677368 C87.77389693 117.25956226 77.81710457 117.26837635 67.85981274 117.29590571 C59.31188925 117.31859295 50.7641199 117.32179873 42.21617603 117.30871236 C37.11033042 117.30091575 32.00472543 117.29988209 26.89889526 117.31639481 C22.09867253 117.33083466 17.29910997 117.32082671 12.49895859 117.29192352 C10.73692801 117.28531012 8.97484192 117.28721476 7.2128334 117.29823685 C4.8078048 117.31189465 2.40489351 117.29477674 0 117.26983643 C-0.69795968 117.28099003 -1.39591936 117.29214364 -2.11502934 117.30363524 C-5.84882953 117.22848428 -7.4913359 116.68227295 -10.48535728 114.38222313 C-12.61184704 111.556698 -13.17945785 110.49265157 -13.18789673 107.04312134 C-13.20199585 106.15157349 -13.21609497 105.26002563 -13.23062134 104.34146118 C-13.22050018 103.3761145 -13.21037903 102.41076782 -13.19995117 101.41616821 C-13.20871277 100.38959106 -13.21747437 99.36301392 -13.22650146 98.30532837 C-13.24849307 94.91476066 -13.23394253 91.525499 -13.21704102 88.13491821 C-13.22040919 85.77749379 -13.22526182 83.42007106 -13.23153687 81.06265259 C-13.23890792 76.1230312 -13.2281945 71.18386202 -13.20483398 66.24429321 C-13.17634688 59.91201789 -13.19274949 53.58080212 -13.2226963 47.24856567 C-13.24076249 42.38093072 -13.23501418 37.51354705 -13.22205734 32.64590454 C-13.21872149 30.31110509 -13.22281663 27.97628284 -13.23445511 25.64151001 C-13.24715186 22.37828122 -13.22780098 19.1167691 -13.19995117 15.85366821 C-13.21007233 14.88832153 -13.22019348 13.92297485 -13.23062134 12.92837524 C-13.21652222 12.03682739 -13.2024231 11.14527954 -13.18789673 10.22671509 C-13.1860116 9.4561377 -13.18412647 8.6855603 -13.18218422 7.89163208 C-11.30927186 1.17423067 -6.238222 -0.09968869 0 0 Z M7.44702148 20.63491821 C7.44702148 45.71491821 7.44702148 70.79491821 7.44702148 96.63491821 C58.26702148 96.63491821 109.08702148 96.63491821 161.44702148 96.63491821 C161.44702148 71.55491821 161.44702148 46.47491821 161.44702148 20.63491821 C110.62702148 20.63491821 59.80702148 20.63491821 7.44702148 20.63491821 Z " fill="#000000" transform="translate(66.552978515625,333.3650817871094)"/>
<path d="M0 0 C1.36089276 1.13783667 2.71565895 2.28306482 4.0625 3.4375 C4.65160156 3.88351563 5.24070312 4.32953125 5.84765625 4.7890625 C19.10280315 15.11539562 28.05212835 32.6460771 30.76513672 49.02636719 C33.47571926 71.00478521 30.16984002 92.47113873 16.5 110.375 C15.36216333 111.73589276 14.21693518 113.09065895 13.0625 114.4375 C12.61648438 115.02660156 12.17046875 115.61570313 11.7109375 116.22265625 C1.74058031 129.02086329 -15.66654218 138.40496393 -31.52539062 141.14013672 C-54.09173211 143.92210068 -75.90294504 140.55815493 -94.484375 126.9296875 C-111.05772348 113.97966217 -122.17065482 95.36608614 -125.2265625 74.45996094 C-127.98055119 51.72844943 -121.69376147 30.81583759 -107.75 12.8125 C-81.20411504 -18.24707921 -33.10758789 -25.32086248 0 0 Z M-82.9375 18.4375 C-83.948125 19.159375 -84.95875 19.88125 -86 20.625 C-96.81375607 30.02696014 -103.21317226 44.55638646 -104.6875 58.5625 C-105.6385594 73.93796034 -101.06426824 87.16187372 -91.9375 99.4375 C-91.215625 100.448125 -90.49375 101.45875 -89.75 102.5 C-79.53838938 114.24498347 -64.11037378 120.2472226 -48.92578125 121.40234375 C-32.35871145 121.59725045 -17.6183608 114.99497168 -5.6875 103.75 C5.91786314 91.5551581 10.7189762 77.41604085 10.53320312 60.8203125 C9.95314347 44.57864204 2.86646391 31.10395134 -8.84765625 19.984375 C-16.8874662 13.0819548 -26.48523005 8.26742263 -36.9375 6.4375 C-37.80632812 6.28539063 -38.67515625 6.13328125 -39.5703125 5.9765625 C-55.58227135 3.87586819 -70.18611709 8.95701291 -82.9375 18.4375 Z " fill="#000000" transform="translate(322.9375,68.5625)"/>
<path d="M0 0 C10.06866931 7.25087772 17.72756886 16.79280068 20.3125 29.25 C21.70668558 45.91292143 19.18676434 58.15716957 8.640625 71.33984375 C2.22382219 78.48333577 -8.09918475 84.61508614 -17.80297852 85.42700195 C-34.86566428 85.88895149 -46.79126814 83.44661518 -59.8125 71.75 C-70.07212814 61.14084545 -72.17133125 48.37416494 -71.96484375 34.2578125 C-71.50503107 21.94581333 -64.87448062 11.59167312 -56.171875 3.17578125 C-39.79726859 -9.51711334 -17.57628553 -10.86641977 0 0 Z M-47.0234375 24.93359375 C-51.72882861 31.48358654 -51.36837513 38.45972737 -50.6875 46.25 C-48.97597574 53.3373186 -43.43742086 58.11936545 -37.6875 62.25 C-31.2821623 65.51629803 -23.1700314 65.33249138 -16.27734375 63.66796875 C-9.9087038 60.89514142 -4.60450909 55.00932951 -1.484375 48.890625 C0.45924637 42.44999734 0.5918473 34.1150648 -2.125 27.875 C-5.79570109 21.7921239 -11.85243496 16.31265276 -18.6875 14.25 C-31.75942094 12.90688745 -38.51459121 15.18740527 -47.0234375 24.93359375 Z " fill="#000000" transform="translate(115.6875,120.75)"/>
<path d="M0 0 C1.2684375 -0.00478363 2.536875 -0.00956726 3.84375 -0.01449585 C6.52430824 -0.01789684 9.20258142 -0.01121028 11.8828125 0.01220703 C15.30975855 0.04069708 18.73474681 0.02428549 22.16162109 -0.00565529 C25.44114993 -0.02811794 28.72044556 -0.01236811 32 0 C33.2271875 -0.01012115 34.454375 -0.02024231 35.71875 -0.03067017 C40.51700519 0.03539534 43.99301836 0.13178574 48.27099609 2.39306641 C51.05039989 7.65124942 50.71237629 12.80602728 50.6640625 18.6640625 C50.66884613 19.9325 50.67362976 21.2009375 50.67855835 22.5078125 C50.68195934 25.18837074 50.67527278 27.86664392 50.65185547 30.546875 C50.62336542 33.97382105 50.63977701 37.39880931 50.66971779 40.82568359 C50.69218044 44.10521243 50.67643061 47.38450806 50.6640625 50.6640625 C50.67924423 52.50484375 50.67924423 52.50484375 50.69473267 54.3828125 C50.62866716 59.18106769 50.53227676 62.65708086 48.27099609 66.93505859 C43.01281308 69.71446239 37.85803522 69.37643879 32 69.328125 C30.7315625 69.33290863 29.463125 69.33769226 28.15625 69.34262085 C25.47569176 69.34602184 22.79741858 69.33933528 20.1171875 69.31591797 C16.69024145 69.28742792 13.26525319 69.30383951 9.83837891 69.33378029 C6.55885007 69.35624294 3.27955444 69.34049311 0 69.328125 C-1.2271875 69.33824615 -2.454375 69.34836731 -3.71875 69.35879517 C-8.51700519 69.29272966 -11.99301836 69.19633926 -16.27099609 66.93505859 C-19.05039989 61.67687558 -18.71237629 56.52209772 -18.6640625 50.6640625 C-18.66884613 49.395625 -18.67362976 48.1271875 -18.67855835 46.8203125 C-18.68195934 44.13975426 -18.67527278 41.46148108 -18.65185547 38.78125 C-18.62336542 35.35430395 -18.63977701 31.92931569 -18.66971779 28.50244141 C-18.69218044 25.22291257 -18.67643061 21.94361694 -18.6640625 18.6640625 C-18.67418365 17.436875 -18.68430481 16.2096875 -18.69473267 14.9453125 C-18.62866716 10.14705731 -18.53227676 6.67104414 -16.27099609 2.39306641 C-11.01281308 -0.38633739 -5.85803522 -0.04831379 0 0 Z M2 20.6640625 C2 29.9040625 2 39.1440625 2 48.6640625 C11.24 48.6640625 20.48 48.6640625 30 48.6640625 C30 39.4240625 30 30.1840625 30 20.6640625 C20.76 20.6640625 11.52 20.6640625 2 20.6640625 Z " fill="#000000" transform="translate(290,373.3359375)"/>
<path d="M0 0 C8.92518125 5.47027238 15.62481766 13.077353 18.1796875 23.3359375 C19.21818108 33.58586914 18.83262163 43.00706501 12.53125 51.578125 C5.88165657 59.50536957 -1.17192447 64.66234195 -11.67578125 65.7265625 C-21.98384755 66.16163128 -30.14893676 64.64796147 -38.1953125 57.8984375 C-45.62304307 50.82866985 -49.85555812 43.9004573 -50.29760742 33.42700195 C-50.41471662 22.64162281 -48.02960814 14.89364684 -40.53125 7.015625 C-29.87937975 -3.44169055 -13.75210418 -6.52877673 0 0 Z M-27.8203125 24.3359375 C-29.69886336 28.09303922 -29.48410828 32.25572488 -28.8203125 36.3359375 C-26.82020083 39.76997538 -24.39679756 42.54769497 -20.8203125 44.3359375 C-16.51818805 44.95726809 -12.48635763 45.30630429 -8.640625 43.06640625 C-5.56106909 40.44047787 -3.11108561 38.34926523 -2.51171875 34.19921875 C-2.26102389 29.23849916 -2.39111891 26.14842853 -5.6953125 22.2734375 C-8.83907701 19.04614301 -11.00400452 18.12604189 -15.5078125 17.8984375 C-21.21134197 17.92323545 -24.20364275 20.06671877 -27.8203125 24.3359375 Z " fill="#000000" transform="translate(321.8203125,280.6640625)"/>
<path d="M0 0 C2.8100346 1.79363911 4.50940468 3.01880935 6 6 C6.42071592 9.05920574 6.48514117 11.9467746 6 15 C3.81840855 17.75569447 2.12822506 19.43588747 -1 21 C-4.75343691 21.42652692 -6.79335599 21.09537416 -10.25 19.5 C-13.32566126 16.70394431 -14.21134119 15.02977051 -14.94921875 11.02734375 C-15.05464791 6.81828719 -13.01918893 4.13243214 -10.3125 1.125 C-6.90223105 -0.53404976 -3.67120981 -0.67742562 0 0 Z " fill="#000000" transform="translate(280,149)"/>
<path d="M0 0 C5.57894737 3.15789474 5.57894737 3.15789474 7 6 C7.55512815 10.63213493 7.6364242 13.98172127 5.125 18 C1.85484323 21.0777946 -0.46385754 21.35512509 -4.96484375 21.2734375 C-8.31522623 20.82329014 -9.81086861 19.51106247 -12 17 C-13.92358449 12.75208426 -14.21592126 10.76207503 -12.9375 6.25 C-9.72956005 0.86893943 -6.24355978 -0.89193711 0 0 Z " fill="#000000" transform="translate(279,94)"/>
<path d="M0 0 C2.75569447 2.18159145 4.43588747 3.87177494 6 7 C6.59873168 12.26883876 5.25400021 14.8846468 2 19 C-1.45739557 20.72869779 -5.21975568 20.48966895 -9 20 C-11.87029869 18.20606332 -13.49131638 17.01736724 -15 14 C-15.5811138 6.91041162 -15.5811138 6.91041162 -13.125 3.0625 C-9.24699241 -0.70144855 -5.21240222 -0.82822281 0 0 Z " fill="#000000" transform="translate(308,122)"/>
<path d="M0 0 C2.87029869 1.79393668 4.49131638 2.98263276 6 6 C6.5811138 13.08958838 6.5811138 13.08958838 4.125 16.9375 C0.63841797 20.3215355 -2.03592714 20.38966392 -6.73828125 20.359375 C-10.32520929 19.78943134 -11.86838894 17.79773951 -14 15 C-15.43304064 12.13391871 -15.30644155 10.18699217 -15 7 C-11.06142639 0.04185329 -7.71503326 -0.99935664 0 0 Z " fill="#000000" transform="translate(253,122)"/>
<path d="M0 0 C3.125 1.875 3.125 1.875 5 5 C5.98876625 10.02622846 5.7769173 13.70513784 3.125 18.125 C-1.29486216 20.7769173 -4.97377154 20.98876625 -10 20 C-13.125 18.125 -13.125 18.125 -15 15 C-15.98876625 9.97377154 -15.7769173 6.29486216 -13.125 1.875 C-8.70513784 -0.7769173 -5.02622846 -0.98876625 0 0 Z " fill="#000000" transform="translate(199,478)"/>
</svg>
