<?xml version="1.0" encoding="UTF-8"?>
<svg version="1.1" xmlns="http://www.w3.org/2000/svg" width="512" height="512">
<path d="M0 0 C0.85207031 0.48339844 1.70414063 0.96679688 2.58203125 1.46484375 C23.40979325 14.41183094 36.01858701 35.80209547 41.53569698 59.27960491 C42.0570464 62.33424024 42.12284812 65.1964988 42.12025452 68.29585266 C42.12231651 70.19934731 42.12231651 70.19934731 42.12442017 72.14129639 C42.12088148 73.53991723 42.11724668 74.93853783 42.11352539 76.3371582 C42.1132432 77.81570941 42.11340188 79.29426076 42.1139679 80.77281189 C42.11425462 84.78066475 42.10837804 88.78848765 42.10139394 92.79633355 C42.09513965 96.98703881 42.09455496 101.17774477 42.09336853 105.36845398 C42.09026134 113.30147076 42.08205619 121.23447375 42.07201904 129.16748446 C42.06083891 138.20007479 42.05534266 147.23266577 42.05032361 156.26526129 C42.03987308 174.84351535 42.02228548 193.42175656 42 212 C43.10988281 211.98775391 44.21976563 211.97550781 45.36328125 211.96289062 C51.07498428 212.02117331 54.84755084 213.97838598 58.9921875 217.87109375 C65.92301175 225.47774526 66.3730251 231.63503979 66.37060547 241.75512695 C66.37496602 243.79659286 66.41128866 245.8358708 66.44921875 247.87695312 C66.47525045 256.66265239 65.97489947 262.46403122 60.03515625 269.2421875 C59.38417969 269.78101563 58.73320312 270.31984375 58.0625 270.875 C57.41410156 271.42929687 56.76570312 271.98359375 56.09765625 272.5546875 C51.96516317 275.4020291 48.36467523 276.24995253 43.38354492 276.22705078 C42.26749878 276.22680908 41.15145264 276.22656738 40.00158691 276.22631836 C38.83961792 276.21608643 37.67764893 276.20585449 36.48046875 276.1953125 C35.40430298 276.19329834 34.32813721 276.19128418 33.21936035 276.18920898 C29.20869673 276.17876418 25.19809397 276.1508416 21.1875 276.125 C12.215625 276.08375 3.24375 276.0425 -6 276 C-6 310.32 -6 344.64 -6 380 C-11.28 380 -16.56 380 -22 380 C-22 345.68 -22 311.36 -22 276 C-37.84 276 -53.68 276 -70 276 C-70 299.76 -70 323.52 -70 348 C-75.28 348 -80.56 348 -86 348 C-86 324.24 -86 300.48 -86 276 C-103.74048149 276.15798472 -103.74048149 276.15798472 -121.48046875 276.36035156 C-123.71613804 276.37204175 -125.95181589 276.38223279 -128.1875 276.390625 C-129.33412109 276.41108887 -130.48074219 276.43155273 -131.66210938 276.45263672 C-139.64149201 276.45609399 -145.07167296 275.44241899 -151.2421875 270.03515625 C-151.78101563 269.38417969 -152.31984375 268.73320312 -152.875 268.0625 C-153.42929688 267.41410156 -153.98359375 266.76570313 -154.5546875 266.09765625 C-158.83102762 259.89118423 -158.37234863 253.53562693 -158.37060547 246.24487305 C-158.37496602 244.20340714 -158.41128866 242.1641292 -158.44921875 240.12304688 C-158.47525045 231.33734761 -157.97489947 225.53596878 -152.03515625 218.7578125 C-145.81296393 213.60756222 -142.20996602 211.91378099 -134 212 C-134.00368717 211.24168884 -134.00737434 210.48337769 -134.01117325 209.7020874 C-134.09979892 191.18685999 -134.16584253 172.67167534 -134.20724869 154.15628052 C-134.22780847 145.20209092 -134.25580193 136.24804356 -134.30175781 127.29394531 C-134.34182852 119.48274889 -134.36748056 111.67165556 -134.37635398 103.86035919 C-134.38153476 99.73046593 -134.39357119 95.60086742 -134.42292023 91.47106934 C-134.45041062 87.57058479 -134.45837852 83.67051166 -134.45243073 79.76993942 C-134.45351616 78.35113653 -134.46126761 76.93231744 -134.4768219 75.5135994 C-134.61397871 62.33839365 -132.52215152 49.25018303 -126.125 37.5625 C-125.77477783 36.89766602 -125.42455566 36.23283203 -125.0637207 35.54785156 C-124.06703557 33.68348285 -123.04314777 31.83868772 -122 30 C-121.51660156 29.14792969 -121.03320312 28.29585937 -120.53515625 27.41796875 C-108.08683412 7.39240707 -87.5775553 -5.36357223 -65 -11 C-42.31331267 -16.22276504 -19.78055435 -11.22215638 0 0 Z M-95.69604492 24.18066406 C-112.3186208 40.29920897 -117.75546933 60.21305355 -118.17047119 82.77053833 C-118.24855078 90.24255013 -118.23221604 97.71384856 -118.20278788 105.18605351 C-118.19012934 108.95227014 -118.18909828 112.71849133 -118.18673706 116.48472595 C-118.18056608 123.58863297 -118.16421581 130.69247708 -118.14403808 137.79635662 C-118.12154111 145.89574141 -118.11065126 153.9951295 -118.10064721 162.09453785 C-118.07984471 178.72973434 -118.04322461 195.36484437 -118 212 C-107.44 212 -96.88 212 -86 212 C-85.96261719 207.12605469 -85.92523438 202.25210938 -85.88671875 197.23046875 C-85.85644732 194.14514672 -85.82530507 191.05988297 -85.79101562 187.97460938 C-85.73665754 183.07612001 -85.68554934 178.17774593 -85.65356445 173.27905273 C-85.62757951 169.33016285 -85.587212 165.38165934 -85.53681374 161.43300819 C-85.52011229 159.92555861 -85.50861844 158.41804214 -85.50238609 156.91051292 C-85.4927801 154.80084989 -85.46476581 152.69218261 -85.43237305 150.58276367 C-85.42126999 149.38141281 -85.41016693 148.18006195 -85.39872742 146.94230652 C-85 144 -85 144 -83.62898254 142.11283875 C-81.26100397 140.49515517 -79.40938893 140.61148691 -76.5625 140.6015625 C-74.97308594 140.59576172 -74.97308594 140.59576172 -73.3515625 140.58984375 C-72.24554688 140.60144531 -71.13953125 140.61304688 -70 140.625 C-68.89398438 140.61339844 -67.78796875 140.60179687 -66.6484375 140.58984375 C-65.58882812 140.59371094 -64.52921875 140.59757813 -63.4375 140.6015625 C-61.98150391 140.60663818 -61.98150391 140.60663818 -60.49609375 140.61181641 C-57.57808661 141.06561446 -56.77480212 141.69590697 -55 144 C-53.96642853 145.64605826 -52.95939668 147.30963442 -52 149 C-51.52949219 148.59007812 -51.05898437 148.18015625 -50.57421875 147.7578125 C-49.95160156 147.21898437 -49.32898438 146.68015625 -48.6875 146.125 C-48.07261719 145.59132813 -47.45773438 145.05765625 -46.82421875 144.5078125 C-41.12260909 139.795133 -35.30779208 140.66361679 -28.26660156 140.68432617 C-26.00797402 140.68748883 -23.75065336 140.66401196 -21.4921875 140.63867188 C-20.05729332 140.63639906 -18.62239562 140.6356953 -17.1875 140.63671875 C-15.88167969 140.63373779 -14.57585937 140.63075684 -13.23046875 140.62768555 C-10 141 -10 141 -8.32511902 142.11184692 C-6.35982356 144.91218305 -6.59902683 147.18529709 -6.56762695 150.58276367 C-6.55233948 151.57828499 -6.55233948 151.57828499 -6.53674316 152.59391785 C-6.50657375 154.78535357 -6.49734172 156.9763525 -6.48828125 159.16796875 C-6.47143739 160.68827268 -6.45328754 162.20856265 -6.43388367 163.72883606 C-6.38634526 167.72858318 -6.356561 171.72827374 -6.33044434 175.72821045 C-6.29542026 180.52829606 -6.23839672 185.32816441 -6.18505096 190.12807465 C-6.10649191 197.41868913 -6.05592131 204.70901835 -6 212 C4.56 212 15.12 212 26 212 C26.04529829 194.54413076 26.08207684 177.08831237 26.10362434 159.63240051 C26.11389899 151.52574547 26.12788563 143.41912977 26.15087891 135.3125 C26.17093035 128.23963231 26.18374406 121.16679315 26.18817699 114.09389782 C26.19076465 110.35533805 26.19676539 106.61685982 26.21146011 102.87832642 C26.3217314 73.62975124 25.82101101 46.76246555 4.25 24.625 C-23.82418957 -2.77275705 -67.42878981 -2.05275436 -95.69604492 24.18066406 Z M-70 156 C-70 174.48 -70 192.96 -70 212 C-54.16 212 -38.32 212 -22 212 C-22 193.52 -22 175.04 -22 156 C-33.24036859 154.82392731 -33.24036859 154.82392731 -38.1640625 159.02734375 C-39.35021681 160.30121588 -40.50421149 161.60575476 -41.625 162.9375 C-42.80345394 164.2393989 -43.98308413 165.54023437 -45.1640625 166.83984375 C-45.91357178 167.71177368 -45.91357178 167.71177368 -46.67822266 168.60131836 C-49.40635254 171.48817763 -52.21283146 171.18552641 -56.02734375 171.328125 C-58.68552841 170.88597151 -59.35437023 170.1304234 -61 168 C-62.11840771 165.96727358 -63.17695993 163.90094949 -64.1875 161.8125 C-64.71730469 160.72582031 -65.24710937 159.63914062 -65.79296875 158.51953125 C-66.19128906 157.68808594 -66.58960938 156.85664063 -67 156 C-67.99 156 -68.98 156 -70 156 Z M-140 231 C-142.48042417 235.01013822 -142.33382441 239.34422209 -142.3125 243.9375 C-142.32861328 244.62779297 -142.34472656 245.31808594 -142.36132812 246.02929688 C-142.3658079 250.75546453 -141.67803486 254.08505143 -139 258 C-134.91798879 260.16921605 -131.32932569 260.25339531 -126.75746155 260.26069641 C-125.67934563 260.26643473 -125.67934563 260.26643473 -124.57944959 260.27228898 C-122.1766708 260.28258856 -119.77413232 260.27863267 -117.37133789 260.2746582 C-115.64636515 260.27900635 -113.92139433 260.28418984 -112.19642639 260.29014587 C-107.51462897 260.30353572 -102.83291228 260.30411458 -98.15109944 260.30158257 C-94.24198616 260.3005129 -90.33288921 260.30539611 -86.42377943 260.310188 C-77.20153388 260.32128303 -67.97932907 260.32172053 -58.75708008 260.31567383 C-49.24411792 260.30963242 -39.73130361 260.32194931 -30.21836668 260.3432439 C-22.049228 260.3608578 -13.88013638 260.36686161 -5.7109794 260.36360615 C-0.8326242 260.3617929 4.04562554 260.36443378 8.92396355 260.37832069 C13.51144266 260.39089105 18.09869121 260.38896244 22.68616676 260.37590981 C24.36877393 260.37354279 26.05139729 260.3762832 27.7339859 260.38453293 C30.03308412 260.39499169 32.33140742 260.38690734 34.63047791 260.3742218 C35.91633758 260.37438954 37.20219725 260.37455729 38.52702236 260.37473011 C42.33322407 259.96404552 44.75249842 258.99689072 48 257 C50.48042417 252.98986178 50.33382441 248.65577791 50.3125 244.0625 C50.32861328 243.37220703 50.34472656 242.68191406 50.36132812 241.97070312 C50.3658079 237.24453547 49.67803486 233.91494857 47 230 C42.91798879 227.83078395 39.32932569 227.74660469 34.75746155 227.73930359 C33.67934563 227.73356527 33.67934563 227.73356527 32.57944959 227.72771102 C30.1766708 227.71741144 27.77413232 227.72136733 25.37133789 227.7253418 C23.64636515 227.72099365 21.92139433 227.71581016 20.19642639 227.70985413 C15.51462897 227.69646428 10.83291228 227.69588542 6.15109944 227.69841743 C2.24198616 227.6994871 -1.66711079 227.69460389 -5.57622057 227.689812 C-14.79846612 227.67871697 -24.02067093 227.67827947 -33.24291992 227.68432617 C-42.75588208 227.69036758 -52.26869639 227.67805069 -61.78163332 227.6567561 C-69.950772 227.6391422 -78.11986362 227.63313839 -86.2890206 227.63639385 C-91.1673758 227.6382071 -96.04562554 227.63556622 -100.92396355 227.62167931 C-105.51144266 227.60910895 -110.09869121 227.61103756 -114.68616676 227.62409019 C-116.36877393 227.62645721 -118.05139729 227.6237168 -119.7339859 227.61546707 C-122.03308412 227.60500831 -124.33140742 227.61309266 -126.63047791 227.6257782 C-127.91633758 227.62561046 -129.20219725 227.62544271 -130.52702236 227.62526989 C-134.33322407 228.03595448 -136.75249842 229.00310928 -140 231 Z " fill="#000000" transform="translate(302,116)"/>
<path d="M0 0 C0 5.61 0 11.22 0 17 C-1.93875 17.2475 -3.8775 17.495 -5.875 17.75 C-19.14076829 19.83626508 -28.80419903 25.49687749 -37.43359375 35.828125 C-43.63159115 44.42185706 -46.03976374 53.5974405 -47 64 C-52.61 64 -58.22 64 -64 64 C-64.81048892 47.18235481 -59.00757545 32.18084245 -47.75 19.625 C-34.93941828 5.98416398 -18.40514524 -0.46595304 0 0 Z " fill="#000000" transform="translate(256,128)"/>
<path d="M0 0 C3.63303084 1.69586126 5.94549046 3.73800488 8.75 6.625 C9.54921875 7.44226563 10.3484375 8.25953125 11.171875 9.1015625 C11.77515625 9.72804688 12.3784375 10.35453125 13 11 C11.67624661 13.92293008 10.23343726 16.02829096 7.99072266 18.31567383 C7.38314117 18.93924271 6.77555969 19.56281158 6.14956665 20.20527649 C5.49435028 20.86585556 4.83913391 21.52643463 4.1640625 22.20703125 C3.4883017 22.89182053 2.81254089 23.5766098 2.11630249 24.28215027 C0.68834807 25.72459077 -0.74241631 27.16425421 -2.17578125 28.60131836 C-4.3722748 30.80975997 -6.5494285 33.03616401 -8.7265625 35.26367188 C-10.11603568 36.66260331 -11.50662334 38.06042886 -12.8984375 39.45703125 C-13.54960541 40.12773148 -14.20077332 40.7984317 -14.87167358 41.48945618 C-15.48555939 42.09726425 -16.09944519 42.70507233 -16.73193359 43.33129883 C-17.26773041 43.87216629 -17.80352722 44.41303375 -18.3555603 44.97029114 C-20 46 -20 46 -22.05459595 45.78715515 C-24.89250113 44.63887355 -26.64341011 42.82855641 -28.8125 40.6875 C-29.62332031 39.90761719 -30.43414062 39.12773438 -31.26953125 38.32421875 C-33 36 -33 36 -32.79884338 34.06671143 C-31.86735635 31.65683367 -30.78341808 30.42126022 -28.94897461 28.60839844 C-28.30838608 27.9680365 -27.66779755 27.32767456 -27.00779724 26.66790771 C-26.31299759 25.98859192 -25.61819794 25.30927612 -24.90234375 24.609375 C-24.19348526 23.90476135 -23.48462677 23.20014771 -22.75428772 22.47418213 C-20.4889672 20.22565215 -18.21343792 17.98777762 -15.9375 15.75 C-14.39970665 14.22725292 -12.86258869 12.70382346 -11.32617188 11.1796875 C-7.55858198 7.4451719 -3.78255735 3.7193515 0 0 Z " fill="#000000" transform="translate(419,80)"/>
<path d="M0 0 C2.92293008 1.32375339 5.02829096 2.76656274 7.31567383 5.00927734 C7.93924271 5.61685883 8.56281158 6.22444031 9.20527649 6.85043335 C10.1961451 7.8332579 10.1961451 7.8332579 11.20703125 8.8359375 C11.89182053 9.5116983 12.5766098 10.18745911 13.28215027 10.88369751 C14.72459077 12.31165193 16.16425421 13.74241631 17.60131836 15.17578125 C19.80975997 17.3722748 22.03616401 19.5494285 24.26367188 21.7265625 C25.66260331 23.11603568 27.06042886 24.50662334 28.45703125 25.8984375 C29.12773148 26.54960541 29.7984317 27.20077332 30.48945618 27.87167358 C31.09726425 28.48555939 31.70507233 29.09944519 32.33129883 29.73193359 C32.87216629 30.26773041 33.41303375 30.80352722 33.97029114 31.3555603 C35 33 35 33 34.78715515 35.05459595 C33.63887355 37.89250113 31.82855641 39.64341011 29.6875 41.8125 C28.90761719 42.62332031 28.12773438 43.43414062 27.32421875 44.26953125 C25 46 25 46 23.06671143 45.79884338 C20.65683367 44.86735635 19.42126022 43.78341808 17.60839844 41.94897461 C16.9680365 41.30838608 16.32767456 40.66779755 15.66790771 40.00779724 C14.98859192 39.31299759 14.30927612 38.61819794 13.609375 37.90234375 C12.90476135 37.19348526 12.20014771 36.48462677 11.47418213 35.75428772 C9.22565215 33.4889672 6.98777762 31.21343792 4.75 28.9375 C3.22725292 27.39970665 1.70382346 25.86258869 0.1796875 24.32617188 C-3.5548281 20.55858198 -7.2806485 16.78255735 -11 13 C-9.30413874 9.36696916 -7.26199512 7.05450954 -4.375 4.25 C-3.55773437 3.45078125 -2.74046875 2.6515625 -1.8984375 1.828125 C-0.95871094 0.92320313 -0.95871094 0.92320313 0 0 Z " fill="#000000" transform="translate(91,80)"/>
<path d="M0 0 C15.84 0 31.68 0 48 0 C48 5.28 48 10.56 48 16 C32.16 16 16.32 16 0 16 C0 10.72 0 5.44 0 0 Z " fill="#000000" transform="translate(448,248)"/>
<path d="M0 0 C15.84 0 31.68 0 48 0 C48 5.28 48 10.56 48 16 C32.16 16 16.32 16 0 16 C0 10.72 0 5.44 0 0 Z " fill="#000000" transform="translate(16,248)"/>
<path d="M0 0 C5.28 0 10.56 0 16 0 C16 15.84 16 31.68 16 48 C10.72 48 5.44 48 0 48 C0 32.16 0 16.32 0 0 Z " fill="#000000" transform="translate(248,16)"/>
</svg>
