<?xml version="1.0" encoding="UTF-8"?>
<svg version="1.1" xmlns="http://www.w3.org/2000/svg" width="512" height="512">
<path d="M0 0 C3.07800281 1.43804894 4.17274951 4.50195355 5.66894531 7.40063477 C6.46472642 8.87718899 7.26306668 10.35236582 8.06347656 11.82641602 C8.49869629 12.63288574 8.93391602 13.43935547 9.38232422 14.27026367 C11.94473663 18.93153204 14.66037148 23.50333723 17.35644531 28.08813477 C22.53576092 36.93239984 27.65506552 45.8094868 32.73144531 54.71313477 C40.37335623 68.11457412 48.07540232 81.48066664 55.79394531 94.83813477 C60.19860705 102.46279477 64.59984995 110.0894028 68.99511719 117.71948242 C70.79394387 120.83813227 72.59843791 123.95345539 74.40332031 127.06860352 C75.51290435 128.99166 76.62228965 130.91483117 77.73144531 132.83813477 C78.50331177 134.16518433 78.50331177 134.16518433 79.29077148 135.51904297 C79.75459229 136.32559326 80.21841309 137.13214355 80.69628906 137.96313477 C81.10355225 138.66696289 81.51081543 139.37079102 81.93041992 140.09594727 C82.79394531 141.83813477 82.79394531 141.83813477 82.79394531 143.83813477 C81.14394531 144.49813477 79.49394531 145.15813477 77.79394531 145.83813477 C78.75052631 147.6099153 79.70927519 149.38052552 80.66894531 151.15063477 C81.20261719 152.13676758 81.73628906 153.12290039 82.28613281 154.13891602 C83.80116658 156.93399934 83.80116658 156.93399934 85.79394531 159.83813477 C88.91869158 158.2033996 88.91869158 158.2033996 89.48144531 155.71313477 C89.58457031 155.09438477 89.68769531 154.47563477 89.79394531 153.83813477 C90.79928198 155.45983856 91.79806438 157.08560714 92.79394531 158.71313477 C93.35082031 159.61805664 93.90769531 160.52297852 94.48144531 161.45532227 C95.79394531 163.83813477 95.79394531 163.83813477 95.79394531 165.83813477 C95.08189941 166.24427002 94.36985352 166.65040527 93.63623047 167.06884766 C72.34562786 179.21569314 51.07806386 191.40067133 29.91894531 203.77563477 C20.64889016 209.19724972 11.33562881 214.54018334 2.00549316 219.85736084 C-7.11888309 225.05858605 -16.20738243 230.31841354 -25.27294922 235.62158203 C-35.79690093 241.77580218 -46.35985606 247.86183473 -56.92382812 253.94702148 C-62.35265411 257.07493625 -67.7792475 260.20671924 -73.20605469 263.33813477 C-75.37271051 264.58815356 -77.53937718 265.83815355 -79.70605469 267.08813477 C-80.77855469 267.70688477 -81.85105469 268.32563477 -82.95605469 268.96313477 C-129.53938802 295.83813477 -176.12272135 322.71313477 -222.70605469 349.58813477 C-223.78032715 350.20817383 -224.85459961 350.82821289 -225.96142578 351.46704102 C-228.10925595 352.70563924 -230.25800687 353.94264229 -232.40771484 355.17797852 C-237.50478373 358.10962598 -242.59062934 361.05714286 -247.64520264 364.06140137 C-250.04202831 365.48467861 -252.44411677 366.89893456 -254.84667969 368.3125 C-256.54721537 369.31812365 -258.24001268 370.33679654 -259.93261719 371.35571289 C-260.95871094 371.95834961 -261.98480469 372.56098633 -263.04199219 373.18188477 C-263.94481934 373.72006836 -264.84764648 374.25825195 -265.77783203 374.81274414 C-268.20605469 375.83813477 -268.20605469 375.83813477 -270.41943359 375.72680664 C-273.55520999 374.16705998 -274.06729542 370.96972275 -275.20605469 367.83813477 C-273.22605469 367.17813477 -271.24605469 366.51813477 -269.20605469 365.83813477 C-273.16605469 358.90813477 -273.16605469 358.90813477 -277.20605469 351.83813477 C-278.19605469 352.49813477 -279.18605469 353.15813477 -280.20605469 353.83813477 C-279.87605469 355.81813477 -279.54605469 357.79813477 -279.20605469 359.83813477 C-282.00169244 357.34428684 -283.63858873 354.58598396 -285.47167969 351.33422852 C-286.10662354 350.2145166 -286.74156738 349.09480469 -287.39575195 347.94116211 C-287.73099884 347.34470886 -288.06624573 346.74825562 -288.41165161 346.13372803 C-289.83597548 343.59971923 -291.27095355 341.07179716 -292.70509338 338.54333496 C-293.44658813 337.23563891 -294.18749819 335.92761115 -294.92784119 334.6192627 C-298.50618323 328.29683912 -302.13225599 322.00238825 -305.76855469 315.71313477 C-307.00944536 313.5647003 -308.25033077 311.4162628 -309.49121094 309.26782227 C-310.10367676 308.20789063 -310.71614258 307.14795898 -311.34716797 306.0559082 C-313.84327633 301.73509022 -316.33677559 297.41276955 -318.83007812 293.09033203 C-320.07665431 290.92926471 -321.323398 288.76829401 -322.5703125 286.60742188 C-325.75974581 281.08015565 -328.94731418 275.55182616 -332.13183594 270.02172852 C-332.77765625 268.90096924 -333.42347656 267.78020996 -334.08886719 266.62548828 C-335.35956296 264.41961573 -336.62912383 262.21308896 -337.89746094 260.00585938 C-340.69031982 255.1545352 -343.50230504 250.31984043 -346.40527344 245.53344727 C-347.12203247 244.34537476 -347.12203247 244.34537476 -347.85327148 243.13330078 C-348.72727922 241.69081734 -349.60970234 240.25338435 -350.50219727 238.82226562 C-351.48061148 237.20510913 -352.35482153 235.5257045 -353.20605469 233.83813477 C-352.87605469 232.84813477 -352.54605469 231.85813477 -352.20605469 230.83813477 C-350.14355469 230.15063477 -350.14355469 230.15063477 -348.20605469 229.83813477 C-349.15944438 227.87738993 -350.11893008 225.91960824 -351.08105469 223.96313477 C-351.8815625 222.32731445 -351.8815625 222.32731445 -352.69824219 220.65844727 C-354.05141406 217.79930929 -354.05141406 217.79930929 -356.20605469 215.83813477 C-357.19605469 216.82813477 -358.18605469 217.81813477 -359.20605469 218.83813477 C-358.21605469 221.31313477 -358.21605469 221.31313477 -357.20605469 223.83813477 C-357.86605469 223.83813477 -358.52605469 223.83813477 -359.20605469 223.83813477 C-360.96777344 221.31860352 -360.96777344 221.31860352 -362.89355469 218.02563477 C-363.53679687 216.94668945 -364.18003906 215.86774414 -364.84277344 214.75610352 C-366.20605469 211.83813477 -366.20605469 211.83813477 -365.20605469 208.83813477 C-363.36206055 207.52636719 -363.36206055 207.52636719 -360.92089844 206.19360352 C-360.01057861 205.68917725 -359.10025879 205.18475098 -358.16235352 204.66503906 C-357.1661499 204.12403564 -356.16994629 203.58303223 -355.14355469 203.02563477 C-353.02028841 201.8501223 -350.89791883 200.67298897 -348.77636719 199.49438477 C-347.13522949 198.5855957 -347.13522949 198.5855957 -345.4609375 197.65844727 C-340.439335 194.85008631 -335.47892703 191.94036836 -330.51855469 189.02563477 C-321.82035848 183.92917464 -313.08881213 178.89388027 -304.33105469 173.90063477 C-292.00568139 166.87231369 -279.70883254 159.79572957 -267.42382812 152.69702148 C-262.01934823 149.57488872 -256.61258057 146.45672272 -251.20605469 143.33813477 C-249.03937718 142.08815355 -246.87271051 140.83815356 -244.70605469 139.58813477 C-223.03938802 127.08813477 -201.37272135 114.58813477 -179.70605469 102.08813477 C-178.63371582 101.46946533 -177.56137695 100.8507959 -176.45654297 100.21337891 C-174.28829204 98.96248997 -172.11999772 97.71167625 -169.95166016 96.4609375 C-164.55887554 93.35015141 -159.16683376 90.23809239 -153.77636719 87.12329102 C-141.96975985 80.30310839 -130.14578469 73.51490216 -118.30133057 66.76077271 C-110.24342256 62.16419254 -102.21187682 57.52489317 -94.20605469 52.83813477 C-85.61082797 47.80632787 -76.98293339 42.83424405 -68.33105469 37.90063477 C-59.23524675 32.71370591 -50.14987051 27.50970374 -41.08105469 22.27563477 C-39.50807617 21.37083374 -39.50807617 21.37083374 -37.90332031 20.44775391 C-32.84339484 17.53379284 -27.79525224 14.60275343 -22.77597046 11.61940002 C-20.37682348 10.19489778 -17.97239113 8.77945881 -15.56744385 7.36477661 C-13.86602871 6.35881319 -12.17241625 5.33969 -10.47900391 4.3203125 C-9.45307129 3.71775635 -8.42713867 3.1152002 -7.37011719 2.49438477 C-6.46729004 1.95620117 -5.56446289 1.41801758 -4.63427734 0.86352539 C-2.20605469 -0.16186523 -2.20605469 -0.16186523 0 0 Z M2.79394531 7.83813477 C1.47394531 9.15813477 0.15394531 10.47813477 -1.20605469 11.83813477 C1.10394531 15.79813477 3.41394531 19.75813477 5.79394531 23.83813477 C7.44394531 23.50813477 9.09394531 23.17813477 10.79394531 22.83813477 C11.12394531 22.17813477 11.45394531 21.51813477 11.79394531 20.83813477 C10.57291095 18.54353396 9.31431939 16.39719854 7.91894531 14.21313477 C7.54125 13.60211914 7.16355469 12.99110352 6.77441406 12.36157227 C5.81494561 10.8318859 4.8081521 9.33209082 3.79394531 7.83813477 C3.46394531 7.83813477 3.13394531 7.83813477 2.79394531 7.83813477 Z M-20.39355469 21.33813477 C-21.46669922 22.03422852 -21.46669922 22.03422852 -22.56152344 22.74438477 C-23.10421875 23.10532227 -23.64691406 23.46625977 -24.20605469 23.83813477 C-23.78453125 24.60899414 -23.36300781 25.37985352 -22.92871094 26.17407227 C-22.38085938 27.17696289 -21.83300781 28.17985352 -21.26855469 29.21313477 C-20.72328125 30.21086914 -20.17800781 31.20860352 -19.61621094 32.23657227 C-18.79107879 33.75883823 -17.98041077 35.2894226 -17.20605469 36.83813477 C-12.69127071 36.30698371 -9.85938612 34.47193184 -6.20605469 31.83813477 C-7.3477686 28.51678519 -8.86503837 25.54161274 -10.64355469 22.52563477 C-11.05476563 21.82825195 -11.46597656 21.13086914 -11.88964844 20.41235352 C-12.3240625 19.89286133 -12.75847656 19.37336914 -13.20605469 18.83813477 C-16.61926704 18.83813477 -17.60078354 19.50680942 -20.39355469 21.33813477 Z M-41.76855469 33.33813477 C-42.59484375 33.80219727 -43.42113281 34.26625977 -44.27246094 34.74438477 C-44.91054688 35.10532227 -45.54863281 35.46625977 -46.20605469 35.83813477 C-45.5184445 39.49378386 -43.95155924 42.35680748 -42.14355469 45.58813477 C-41.59570312 46.57297852 -41.04785156 47.55782227 -40.48339844 48.57250977 C-40.061875 49.32016602 -39.64035156 50.06782227 -39.20605469 50.83813477 C-37.72083792 50.07902397 -36.24302044 49.30542243 -34.76855469 48.52563477 C-33.94484375 48.09637695 -33.12113281 47.66711914 -32.27246094 47.22485352 C-29.89957825 45.93792589 -29.89957825 45.93792589 -29.20605469 42.83813477 C-30.60068409 39.80745909 -30.60068409 39.80745909 -32.58105469 36.65063477 C-33.22816406 35.56395508 -33.87527344 34.47727539 -34.54199219 33.35766602 C-35.09113281 32.5262207 -35.64027344 31.69477539 -36.20605469 30.83813477 C-38.20284249 30.83813477 -40.08182891 32.38786672 -41.76855469 33.33813477 Z M5.38769531 38.81079102 C4.26476074 39.45540283 3.14182617 40.10001465 1.98486328 40.76416016 C0.75450428 41.47622677 -0.47580026 42.18838749 -1.70605469 42.90063477 C-2.97651198 43.63204377 -4.24718548 44.36307734 -5.51806641 45.09375 C-8.78798654 46.97509188 -12.05497156 48.86146842 -15.32116699 50.74926758 C-18.19009195 52.40659616 -21.0614246 54.05973862 -23.93261719 55.71313477 C-29.27660354 58.79191625 -34.61751397 61.87599025 -39.95751953 64.96166992 C-44.40823638 67.53255596 -48.86089529 70.10006941 -53.31347656 72.66772461 C-64.95134117 79.37912072 -76.58246191 86.10205269 -88.20605469 92.83813477 C-86.80586385 97.65773901 -84.67927376 101.70820972 -82.08105469 105.96313477 C-77.78906614 113.12315693 -73.60994469 120.34271036 -69.48171997 127.59814453 C-63.53419884 138.05023736 -57.53009374 148.46666013 -51.45654297 158.84619141 C-46.88604367 166.66041909 -42.35187871 174.49510534 -37.83105469 182.33813477 C-37.49564667 182.92000549 -37.16023865 183.50187622 -36.81466675 184.10137939 C-34.94432212 187.34649985 -33.07481514 190.5921018 -31.20605469 193.83813477 C-26.50039408 193.03791707 -23.04568816 191.18652287 -19.01855469 188.71313477 C-17.49068996 187.79516677 -15.96198912 186.87858949 -14.43261719 185.96313477 C-13.59762695 185.46168945 -12.76263672 184.96024414 -11.90234375 184.44360352 C-6.92908634 181.48234485 -1.90961484 178.60108949 3.10644531 175.71313477 C4.20690186 175.07875488 5.3073584 174.444375 6.44116211 173.79077148 C15.12652652 168.78801155 23.82774396 163.81326856 32.53323364 158.84564209 C45.31197232 151.55332817 58.05665344 144.20258205 70.79394531 136.83813477 C66.4010071 128.40811088 61.84449435 120.10994679 56.99072266 111.9362793 C53.12012425 105.41411181 49.32688427 98.84898094 45.54394531 92.27563477 C39.99781065 82.64475685 34.42638304 73.02930695 28.80957031 63.43945312 C26.02459784 58.68112646 23.2605052 53.91324715 20.54394531 49.11547852 C20.03637695 48.2233667 19.52880859 47.33125488 19.00585938 46.41210938 C18.05360693 44.73548987 17.10732683 43.05545972 16.16796875 41.37158203 C15.09899285 39.49427049 13.95432748 37.66036453 12.79394531 35.83813477 C9.79755295 35.83813477 7.97395166 37.31976491 5.38769531 38.81079102 Z M-64.76855469 46.83813477 C-65.59484375 47.39500977 -66.42113281 47.95188477 -67.27246094 48.52563477 C-67.91054688 48.95875977 -68.54863281 49.39188477 -69.20605469 49.83813477 C-67.89874718 53.27745311 -66.39569135 56.45114382 -64.58105469 59.65063477 C-63.79730469 61.03250977 -63.01355469 62.41438477 -62.20605469 63.83813477 C-58.90605469 62.18813477 -55.60605469 60.53813477 -52.20605469 58.83813477 C-53.09604386 54.38818891 -53.90878339 52.25317834 -56.20605469 48.52563477 C-56.74230469 47.64262695 -57.27855469 46.75961914 -57.83105469 45.84985352 C-58.28480469 45.18598633 -58.73855469 44.52211914 -59.20605469 43.83813477 C-61.24109798 43.83813477 -63.15601366 45.74796618 -64.76855469 46.83813477 Z M-88.39355469 60.33813477 C-89.46669922 61.03422852 -89.46669922 61.03422852 -90.56152344 61.74438477 C-91.10421875 62.10532227 -91.64691406 62.46625977 -92.20605469 62.83813477 C-90.44176269 67.81023039 -87.81213809 72.27251537 -85.20605469 76.83813477 C-81.41504279 75.38863022 -77.81859089 73.6864091 -74.20605469 71.83813477 C-75.97034668 66.86603915 -78.59997129 62.40375416 -81.20605469 57.83813477 C-84.61926704 57.83813477 -85.60078354 58.50680942 -88.39355469 60.33813477 Z M-110.83105469 73.33813477 C-111.64832031 73.80219727 -112.46558594 74.26625977 -113.30761719 74.74438477 C-113.93410156 75.10532227 -114.56058594 75.46625977 -115.20605469 75.83813477 C-111.77133301 83.58672443 -111.77133301 83.58672443 -106.20605469 89.83813477 C-103.23605469 88.18813477 -100.26605469 86.53813477 -97.20605469 84.83813477 C-98.97034668 79.86603915 -101.59997129 75.40375416 -104.20605469 70.83813477 C-106.94856664 70.83813477 -108.46111313 71.98388245 -110.83105469 73.33813477 Z M-133.33105469 86.33813477 C-134.05550781 86.80219727 -134.77996094 87.26625977 -135.52636719 87.74438477 C-136.08066406 88.10532227 -136.63496094 88.46625977 -137.20605469 88.83813477 C-136.64616166 92.82825848 -135.44935701 95.36363996 -133.14355469 98.65063477 C-132.59570312 99.44083008 -132.04785156 100.23102539 -131.48339844 101.04516602 C-131.061875 101.6368457 -130.64035156 102.22852539 -130.20605469 102.83813477 C-126.62834921 101.45515618 -123.45760275 99.88196498 -120.20605469 97.83813477 C-121.62441826 92.68044906 -123.87997043 88.03838219 -127.20605469 83.83813477 C-129.88155761 83.83813477 -131.0965011 84.89648729 -133.33105469 86.33813477 Z M-155.76855469 99.33813477 C-156.59484375 99.80219727 -157.42113281 100.26625977 -158.27246094 100.74438477 C-158.91054687 101.10532227 -159.54863281 101.46625977 -160.20605469 101.83813477 C-158.74572974 107.1484073 -156.22284483 111.30143508 -153.20605469 115.83813477 C-149.29393736 114.68228192 -146.33155059 113.48278514 -143.20605469 110.83813477 C-144.64573113 105.60294771 -147.02302079 101.20787467 -150.20605469 96.83813477 C-152.20284249 96.83813477 -154.08182891 98.38786672 -155.76855469 99.33813477 Z M-104.68652344 100.18969727 C-105.59039795 100.7037915 -106.49427246 101.21788574 -107.42553711 101.74755859 C-108.40498291 102.31369873 -109.38442871 102.87983887 -110.39355469 103.46313477 C-111.41876221 104.04925537 -112.44396973 104.63537598 -113.50024414 105.23925781 C-121.65194544 109.91076434 -129.7657403 114.64789085 -137.87329102 119.39550781 C-145.5810257 123.90525379 -153.32336535 128.35257924 -161.08105469 132.77563477 C-171.24063175 138.56894973 -181.38657185 144.38483095 -191.51098633 150.23950195 C-196.53799724 153.14644745 -201.56758731 156.04840741 -206.61035156 158.92793274 C-209.00468999 160.29545449 -211.39726002 161.66605419 -213.78973389 163.03683472 C-215.47319937 163.99969377 -217.15917447 164.95816083 -218.84521484 165.91650391 C-220.37927979 166.79616821 -220.37927979 166.79616821 -221.94433594 167.69360352 C-222.84192627 168.20560303 -223.7395166 168.71760254 -224.66430664 169.24511719 C-227.35340118 170.93048285 -229.76656621 172.81176556 -232.20605469 174.83813477 C-226.20746298 185.78487355 -220.03816909 196.6196727 -213.73071289 207.39135742 C-209.38295168 214.81652474 -205.06518823 222.25826798 -200.76855469 229.71313477 C-200.15286621 230.78039795 -199.53717773 231.84766113 -198.90283203 232.94726562 C-195.98145355 238.01349692 -193.06451633 243.08220011 -190.1587677 248.15740967 C-189.14354634 249.92997753 -188.1270313 251.70179708 -187.11010742 253.47338867 C-185.83878108 255.68901613 -184.56989348 257.9060455 -183.30395508 260.12475586 C-179.82088138 266.18929941 -176.17767153 272.08078753 -172.20605469 277.83813477 C-166.02441865 276.20975077 -160.89509626 272.89571793 -155.45605469 269.65063477 C-153.29499836 268.37521379 -151.13352569 267.10049804 -148.97167969 265.82641602 C-147.85599609 265.16722168 -146.7403125 264.50802734 -145.59082031 263.82885742 C-140.15013444 260.62896182 -134.67783995 257.48445245 -129.20605469 254.33813477 C-120.85767518 249.53030723 -112.5236182 244.69907522 -104.20605469 239.83813477 C-95.92827953 235.00136791 -87.6362447 230.19017664 -79.33105469 225.40063477 C-78.26822266 224.78671875 -77.20539063 224.17280273 -76.11035156 223.5402832 C-70.98466684 220.58196909 -65.85380903 217.63358261 -60.70626831 214.71348572 C-58.28666802 213.34003687 -55.86998646 211.96149882 -53.45355225 210.58248901 C-51.73995076 209.60742218 -50.02211193 208.6398142 -48.30419922 207.67236328 C-47.27149902 207.08253662 -46.23879883 206.49270996 -45.17480469 205.88500977 C-44.26150391 205.36777344 -43.34820312 204.85053711 -42.40722656 204.31762695 C-39.95251184 202.87070562 -39.95251184 202.87070562 -38.20605469 199.83813477 C-47.81927366 183.13999373 -57.48328674 166.47279703 -67.20605469 149.83813477 C-74.67280348 137.0632907 -82.12109145 124.27822331 -89.51855469 111.46313477 C-90.49779907 109.76761475 -90.49779907 109.76761475 -91.49682617 108.0378418 C-92.09825439 106.9948291 -92.69968262 105.95181641 -93.31933594 104.87719727 C-93.85341064 103.95116699 -94.38748535 103.02513672 -94.93774414 102.07104492 C-95.72836648 100.67912347 -96.49015958 99.26992498 -97.20605469 97.83813477 C-100.6127991 97.83813477 -101.77075193 98.51923703 -104.68652344 100.18969727 Z M-174.20605469 109.83813477 C-178.66105469 112.80813477 -178.66105469 112.80813477 -183.20605469 115.83813477 C-182.42230469 117.42625977 -181.63855469 119.01438477 -180.83105469 120.65063477 C-180.39019531 121.54395508 -179.94933594 122.43727539 -179.49511719 123.35766602 C-178.18738564 125.98369858 -178.18738564 125.98369858 -176.20605469 128.83813477 C-171.69127071 128.30698371 -168.85938612 126.47193184 -165.20605469 123.83813477 C-166.1369044 122.06379665 -167.07600081 120.29378327 -168.01855469 118.52563477 C-168.540625 117.53950195 -169.06269531 116.55336914 -169.60058594 115.53735352 C-171.19740517 112.60052552 -171.19740517 112.60052552 -174.20605469 109.83813477 Z M-202.39355469 126.33813477 C-203.46669922 127.03422852 -203.46669922 127.03422852 -204.56152344 127.74438477 C-205.10421875 128.10532227 -205.64691406 128.46625977 -206.20605469 128.83813477 C-205.27854271 130.80121837 -204.33869015 132.75847504 -203.39355469 134.71313477 C-202.87148437 135.80368164 -202.34941406 136.89422852 -201.81152344 138.01782227 C-200.35880571 141.06034878 -200.35880571 141.06034878 -197.20605469 142.83813477 C-194.23605469 140.85813477 -191.26605469 138.87813477 -188.20605469 136.83813477 C-188.98980469 135.25000977 -189.77355469 133.66188477 -190.58105469 132.02563477 C-191.02191406 131.13231445 -191.46277344 130.23899414 -191.91699219 129.31860352 C-193.22472373 126.69257095 -193.22472373 126.69257095 -195.20605469 123.83813477 C-198.61926704 123.83813477 -199.60078354 124.50680942 -202.39355469 126.33813477 Z M-224.26855469 138.83813477 C-225.89792969 139.82813477 -227.52730469 140.81813477 -229.20605469 141.83813477 C-226.56605469 146.45813477 -223.92605469 151.07813477 -221.20605469 155.83813477 C-217.90605469 154.18813477 -214.60605469 152.53813477 -211.20605469 150.83813477 C-212.75150614 145.35880688 -215.36148681 140.72384296 -218.20605469 135.83813477 C-220.33334333 135.83813477 -222.52693255 137.77993397 -224.26855469 138.83813477 Z M-247.33105469 152.33813477 C-248.05550781 152.80219727 -248.77996094 153.26625977 -249.52636719 153.74438477 C-250.08066406 154.10532227 -250.63496094 154.46625977 -251.20605469 154.83813477 C-249.44176269 159.81023039 -246.81213809 164.27251537 -244.20605469 168.83813477 C-240.61214355 167.50325349 -237.45114772 165.87790753 -234.20605469 163.83813477 C-234.87307172 160.3136497 -236.309633 157.65513338 -238.14355469 154.58813477 C-238.66820312 153.69610352 -239.19285156 152.80407227 -239.73339844 151.88500977 C-240.219375 151.20954102 -240.70535156 150.53407227 -241.20605469 149.83813477 C-243.88155761 149.83813477 -245.0965011 150.89648729 -247.33105469 152.33813477 Z M63.79394531 153.83813477 C59.33894531 156.80813477 59.33894531 156.80813477 54.79394531 159.83813477 C57.10394531 164.45813477 59.41394531 169.07813477 61.79394531 173.83813477 C65.42394531 171.85813477 69.05394531 169.87813477 72.79394531 167.83813477 C71.86582031 166.08500977 70.93769531 164.33188477 69.98144531 162.52563477 C69.459375 161.53950195 68.93730469 160.55336914 68.39941406 159.53735352 C66.80259483 156.60052552 66.80259483 156.60052552 63.79394531 153.83813477 Z M-268.34667969 163.73657227 C-269.04277344 164.22383789 -269.73886719 164.71110352 -270.45605469 165.21313477 C-271.51566406 165.93629883 -271.51566406 165.93629883 -272.59667969 166.67407227 C-273.12777344 167.05821289 -273.65886719 167.44235352 -274.20605469 167.83813477 C-272.44176269 172.81023039 -269.81213809 177.27251537 -267.20605469 181.83813477 C-263.41380218 180.38815587 -259.82795184 178.66914926 -256.20605469 176.83813477 C-257.10758928 174.87278935 -258.02785578 172.91602852 -258.95605469 170.96313477 C-259.72175781 169.32731445 -259.72175781 169.32731445 -260.50292969 167.65844727 C-261.98801061 164.82628168 -261.98801061 164.82628168 -264.14355469 163.30688477 C-266.25830607 162.61596005 -266.25830607 162.61596005 -268.34667969 163.73657227 Z M35.60644531 170.33813477 C34.53330078 171.03422852 34.53330078 171.03422852 33.43847656 171.74438477 C32.89578125 172.10532227 32.35308594 172.46625977 31.79394531 172.83813477 C32.72145729 174.80121837 33.66130985 176.75847504 34.60644531 178.71313477 C35.12851562 179.80368164 35.65058594 180.89422852 36.18847656 182.01782227 C37.64119429 185.06034878 37.64119429 185.06034878 40.79394531 186.83813477 C43.76394531 184.85813477 46.73394531 182.87813477 49.79394531 180.83813477 C49.37242187 180.06727539 48.95089844 179.29641602 48.51660156 178.50219727 C47.96875 177.49930664 47.42089844 176.49641602 46.85644531 175.46313477 C46.31117188 174.46540039 45.76589844 173.46766602 45.20410156 172.43969727 C44.37896941 170.9174313 43.5683014 169.38684694 42.79394531 167.83813477 C39.38073296 167.83813477 38.39921646 168.50680942 35.60644531 170.33813477 Z M-292.83105469 178.33813477 C-293.64832031 178.80219727 -294.46558594 179.26625977 -295.30761719 179.74438477 C-295.93410156 180.10532227 -296.56058594 180.46625977 -297.20605469 180.83813477 C-295.44176269 185.81023039 -292.81213809 190.27251537 -290.20605469 194.83813477 C-285.3243476 193.4757979 -283.40493651 192.19724022 -279.20605469 188.83813477 C-281.51605469 184.54813477 -283.82605469 180.25813477 -286.20605469 175.83813477 C-288.94856664 175.83813477 -290.46111313 176.98388245 -292.83105469 178.33813477 Z M12.60644531 183.33813477 C11.53330078 184.03422852 11.53330078 184.03422852 10.43847656 184.74438477 C9.89578125 185.10532227 9.35308594 185.46625977 8.79394531 185.83813477 C9.91212043 187.98778158 11.03801979 190.13271042 12.16894531 192.27563477 C12.48605469 192.88729492 12.80316406 193.49895508 13.12988281 194.12915039 C14.8169883 197.5905182 14.8169883 197.5905182 17.79394531 199.83813477 C20.0471869 198.84396469 20.0471869 198.84396469 22.41894531 197.40063477 C23.64484375 196.69100586 23.64484375 196.69100586 24.89550781 195.96704102 C25.83523438 195.40823242 25.83523438 195.40823242 26.79394531 194.83813477 C25.39634574 189.7559545 23.24373424 184.87141915 19.79394531 180.83813477 C16.38073296 180.83813477 15.39921646 181.50680942 12.60644531 183.33813477 Z M-247.34277344 184.62719727 C-248.9022168 185.53405273 -248.9022168 185.53405273 -250.49316406 186.45922852 C-251.61529297 187.12051758 -252.73742187 187.78180664 -253.89355469 188.46313477 C-255.06963626 189.14993362 -256.24607375 189.83612331 -257.42285156 190.52172852 C-260.44308888 192.28316158 -263.45905519 194.05177324 -266.47406006 195.82214355 C-270.07572883 197.93488903 -273.68437255 200.03569204 -277.29174805 202.13867188 C-279.24753318 203.27917789 -281.20276736 204.42062919 -283.1574707 205.56298828 C-290.53198227 209.87138601 -297.92847579 214.14068074 -305.33105469 218.40063477 C-317.00967824 225.12317427 -328.62317681 231.95211211 -340.20605469 238.83813477 C-338.91497278 242.22816198 -337.44823927 245.35974308 -335.65917969 248.51391602 C-335.15153076 249.41134521 -334.64388184 250.30877441 -334.12084961 251.23339844 C-333.57146729 252.19608643 -333.02208496 253.15877441 -332.45605469 254.15063477 C-331.87895752 255.16681885 -331.30186035 256.18300293 -330.70727539 257.22998047 C-326.08242243 265.35232779 -321.3804987 273.42870544 -316.65478516 281.49267578 C-312.41951514 288.72856053 -308.25100183 296.00075856 -304.10571289 303.2883606 C-301.15091571 308.47835237 -298.18002084 313.65910762 -295.20605469 318.83813477 C-294.6035791 319.8887207 -294.00110352 320.93930664 -293.38037109 322.02172852 C-291.73091058 324.88490823 -290.06565844 327.7381349 -288.39355469 330.58813477 C-287.90806152 331.43408203 -287.42256836 332.2800293 -286.92236328 333.15161133 C-286.47328613 333.90925781 -286.02420898 334.6669043 -285.56152344 335.44750977 C-285.17633545 336.1071875 -284.79114746 336.76686523 -284.39428711 337.4465332 C-284.00217041 337.90576172 -283.61005371 338.36499023 -283.20605469 338.83813477 C-279.68005556 338.83813477 -278.33452444 337.9919685 -275.28808594 336.26782227 C-274.29365479 335.70844971 -273.29922363 335.14907715 -272.2746582 334.57275391 C-271.20014404 333.95907959 -270.12562988 333.34540527 -269.01855469 332.71313477 C-267.90085693 332.08076904 -266.78315918 331.44840332 -265.6315918 330.796875 C-256.14426343 325.41318469 -246.71876895 319.92398046 -237.30761719 314.40844727 C-219.04221737 303.70684938 -200.65765275 293.2148383 -182.20605469 282.83813477 C-182.78672072 279.03253243 -183.87027202 276.31155777 -185.83886719 273.01391602 C-186.38978027 272.081521 -186.94069336 271.14912598 -187.50830078 270.18847656 C-188.10980957 269.18598877 -188.71131836 268.18350098 -189.33105469 267.15063477 C-190.61827539 264.97660681 -191.90470759 262.80211184 -193.19042969 260.62719727 C-193.85623047 259.50474609 -194.52203125 258.38229492 -195.20800781 257.22583008 C-198.3776189 251.85174364 -201.47628558 246.4373454 -204.58105469 241.02563477 C-210.46153496 230.80285896 -216.43611557 220.63953041 -222.4777832 210.51147461 C-225.55753101 205.34212914 -228.60714214 200.1628704 -231.55371094 194.91625977 C-232.0593457 194.02028076 -232.56498047 193.12430176 -233.0859375 192.20117188 C-234.01564331 190.54598499 -234.93614858 188.8855837 -235.84570312 187.21923828 C-236.88292848 185.37636282 -238.03351568 183.59801507 -239.20605469 181.83813477 C-242.83205904 181.83813477 -244.22943133 182.80370334 -247.34277344 184.62719727 Z M-314.76855469 191.33813477 C-315.59484375 191.80219727 -316.42113281 192.26625977 -317.27246094 192.74438477 C-317.91054688 193.10532227 -318.54863281 193.46625977 -319.20605469 193.83813477 C-318.62497837 197.59843326 -317.55405973 200.36848508 -315.64355469 203.65063477 C-315.18851563 204.44083008 -314.73347656 205.23102539 -314.26464844 206.04516602 C-313.9153125 206.6368457 -313.56597656 207.22852539 -313.20605469 207.83813477 C-308.69734454 207.10844573 -305.9213111 205.51657543 -302.20605469 202.83813477 C-303.97034668 197.86603915 -306.59997129 193.40375416 -309.20605469 188.83813477 C-311.20284249 188.83813477 -313.08182891 190.38786672 -314.76855469 191.33813477 Z M-9.26855469 195.83813477 C-10.18765625 196.39500977 -11.10675781 196.95188477 -12.05371094 197.52563477 C-12.76398438 197.95875977 -13.47425781 198.39188477 -14.20605469 198.83813477 C-13.24947369 200.6099153 -12.29072481 202.38052552 -11.33105469 204.15063477 C-10.79738281 205.13676758 -10.26371094 206.12290039 -9.71386719 207.13891602 C-8.19883342 209.93399934 -8.19883342 209.93399934 -6.20605469 212.83813477 C-2.61214355 211.50325349 0.54885228 209.87790753 3.79394531 207.83813477 C3.10633513 204.18248567 1.53944986 201.31946205 -0.26855469 198.08813477 C-0.81640625 197.10329102 -1.36425781 196.11844727 -1.92871094 195.10375977 C-2.35023438 194.35610352 -2.77175781 193.60844727 -3.20605469 192.83813477 C-5.33334333 192.83813477 -7.52693255 194.77993397 -9.26855469 195.83813477 Z M-338.33105469 204.33813477 C-339.05550781 204.80219727 -339.77996094 205.26625977 -340.52636719 205.74438477 C-341.08066406 206.10532227 -341.63496094 206.46625977 -342.20605469 206.83813477 C-341.5184445 210.49378386 -339.95155924 213.35680748 -338.14355469 216.58813477 C-337.59570312 217.57297852 -337.04785156 218.55782227 -336.48339844 219.57250977 C-336.061875 220.32016602 -335.64035156 221.06782227 -335.20605469 221.83813477 C-333.72083792 221.07902397 -332.24302044 220.30542243 -330.76855469 219.52563477 C-329.94484375 219.09637695 -329.12113281 218.66711914 -328.27246094 218.22485352 C-325.89957825 216.93792589 -325.89957825 216.93792589 -325.20605469 213.83813477 C-326.56299505 210.8064569 -326.56299505 210.8064569 -328.51855469 207.65063477 C-329.1540625 206.56395508 -329.78957031 205.47727539 -330.44433594 204.35766602 C-331.02570313 203.5262207 -331.60707031 202.69477539 -332.20605469 201.83813477 C-334.88155761 201.83813477 -336.0965011 202.89648729 -338.33105469 204.33813477 Z M-32.33105469 209.33813477 C-33.05550781 209.80219727 -33.77996094 210.26625977 -34.52636719 210.74438477 C-35.08066406 211.10532227 -35.63496094 211.46625977 -36.20605469 211.83813477 C-34.44176269 216.81023039 -31.81213809 221.27251537 -29.20605469 225.83813477 C-25.41504279 224.38863022 -21.81859089 222.6864091 -18.20605469 220.83813477 C-19.16263569 219.06635423 -20.12138457 217.29574401 -21.08105469 215.52563477 C-21.8815625 214.04643555 -21.8815625 214.04643555 -22.69824219 212.53735352 C-24.21327595 209.74227019 -24.21327595 209.74227019 -26.20605469 206.83813477 C-28.88155761 206.83813477 -30.0965011 207.89648729 -32.33105469 209.33813477 Z M-50.20605469 219.83813477 C-52.45929628 220.83230484 -52.45929628 220.83230484 -54.83105469 222.27563477 C-55.64832031 222.7487207 -56.46558594 223.22180664 -57.30761719 223.70922852 C-58.24734375 224.26803711 -58.24734375 224.26803711 -59.20605469 224.83813477 C-57.44176269 229.81023039 -54.81213809 234.27251537 -52.20605469 238.83813477 C-47.66336835 237.57040835 -44.80088211 235.85117581 -41.20605469 232.83813477 C-42.32457688 230.85529998 -43.45106794 228.87695853 -44.58105469 226.90063477 C-45.20753906 225.79848633 -45.83402344 224.69633789 -46.47949219 223.56079102 C-47.92504083 220.76370429 -47.92504083 220.76370429 -50.20605469 219.83813477 Z M-78.39355469 235.83813477 C-79.10898437 236.20938477 -79.82441406 236.58063477 -80.56152344 236.96313477 C-81.37556641 237.39625977 -81.37556641 237.39625977 -82.20605469 237.83813477 C-80.44176269 242.81023039 -77.81213809 247.27251537 -75.20605469 251.83813477 C-70.69734454 251.10844573 -67.9213111 249.51657543 -64.20605469 246.83813477 C-65.3477686 243.51678519 -66.86503837 240.54161274 -68.64355469 237.52563477 C-69.05476563 236.82825195 -69.46597656 236.13086914 -69.88964844 235.41235352 C-70.3240625 234.89286133 -70.75847656 234.37336914 -71.20605469 233.83813477 C-74.40216021 233.83813477 -75.62323095 234.38485018 -78.39355469 235.83813477 Z M-99.76855469 248.33813477 C-100.59484375 248.80219727 -101.42113281 249.26625977 -102.27246094 249.74438477 C-102.91054688 250.10532227 -103.54863281 250.46625977 -104.20605469 250.83813477 C-103.62782373 254.90039025 -102.31487732 257.68575823 -100.14355469 261.15063477 C-99.32177734 262.47514648 -99.32177734 262.47514648 -98.48339844 263.82641602 C-98.061875 264.4902832 -97.64035156 265.15415039 -97.20605469 265.83813477 C-94.23605469 264.18813477 -91.26605469 262.53813477 -88.20605469 260.83813477 C-88.20605469 256.41811975 -89.05497783 254.85251927 -91.20605469 251.08813477 C-92.04136719 249.61086914 -92.04136719 249.61086914 -92.89355469 248.10375977 C-93.32667969 247.35610352 -93.75980469 246.60844727 -94.20605469 245.83813477 C-96.20284249 245.83813477 -98.08182891 247.38786672 -99.76855469 248.33813477 Z M-122.76855469 261.33813477 C-123.59484375 261.80219727 -124.42113281 262.26625977 -125.27246094 262.74438477 C-125.91054688 263.10532227 -126.54863281 263.46625977 -127.20605469 263.83813477 C-126.62782373 267.90039025 -125.31487732 270.68575823 -123.14355469 274.15063477 C-122.17417969 275.69750977 -121.20480469 277.24438477 -120.20605469 278.83813477 C-116.90605469 277.18813477 -113.60605469 275.53813477 -110.20605469 273.83813477 C-111.09604386 269.38818891 -111.90878339 267.25317834 -114.20605469 263.52563477 C-114.74230469 262.64262695 -115.27855469 261.75961914 -115.83105469 260.84985352 C-116.28480469 260.18598633 -116.73855469 259.52211914 -117.20605469 258.83813477 C-119.20284249 258.83813477 -121.08182891 260.38786672 -122.76855469 261.33813477 Z M-146.39355469 275.33813477 C-147.46669922 276.03422852 -147.46669922 276.03422852 -148.56152344 276.74438477 C-149.10421875 277.10532227 -149.64691406 277.46625977 -150.20605469 277.83813477 C-148.43709752 282.8233777 -145.80809119 287.25033357 -143.20605469 291.83813477 C-139.90605469 290.18813477 -136.60605469 288.53813477 -133.20605469 286.83813477 C-134.04420607 282.64737786 -134.71275318 280.55739633 -136.76855469 277.02563477 C-137.22359375 276.23543945 -137.67863281 275.44524414 -138.14746094 274.63110352 C-138.49679688 274.03942383 -138.84613281 273.44774414 -139.20605469 272.83813477 C-142.61926704 272.83813477 -143.60078354 273.50680942 -146.39355469 275.33813477 Z M-168.83105469 288.33813477 C-169.64832031 288.80219727 -170.46558594 289.26625977 -171.30761719 289.74438477 C-171.93410156 290.10532227 -172.56058594 290.46625977 -173.20605469 290.83813477 C-169.77133301 298.58672443 -169.77133301 298.58672443 -164.20605469 304.83813477 C-161.23605469 303.18813477 -158.26605469 301.53813477 -155.20605469 299.83813477 C-156.97034668 294.86603915 -159.59997129 290.40375416 -162.20605469 285.83813477 C-164.94856664 285.83813477 -166.46111313 286.98388245 -168.83105469 288.33813477 Z M-191.33105469 301.33813477 C-192.05550781 301.80219727 -192.77996094 302.26625977 -193.52636719 302.74438477 C-194.08066406 303.10532227 -194.63496094 303.46625977 -195.20605469 303.83813477 C-194.5470317 307.40853779 -193.04376311 310.01545732 -191.14355469 313.08813477 C-190.59570312 313.98016602 -190.04785156 314.87219727 -189.48339844 315.79125977 C-189.061875 316.46672852 -188.64035156 317.14219727 -188.20605469 317.83813477 C-184.62834921 316.45515618 -181.45760275 314.88196498 -178.20605469 312.83813477 C-179.62441826 307.68044906 -181.87997043 303.03838219 -185.20605469 298.83813477 C-187.88155761 298.83813477 -189.0965011 299.89648729 -191.33105469 301.33813477 Z M-213.76855469 314.33813477 C-214.59484375 314.80219727 -215.42113281 315.26625977 -216.27246094 315.74438477 C-216.91054687 316.10532227 -217.54863281 316.46625977 -218.20605469 316.83813477 C-216.74572974 322.1484073 -214.22284483 326.30143508 -211.20605469 330.83813477 C-206.66336835 329.57040835 -203.80088211 327.85117581 -200.20605469 324.83813477 C-201.51423936 322.66875335 -202.82731393 320.50261957 -204.14355469 318.33813477 C-204.51673828 317.7180957 -204.88992187 317.09805664 -205.27441406 316.45922852 C-206.22425309 314.9018348 -207.2121878 313.36780727 -208.20605469 311.83813477 C-210.20284249 311.83813477 -212.08182891 313.38786672 -213.76855469 314.33813477 Z M-232.20605469 324.83813477 C-235.17605469 326.48813477 -238.14605469 328.13813477 -241.20605469 329.83813477 C-239.840143 333.38056928 -238.29673985 336.76441405 -236.58105469 340.15063477 C-235.79730469 341.69750977 -235.01355469 343.24438477 -234.20605469 344.83813477 C-230.57605469 342.85813477 -226.94605469 340.87813477 -223.20605469 338.83813477 C-224.13356666 336.87505116 -225.07341922 334.91779449 -226.01855469 332.96313477 C-226.80166016 331.32731445 -226.80166016 331.32731445 -227.60058594 329.65844727 C-229.05330366 326.61592075 -229.05330366 326.61592075 -232.20605469 324.83813477 Z M-259.83105469 340.83813477 C-261.05695313 341.67344727 -261.05695313 341.67344727 -262.30761719 342.52563477 C-262.93410156 342.95875977 -263.56058594 343.39188477 -264.20605469 343.83813477 C-263.27854271 345.80121837 -262.33869015 347.75847504 -261.39355469 349.71313477 C-260.87148438 350.80368164 -260.34941406 351.89422852 -259.81152344 353.01782227 C-258.35880571 356.06034878 -258.35880571 356.06034878 -255.20605469 357.83813477 C-252.23605469 355.85813477 -249.26605469 353.87813477 -246.20605469 351.83813477 C-248.51605469 347.21813477 -250.82605469 342.59813477 -253.20605469 337.83813477 C-256.07882546 337.83813477 -257.48276028 339.22787575 -259.83105469 340.83813477 Z " fill="#131414" transform="translate(391.2060546875,68.161865234375)"/>
<path d="" fill="#000000" transform="translate(0,0)"/>
<path d="" fill="#000000" transform="translate(0,0)"/>
</svg>
