<?xml version="1.0" encoding="UTF-8"?>
<svg version="1.1" xmlns="http://www.w3.org/2000/svg" width="512" height="512">
<path d="M0 0 C1.40726349 -0.01925285 1.40726349 -0.01925285 2.84295654 -0.03889465 C4.3617038 -0.04997505 4.3617038 -0.04997505 5.91113281 -0.0612793 C6.95569641 -0.06935104 8.00026001 -0.07742279 9.07647705 -0.08573914 C11.28892357 -0.09957441 13.50139139 -0.11029905 15.71386719 -0.11816406 C19.08732883 -0.13536077 22.45980633 -0.17925102 25.83300781 -0.22338867 C27.98404228 -0.23351729 30.13508508 -0.24203286 32.28613281 -0.2487793 C33.29053406 -0.26628738 34.2949353 -0.28379547 35.32977295 -0.30183411 C42.55686362 -0.27959632 46.714232 1.0674465 52.29003906 5.81762695 C52.74765625 6.3487207 53.20527344 6.87981445 53.67675781 7.42700195 C54.38251953 8.20817383 54.38251953 8.20817383 55.10253906 9.00512695 C58.25308479 14.42835736 58.61291665 20.55789165 58.59130859 26.69458008 C58.59160065 27.39800537 58.5918927 28.10143066 58.5921936 28.82617188 C58.59081513 31.12033001 58.57532509 33.41415151 58.55957031 35.70825195 C58.55583489 37.31107404 58.55299042 38.91389843 58.55099487 40.51672363 C58.54340006 44.71214223 58.52378778 48.90741986 58.50158691 53.1027832 C58.4810385 57.3931284 58.47197401 61.68349662 58.46191406 65.97387695 C58.44053751 74.37498293 58.40645239 82.77597485 58.36425781 91.17700195 C59.69602051 91.14558105 59.69602051 91.14558105 61.0546875 91.11352539 C64.35720236 91.04524518 67.65896451 90.99515325 70.96191406 90.95727539 C72.38976902 90.93719213 73.81754206 90.90991943 75.24511719 90.87524414 C77.30066149 90.82657526 79.35511637 90.80400228 81.41113281 90.78637695 C82.64702148 90.76542969 83.88291016 90.74448242 85.15625 90.72290039 C88.36425781 91.17700195 88.36425781 91.17700195 90.77148438 93.01000977 C92.91128359 95.92123875 92.89052102 97.64352044 92.36425781 101.17700195 C91.29272461 102.84228516 91.29272461 102.84228516 89.36425781 104.17700195 C86.84698063 104.43853481 84.58321815 104.52679415 82.07128906 104.4699707 C81.36526047 104.46572586 80.65923187 104.46148102 79.93180847 104.45710754 C77.67973478 104.44033229 75.42856039 104.40268438 73.17675781 104.36450195 C71.64877596 104.34945352 70.12078006 104.33576539 68.59277344 104.32348633 C64.84958909 104.29043284 61.10707585 104.23866027 57.36425781 104.17700195 C57.26169678 104.77230713 57.15913574 105.3676123 57.0534668 105.98095703 C56.2467616 108.55138325 55.31698467 109.51497837 53.33691406 111.3137207 C52.71405518 111.88695068 52.09119629 112.46018066 51.44946289 113.05078125 C50.44822388 113.948573 50.44822388 113.948573 49.42675781 114.86450195 C48.74959717 115.48301025 48.07243652 116.10151855 47.37475586 116.73876953 C45.37805933 118.55918243 43.37170059 120.368458 41.36425781 122.17700195 C40.33742315 123.11363333 39.31129053 124.05103543 38.28613281 124.98950195 C31.66282741 131.01789969 31.66282741 131.01789969 29.27416992 132.29077148 C26.84670558 134.68813688 26.8522186 136.52762747 26.75860596 139.85319519 C26.75737732 140.60329361 26.75614868 141.35339203 26.75488281 142.1262207 C26.73834656 142.89883743 26.7218103 143.67145416 26.70477295 144.46748352 C26.65621923 146.93323657 26.63490693 149.39837267 26.61425781 151.86450195 C26.5861041 153.53705916 26.5561775 155.20958753 26.52441406 156.88208008 C26.450459 160.98033657 26.40093003 165.07824911 26.36425781 169.17700195 C53.15432213 169.13986592 79.94425228 169.08005038 106.73420334 168.99309921 C119.17273938 168.95325897 131.61121169 168.92089183 144.04980469 168.90600586 C154.88898105 168.89301517 165.72801749 168.86611671 176.56711507 168.82238889 C182.30844394 168.79971593 188.04959986 168.78409476 193.79097748 168.7851181 C199.19185565 168.78586127 204.59235065 168.76804895 209.99312973 168.73583412 C211.97810241 168.72729597 213.96311787 168.72561156 215.94810104 168.73119926 C218.65341397 168.73780191 221.35749437 168.72000898 224.06268311 168.69598389 C224.85256709 168.7037443 225.64245107 168.71150472 226.45627093 168.7195003 C229.99649913 168.66364277 231.98585359 168.46241789 234.85136032 166.30107498 C236.75088782 163.63418239 236.87078451 162.08797782 236.88183594 158.8293457 C236.9007489 157.22748413 236.9007489 157.22748413 236.92004395 155.59326172 C236.91194702 154.445271 236.9038501 153.29728027 236.89550781 152.11450195 C236.90124817 150.33934204 236.90124817 150.33934204 236.90710449 148.52832031 C236.9098259 146.02676543 236.90244884 143.52518221 236.88574219 141.02368164 C236.86433785 137.19133147 236.88553826 133.36085621 236.91113281 129.52856445 C236.90848958 127.09887281 236.9033647 124.66918233 236.89550781 122.23950195 C236.9076532 120.51751587 236.9076532 120.51751587 236.92004395 118.76074219 C236.9074353 117.69283447 236.89482666 116.62492676 236.88183594 115.5246582 C236.87865356 114.58630127 236.87547119 113.64794434 236.87219238 112.68115234 C236.20968193 109.4149328 234.93311459 108.23703448 232.36425781 106.17700195 C228.44578652 104.87084486 224.71094168 105.02432739 220.62597656 105.01928711 C219.73302887 105.01420639 218.84008118 105.00912567 217.92007446 105.00389099 C215.98030581 104.99318789 214.04052481 104.98456747 212.10073853 104.97777176 C209.0331575 104.96599303 205.96571791 104.94654432 202.89819336 104.9246521 C194.17631711 104.86299029 185.45445624 104.80892006 176.73242188 104.77563477 C171.39908514 104.75473197 166.0660076 104.71946753 160.7328186 104.67487717 C158.69783572 104.66068537 156.66280701 104.65198759 154.6277771 104.64882278 C151.78575351 104.64393383 148.94442272 104.62082951 146.10253906 104.59350586 C144.83538559 104.59801506 144.83538559 104.59801506 143.54263306 104.60261536 C137.81470234 104.52051092 137.81470234 104.52051092 135.65202332 102.87125206 C133.4955967 100.03414701 133.93726556 97.59293998 134.36425781 94.17700195 C136.11299689 92.15789741 137.55451326 91.29613676 140.21041107 90.90538406 C142.58552828 90.78458275 144.94214067 90.77186816 147.3203125 90.78881836 C148.6771666 90.78093292 148.6771666 90.78093292 150.06143188 90.77288818 C153.05317436 90.75968052 156.04438486 90.76843203 159.03613281 90.77856445 C161.11875511 90.77654324 163.20137671 90.7736314 165.28399658 90.76986694 C169.65196461 90.76544196 174.01974867 90.77187773 178.38769531 90.78588867 C183.97402055 90.8029381 189.55991202 90.79316729 195.14622116 90.77517128 C199.44947544 90.76430195 203.75262788 90.76779497 208.05588531 90.77555466 C210.11467796 90.77755016 212.17347997 90.77512029 214.23226166 90.768116 C217.11862955 90.76045452 220.00430812 90.77217334 222.890625 90.78881836 C223.73454803 90.78274567 224.57847107 90.77667297 225.44796753 90.77041626 C232.37405934 90.84400954 238.82382534 92.26172948 244.17675781 96.98950195 C244.71945312 97.44969727 245.26214844 97.90989258 245.82128906 98.3840332 C249.48828626 102.64517678 250.73969123 106.78911933 250.76831055 112.33081055 C250.78733681 114.12329727 250.78733681 114.12329727 250.80674744 115.95199585 C250.80234398 117.86935043 250.80234398 117.86935043 250.79785156 119.82543945 C250.80241921 121.16533674 250.80772651 122.50523169 250.81373596 123.84512329 C250.82264691 126.64757834 250.82026816 129.44974813 250.81030273 132.25219727 C250.79882846 135.82536731 250.81900946 139.39754678 250.84821987 142.97058678 C250.86666062 145.73662466 250.86627371 148.50242873 250.86058235 151.26851273 C250.86035648 153.22041267 250.87718551 155.17229089 250.89439392 157.12411499 C250.83491218 164.74116212 250.4423137 170.91780711 244.91697693 176.68856812 C239.33571415 181.58944327 235.20172782 182.47024497 227.91082764 182.41751099 C227.04986394 182.41921984 226.18890025 182.42092869 225.30184674 182.42268932 C222.41208444 182.42598796 219.52255347 182.41497432 216.6328125 182.40405273 C214.56328334 182.4034887 212.49375378 182.40380502 210.42422485 182.40493774 C204.8006392 182.40551257 199.17713852 182.39373726 193.55357265 182.37978983 C187.67856207 182.36730407 181.80354963 182.36611367 175.92852783 182.36373901 C164.80094529 182.35751791 153.67340195 182.34109855 142.54583669 182.32104003 C129.87851761 182.29870066 117.21119668 182.28769254 104.54386282 182.27764916 C78.48396773 182.25673288 52.42412639 182.22004875 26.36425781 182.17700195 C26.36425781 195.04700195 26.36425781 207.91700195 26.36425781 221.17700195 C35.75282227 221.14558105 35.75282227 221.14558105 45.33105469 221.11352539 C65.99042814 221.04730294 86.64980572 221.00288176 107.30925751 220.96975327 C119.8374116 220.94912968 132.36546514 220.9210128 144.89355469 220.87524414 C155.81326887 220.83537036 166.73291022 220.80956766 177.65269518 220.80064797 C183.43444364 220.7954342 189.21598374 220.7831838 194.99766541 220.75408173 C200.44115315 220.72690429 205.88434697 220.71856178 211.32789612 220.72457123 C213.32412311 220.72347204 215.32036006 220.71553218 217.31652832 220.70018005 C220.04662346 220.68021579 222.7756155 220.68508622 225.5057373 220.69598389 C226.68475908 220.67850684 226.68475908 220.67850684 227.88759947 220.66067672 C234.5066787 220.73186839 239.68953183 222.78672368 244.64160156 227.2121582 C245.18945312 227.88118164 245.73730469 228.55020508 246.30175781 229.23950195 C246.86765625 229.91110352 247.43355469 230.58270508 248.01660156 231.2746582 C250.49174703 234.76855919 250.50243524 237.83783688 250.54125977 241.99023438 C250.554095 243.18545212 250.56693024 244.38066986 250.58015442 245.61210632 C250.59123482 247.55268669 250.59123482 247.55268669 250.60253906 249.5324707 C250.60661459 250.19272058 250.61069012 250.85297047 250.61488914 251.53322792 C250.63573502 255.03077504 250.65004075 258.52828315 250.65942383 262.02587891 C250.67046039 265.6225837 250.70483145 269.21866505 250.74459553 272.81515026 C250.7708605 275.59401017 250.77912452 278.37272406 250.78270531 281.15169716 C250.78989088 283.11694303 250.81629055 285.08208869 250.84309387 287.04716492 C250.82571137 294.24229502 250.31897886 299.09330752 246.36425781 305.17700195 C244.11035156 307.2355957 244.11035156 307.2355957 241.80175781 308.61450195 C240.65513672 309.32413086 240.65513672 309.32413086 239.48535156 310.0480957 C235.04632837 312.41066974 231.0029057 312.31506979 226.10700989 312.29725647 C225.25506772 312.29811089 224.40312556 312.29896532 223.52536696 312.29984564 C220.66020071 312.30149756 217.79509253 312.29598373 214.92993164 312.29052734 C212.88025412 312.29024538 210.83057651 312.29040338 208.78089905 312.29096985 C203.2068655 312.29125748 197.63285334 312.28536625 192.05882478 312.27839589 C186.23719023 312.27215669 180.41555522 312.2715581 174.59391785 312.27037048 C163.56548079 312.26725885 152.53705362 312.2590477 141.50862092 312.24902099 C128.95498257 312.23785467 116.40134375 312.23234809 103.84770167 312.22732556 C78.01988138 312.21686496 52.19207057 312.19906798 26.36425781 312.17700195 C26.36425781 323.39700195 26.36425781 334.61700195 26.36425781 346.17700195 C36.49036207 346.05889707 36.49036207 346.05889707 46.6159668 345.90673828 C55.64230747 345.85377281 62.98356132 346.28408917 70.67675781 351.36450195 C77.81681537 358.83665522 77.95985353 365.89980473 77.89550781 375.80200195 C77.89933472 377.10347168 77.90316162 378.40494141 77.90710449 379.74584961 C77.91297256 382.48937156 77.90452518 385.23236948 77.88574219 387.97583008 C77.8629529 391.47276533 77.87609072 394.96847224 77.90003204 398.46536255 C77.91805423 401.82767118 77.90539461 405.18965855 77.89550781 408.55200195 C77.90360474 409.79804199 77.91170166 411.04408203 77.92004395 412.32788086 C77.83458102 420.29094997 77.08546628 426.12745156 71.50488281 432.20043945 C70.88097656 432.64645508 70.25707031 433.0924707 69.61425781 433.55200195 C68.69386719 434.24422852 68.69386719 434.24422852 67.75488281 434.95043945 C59.46809447 439.20215765 50.40788835 438.41076356 41.36425781 438.30200195 C39.9072327 438.2919535 38.4502009 438.28283095 36.99316406 438.2746582 C33.45005452 438.25278906 29.9071997 438.21836173 26.36425781 438.17700195 C26.36869904 438.86747116 26.37314026 439.55794037 26.37771606 440.26933289 C26.42196228 447.45557587 26.45212971 454.64178016 26.47412109 461.828125 C26.48304896 464.51013841 26.496965 467.1920571 26.51513672 469.87402344 C26.539395 473.72895006 26.5507434 477.58373168 26.55957031 481.4387207 C26.56989288 482.63784592 26.58021545 483.83697113 26.59085083 485.07243347 C26.59100189 486.19321793 26.59115295 487.31400238 26.59130859 488.46875 C26.59574982 489.45248093 26.60019104 490.43621185 26.60476685 491.44975281 C26.32358036 494.63826344 25.70359385 497.83766592 23.36425781 500.17700195 C17.56837445 500.6444119 17.56837445 500.6444119 15.36425781 500.17700195 C12.3145653 497.01084253 11.99551728 494.71721696 12.02368164 490.39868164 C12.02390823 489.23778015 12.02413483 488.07687866 12.02436829 486.88079834 C12.03985214 485.63276428 12.055336 484.38473022 12.07128906 483.09887695 C12.07553391 481.81716614 12.07977875 480.53545532 12.08415222 479.21490479 C12.09558133 475.8150056 12.12503115 472.41549372 12.15826416 469.01574707 C12.18900718 465.54351032 12.20266655 462.07121071 12.21777344 458.59887695 C12.24990323 451.79142666 12.30107578 444.98423292 12.36425781 438.17700195 C11.12442894 438.17884554 9.88460007 438.18068913 8.60720062 438.18258858 C-20.83363699 438.22591814 -50.27446736 438.25888993 -79.71532896 438.27913261 C-83.34016728 438.28163398 -86.96500553 438.28422263 -90.58984375 438.28686523 C-91.31147404 438.28738986 -92.03310433 438.28791448 -92.77660221 438.28845499 C-104.45622146 438.29715408 -116.13582099 438.31292132 -127.81542856 438.33130755 C-139.8026375 438.35002041 -151.78983613 438.36112161 -163.77705908 438.36517894 C-170.50888748 438.36767526 -177.24067479 438.37367198 -183.9724884 438.38846207 C-190.30891939 438.40203848 -196.64528726 438.40622444 -202.98173141 438.40321732 C-205.30690733 438.40376745 -207.63208535 438.40774449 -209.95724869 438.4154129 C-213.13372658 438.42537493 -216.30996671 438.42296609 -219.4864502 438.41751099 C-220.86391033 438.42624951 -220.86391033 438.42624951 -222.26919794 438.43516457 C-230.35790353 438.39766355 -237.10603989 437.37108333 -243.63574219 432.17700195 C-248.05411787 427.26769564 -249.87618938 423.78084274 -249.94213867 417.15844727 C-249.96611977 415.33570282 -249.96611977 415.33570282 -249.99058533 413.47613525 C-249.99594803 412.16570251 -250.00131073 410.85526978 -250.00683594 409.50512695 C-250.01580983 408.13995265 -250.0249318 406.77477931 -250.03419495 405.40960693 C-250.05067099 402.54819353 -250.05838206 399.68689689 -250.0612793 396.82543945 C-250.06665136 393.17588176 -250.10428604 389.52743714 -250.15002346 385.8781929 C-250.17991521 383.05727232 -250.1870055 380.23661535 -250.18800545 377.41555023 C-250.19420734 375.42147513 -250.22362104 373.4275153 -250.25352478 371.43365479 C-250.20883668 362.40614073 -248.65516522 357.30807563 -242.38574219 350.86450195 C-235.37722853 346.56382312 -228.40938594 345.73942069 -220.32823181 345.8162384 C-218.82824224 345.81239349 -218.82824224 345.81239349 -217.29794985 345.8084709 C-213.96759035 345.80355353 -210.63769036 345.81999236 -207.30737305 345.83642578 C-204.91198741 345.83727249 -202.516601 345.83679605 -200.12121582 345.83509827 C-194.30504508 345.83432776 -188.48902334 345.84730245 -182.6728866 345.86641125 C-175.90152321 345.88791128 -169.13018059 345.89235147 -162.35878784 345.89577576 C-150.28448929 345.90233133 -138.21025177 345.92226813 -126.13598633 345.95068359 C-114.41138004 345.97824738 -102.68679037 345.99946958 -90.9621582 346.01220703 C-90.23868279 346.0129952 -89.51520738 346.01378337 -88.76980846 346.01459543 C-85.14011496 346.01851072 -81.51042134 346.0223018 -77.88072765 346.02603114 C-47.79902183 346.05709917 -17.71739236 346.11073983 12.36425781 346.17700195 C12.36425781 334.95700195 12.36425781 323.73700195 12.36425781 312.17700195 C8.28050781 312.24661133 8.28050781 312.24661133 4.11425781 312.31762695 C1.4565619 312.34888573 -1.20111297 312.37313741 -3.85888672 312.39672852 C-5.69589512 312.41675569 -7.53284048 312.44398578 -9.36962891 312.47875977 C-12.02099221 312.5276726 -14.6715076 312.55005959 -17.32324219 312.56762695 C-18.1350293 312.58827209 -18.94681641 312.60891724 -19.78320312 312.63018799 C-26.42670872 312.6327606 -31.59742147 310.7988733 -36.65917969 306.4309082 C-37.10519531 305.87274414 -37.55121094 305.31458008 -38.01074219 304.73950195 C-38.47222656 304.18391602 -38.93371094 303.62833008 -39.40917969 303.0559082 C-42.12044744 298.90266046 -42.88923705 295.24056923 -42.92626953 290.3203125 C-42.93902924 289.16528732 -42.95178894 288.01026215 -42.9649353 286.82023621 C-42.96716095 285.58058609 -42.9693866 284.34093597 -42.97167969 283.0637207 C-42.98166489 281.13844292 -42.98166489 281.13844292 -42.99185181 279.17427063 C-43.00380322 276.46005898 -43.00753494 273.74597438 -43.00634766 271.03173828 C-43.00614479 267.57179457 -43.03342175 264.11267519 -43.06789207 260.65292645 C-43.0956244 257.33151371 -43.09431338 254.0102475 -43.09667969 250.6887207 C-43.11105072 249.45514328 -43.12542175 248.22156586 -43.14022827 246.9506073 C-43.09793887 238.94749469 -42.2312627 233.42923854 -36.92480469 227.15356445 C-36.10109375 226.48454102 -36.10109375 226.48454102 -35.26074219 225.80200195 C-34.71675781 225.34051758 -34.17277344 224.8790332 -33.61230469 224.40356445 C-28.1897839 221.03860096 -22.90274774 220.9018148 -16.73730469 220.98168945 C-15.99633545 220.98370361 -15.25536621 220.98571777 -14.49194336 220.98779297 C-11.74814584 220.99818508 -9.0044372 221.02610723 -6.26074219 221.05200195 C-0.11449219 221.09325195 6.03175781 221.13450195 12.36425781 221.17700195 C12.36425781 208.30700195 12.36425781 195.43700195 12.36425781 182.17700195 C7.73046082 182.19365654 7.73046082 182.19365654 3.00305176 182.21064758 C-25.33407837 182.31017037 -53.67116098 182.38480054 -82.00842258 182.4323286 C-85.72338883 182.43858204 -89.43835467 182.44505366 -93.15332031 182.45166016 C-93.89289429 182.45297171 -94.63246827 182.45428326 -95.39445359 182.45563456 C-107.36511989 182.47738336 -119.33566598 182.51680195 -131.306261 182.56276593 C-143.59178695 182.60954528 -155.87724999 182.63730046 -168.16286135 182.64744443 C-175.74208231 182.65430057 -183.32096345 182.67594439 -190.90007979 182.71658429 C-196.7145464 182.74617132 -202.52879589 182.74927235 -208.34332275 182.74254036 C-210.72656851 182.7439159 -213.10982714 182.75386155 -215.49299622 182.77302933 C-218.74869191 182.79793038 -222.00293728 182.79191663 -225.25866699 182.77827454 C-226.67114566 182.80012085 -226.67114566 182.80012085 -228.11215925 182.8224085 C-234.49647416 182.75016862 -238.67471455 181.23529422 -243.63574219 177.17700195 C-248.10150142 172.35868278 -249.87672849 168.72670692 -249.94213867 162.15844727 C-249.95812607 160.9432843 -249.97411346 159.72812134 -249.99058533 158.47613525 C-249.99594803 157.16570251 -250.00131073 155.85526978 -250.00683594 154.50512695 C-250.01580983 153.13995265 -250.0249318 151.77477931 -250.03419495 150.40960693 C-250.05067099 147.54819353 -250.05838206 144.68689689 -250.0612793 141.82543945 C-250.06665136 138.17588176 -250.10428604 134.52743714 -250.15002346 130.8781929 C-250.17991521 128.05727232 -250.1870055 125.23661535 -250.18800545 122.41555023 C-250.19420734 120.42147513 -250.22362104 118.4275153 -250.25352478 116.43365479 C-250.21165126 107.97471753 -249.00413918 102.86492686 -243.22825623 96.66656494 C-237.33102945 91.18304848 -230.35083372 90.88142015 -222.74562073 90.93649292 C-221.43807962 90.93392965 -221.43807962 90.93392965 -220.10412353 90.93131459 C-217.19603988 90.92803185 -214.2881892 90.93900334 -211.38012695 90.94995117 C-209.29045111 90.95051555 -207.20077486 90.95019821 -205.11109924 90.94906616 C-199.44637034 90.94849268 -193.78172624 90.96024632 -188.11701703 90.97421408 C-182.19397745 90.98672215 -176.27093589 90.987892 -170.34788513 90.99026489 C-159.13540427 90.99647942 -147.92296243 91.01288991 -136.71049875 91.03296387 C-123.9439584 91.05532368 -111.17741619 91.06631651 -98.41086113 91.07635474 C-72.15246652 91.09725613 -45.89410654 91.13243163 -19.63574219 91.17700195 C-19.64573494 89.83515587 -19.64573494 89.83515587 -19.65592957 88.46620178 C-19.71621334 80.00725131 -19.76180407 71.54837372 -19.7911787 63.08925724 C-19.80678854 58.7410517 -19.8279405 54.39302469 -19.86206055 50.04492188 C-19.89482202 45.84332478 -19.91263036 41.64189868 -19.92037392 37.44018364 C-19.92588745 35.84272002 -19.93665361 34.24526502 -19.95293236 32.64787483 C-20.14201485 13.3126056 -20.14201485 13.3126056 -14.19824219 6.30200195 C-9.41935187 2.33901974 -6.35979874 0.07589305 0 0 Z M-4.16308594 14.96020508 C-7.00256508 19.23448734 -6.83176404 23.70669962 -6.93969727 28.70849609 C-6.9591188 29.46194305 -6.97854034 30.21539001 -6.99855042 30.9916687 C-7.16719618 37.93894706 -7.26404848 44.88770119 -7.33961964 51.83655643 C-7.39096733 56.4973418 -7.46536346 61.15515737 -7.59594727 65.81445312 C-7.7220409 70.33221925 -7.78806428 74.84731019 -7.81320763 79.36672783 C-7.83272556 81.08010708 -7.87293482 82.79339094 -7.93506813 84.50575447 C-8.47118136 94.77469132 -8.47118136 94.77469132 -4.01071167 103.62858582 C-1.11040239 106.47662182 2.06405892 108.81293092 5.36425781 111.17700195 C6.6071041 112.31130667 7.8314048 113.4669464 9.02050781 114.6574707 C9.95894531 115.55079102 10.89738281 116.44411133 11.86425781 117.36450195 C12.34894531 117.83952148 12.83363281 118.31454102 13.33300781 118.80395508 C16.34341097 121.63847871 17.02308236 122.17700195 21.36425781 122.17700195 C23.5459611 120.44450692 23.5459611 120.44450692 25.61425781 118.11450195 C30.52550309 112.97745229 35.55232333 108.08803905 41.44393921 104.08399963 C44.20374468 101.76545347 44.35412512 101.22795111 45.11270142 97.41368103 C45.14210366 95.93004948 45.13868285 94.44553776 45.10888672 92.96191406 C45.11618805 92.14830917 45.12348938 91.33470428 45.13101196 90.4964447 C45.14718647 87.81488787 45.12004481 85.13576265 45.09082031 82.4543457 C45.08978271 80.58777366 45.09081965 78.7211994 45.09384155 76.85462952 C45.09366228 72.9463734 45.07284036 69.03894395 45.03662109 65.13085938 C44.99121369 60.12128295 44.99016526 55.11291226 45.00365639 50.10318661 C45.01033857 46.25038432 44.99707185 42.39785702 44.97739792 38.54510689 C44.96970037 36.69793703 44.96739484 34.85073656 44.97056961 33.00355339 C44.97131134 30.42267414 44.94606659 27.84334207 44.91357422 25.26269531 C44.91852905 24.4994696 44.92348389 23.7362439 44.92858887 22.94989014 C44.85985794 19.5299279 44.60776814 17.51743119 42.5953064 14.70399475 C40.16156635 13.03827418 39.02971899 12.6722009 36.11816406 12.65942383 C35.29050537 12.64681519 34.46284668 12.63420654 33.61010742 12.62121582 C32.28184937 12.63336121 32.28184937 12.63336121 30.92675781 12.64575195 C30.00967041 12.64192505 29.09258301 12.63809814 28.14770508 12.63415527 C26.21108908 12.63143646 24.27443634 12.6387955 22.33789062 12.65551758 C19.37449228 12.67692801 16.4135183 12.65571526 13.45019531 12.63012695 C11.56737746 12.63277024 9.68456112 12.63789522 7.80175781 12.64575195 C6.91625244 12.63765503 6.03074707 12.62955811 5.1184082 12.62121582 C0.15190561 12.68262242 0.15190561 12.68262242 -4.16308594 14.96020508 Z M-234.63574219 107.17700195 C-236.83926523 110.48228652 -236.89844339 111.54490943 -236.94213867 115.39526367 C-236.95812607 116.46001923 -236.97411346 117.52477478 -236.99058533 118.62179565 C-236.99594803 119.77181061 -237.00131073 120.92182556 -237.00683594 122.10668945 C-237.01586441 123.28917267 -237.02489288 124.47165588 -237.03419495 125.68997192 C-237.04871291 128.19327252 -237.057588 130.6966112 -237.0612793 133.19995117 C-237.07317445 137.03019141 -237.12234793 140.85882065 -237.17285156 144.6887207 C-237.18231558 147.11970241 -237.18955072 149.55069403 -237.19433594 151.98168945 C-237.21386826 153.12765594 -237.23340057 154.27362244 -237.25352478 155.45431519 C-237.24744705 156.52537506 -237.24136932 157.59643494 -237.23510742 158.69995117 C-237.24017807 159.6391037 -237.24524872 160.57825623 -237.25047302 161.54586792 C-236.34257423 165.43180185 -234.79029212 166.74493361 -231.63574219 169.17700195 C-228.34759791 169.90425156 -225.1274545 169.8305622 -221.77128601 169.77827454 C-220.77062711 169.78254666 -219.76996821 169.78681878 -218.73898631 169.79122037 C-215.38209642 169.79946373 -212.02645274 169.77194177 -208.66967773 169.74462891 C-206.26503021 169.74321874 -203.86038053 169.74400981 -201.45573425 169.74684143 C-196.27679559 169.74798043 -191.09813933 169.7337889 -185.91928673 169.70565224 C-178.43159084 169.66499816 -170.9440472 169.65199312 -163.45625291 169.64571228 C-151.30758157 169.63477205 -139.1590782 169.60150533 -127.01049805 169.55419922 C-115.21005086 169.50829654 -103.40964931 169.47290814 -91.60913086 169.45166016 C-90.88161756 169.45034654 -90.15410425 169.44903292 -89.40454509 169.4476795 C-85.75478516 169.44115426 -82.10502491 169.43483573 -78.45526445 169.42861998 C-48.18197012 169.37679543 -17.90887947 169.2883657 12.36425781 169.17700195 C12.63915772 164.53676839 12.83705935 159.90139752 12.96850586 155.25488281 C13.02335053 153.68014909 13.09806928 152.10596309 13.1940918 150.53320312 C13.95932514 140.55851713 13.95932514 140.55851713 10.00732422 131.7421875 C7.36793121 128.91581534 4.42856169 126.53357764 1.36425781 124.17700195 C0.02341385 122.99798902 -1.31191549 121.81259081 -2.63574219 120.61450195 C-3.25578125 120.08211914 -3.87582031 119.54973633 -4.51464844 119.0012207 C-7.22516314 116.67007823 -9.90683304 114.30827735 -12.57324219 111.92700195 C-13.51039063 111.0968457 -14.44753906 110.26668945 -15.41308594 109.41137695 C-17.63574219 107.17700195 -17.63574219 107.17700195 -18.63574219 104.17700195 C-45.91269837 104.10694771 -73.18964109 104.05403132 -100.46666908 104.02156544 C-113.13161856 104.00609088 -125.79651216 103.98499003 -138.46142578 103.95068359 C-149.49904777 103.92079936 -160.53662931 103.90143124 -171.57429063 103.89473647 C-177.41965071 103.89082258 -183.26489504 103.881612 -189.11021805 103.85981178 C-194.61111951 103.83946215 -200.11185744 103.83316512 -205.61279297 103.83767891 C-207.63242862 103.83685303 -209.6520697 103.8308784 -211.67167282 103.81938553 C-214.4285841 103.80446537 -217.18487748 103.8080467 -219.94180298 103.8162384 C-220.74142507 103.80749988 -221.54104717 103.79876135 -222.36490023 103.78975803 C-227.17188586 103.8283786 -230.48230409 104.49835341 -234.63574219 107.17700195 Z M26.36425781 360.17700195 C26.36425781 381.29700195 26.36425781 402.41700195 26.36425781 424.17700195 C34.37707031 424.33168945 34.37707031 424.33168945 42.55175781 424.48950195 C45.06772583 424.55778198 45.06772583 424.55778198 47.63452148 424.62744141 C48.97540288 424.64205484 50.31630657 424.6547935 51.65722656 424.6652832 C52.34417603 424.69086304 53.03112549 424.71644287 53.7388916 424.74279785 C57.23499574 424.74595375 59.3014804 424.21485189 62.30444336 422.40429688 C65.46299615 417.45551065 65.07944535 412.80893593 65.02832031 407.05200195 C65.03310394 405.87234863 65.03788757 404.69269531 65.04281616 403.47729492 C65.04621508 400.98590764 65.03701347 398.49447576 65.01611328 396.00317383 C64.98935124 392.19031296 65.01586524 388.38039628 65.04785156 384.56762695 C65.04454747 382.14574546 65.03814125 379.72386579 65.02832031 377.30200195 C65.03844147 376.16230957 65.04856262 375.02261719 65.05899048 373.84838867 C64.98764856 369.02941316 64.93404801 366.06974304 62.30444336 361.94970703 C58.66732533 359.75680543 55.78144967 359.53514763 51.65722656 359.6887207 C51.01354126 359.6937561 50.36985596 359.6987915 49.70666504 359.70397949 C47.32123747 359.72997679 44.93644903 359.7997846 42.55175781 359.86450195 C37.20988281 359.96762695 31.86800781 360.07075195 26.36425781 360.17700195 Z " fill="#000000" transform="translate(255.6357421875,5.822998046875)"/>
<path d="M0 0 C1.71435672 -0.00202455 3.42871261 -0.00493916 5.14306641 -0.00869751 C8.7237168 -0.01310293 12.3041416 -0.00674758 15.88476562 0.00732422 C20.45413169 0.02441509 25.02296896 0.0145643 29.59231567 -0.00339317 C33.12870199 -0.0142794 36.66496476 -0.01076257 40.20135498 -0.0030098 C41.88531559 -0.00102114 43.56928775 -0.00341969 45.25323486 -0.01044846 C66.2842996 -0.078986 66.2842996 -0.078986 73.25 6.2109375 C73.78367187 6.67113281 74.31734375 7.13132812 74.8671875 7.60546875 C78.50631704 11.93282745 79.750776 16.06513465 79.79492188 21.64404297 C79.81878967 23.46656082 79.81878967 23.46656082 79.84313965 25.32589722 C79.84334106 26.62600739 79.84354248 27.92611755 79.84375 29.265625 C79.85086089 30.62794301 79.85856123 31.99025805 79.86682129 33.35256958 C79.88023355 36.20209078 79.88184999 39.05133508 79.87597656 41.90087891 C79.87008667 45.53474212 79.90065488 49.16726636 79.94109344 52.8008709 C79.967071 55.61324089 79.96983885 58.42529286 79.96620178 61.23776627 C79.96869637 63.2229472 79.99332194 65.20806104 80.01843262 67.19308472 C79.96241871 74.54478871 79.37528077 79.78609634 74.375 85.3984375 C67.49689961 91.77326225 61.03520062 92.51701216 51.84423828 92.54370117 C51.1149411 92.54705978 50.38564392 92.5504184 49.63424683 92.55387878 C47.23791777 92.56333027 44.84165901 92.56532892 42.4453125 92.56640625 C40.76911389 92.5696227 39.09291556 92.57298707 37.41671753 92.57649231 C33.90817616 92.58246895 30.39965938 92.5843337 26.89111328 92.58374023 C22.41023899 92.58363866 17.92952333 92.59729265 13.4486866 92.61451244 C9.98785691 92.625667 6.52706516 92.62765839 3.06621933 92.62713051 C1.41492033 92.62830534 -0.23637981 92.63269907 -1.88766098 92.64046288 C-4.20370138 92.65033352 -6.51940258 92.64735721 -8.83544922 92.64135742 C-10.14971893 92.64278244 -11.46398865 92.64420746 -12.81808472 92.64567566 C-20.89499215 92.12112505 -27.24811394 90.05673073 -32.875 83.9609375 C-35.92827472 79.49007094 -36.8756293 75.84390813 -36.91552734 70.44995117 C-36.92828705 69.27490524 -36.94104675 68.09985931 -36.95419312 66.88920593 C-36.95753159 64.99692009 -36.95753159 64.99692009 -36.9609375 63.06640625 C-36.9675943 61.76069168 -36.9742511 60.45497711 -36.98110962 59.10969543 C-36.99306192 56.34840591 -36.99679266 53.58724129 -36.99560547 50.82592773 C-36.99540259 47.30545574 -37.0226803 43.78579381 -37.05714989 40.26551342 C-37.08487804 36.88663366 -37.08357109 33.50789811 -37.0859375 30.12890625 C-37.10030853 28.87345505 -37.11467957 27.61800385 -37.12948608 26.32450867 C-37.0844213 17.64953838 -36.1111651 12.04674981 -29.9375 5.5859375 C-20.57522538 -0.59669668 -10.7640438 -0.04492892 0 0 Z M-23.625 19.3984375 C-24.36909185 22.02518559 -24.36909185 22.02518559 -24.27197266 24.84375 C-24.28773346 25.90835449 -24.30349426 26.97295898 -24.31973267 28.06982422 C-24.30961151 29.2095166 -24.29949036 30.34920898 -24.2890625 31.5234375 C-24.29384613 32.70309082 -24.29862976 33.88274414 -24.30355835 35.09814453 C-24.30695727 37.58953181 -24.29775565 40.08096369 -24.27685547 42.57226562 C-24.25009343 46.38512649 -24.27660743 50.19504318 -24.30859375 54.0078125 C-24.30528966 56.429694 -24.29888344 58.85157366 -24.2890625 61.2734375 C-24.29918365 62.41312988 -24.30930481 63.55282227 -24.31973267 64.72705078 C-24.30397186 65.79165527 -24.28821106 66.85625977 -24.27197266 67.953125 C-24.26799469 68.88624512 -24.26401672 69.81936523 -24.25991821 70.78076172 C-23.33166259 74.60782512 -21.7594756 76.06001199 -18.625 78.3984375 C-15.81074567 78.89412461 -13.6005657 79.08475527 -10.79296875 79.04541016 C-10.01998444 79.05417175 -9.24700012 79.06293335 -8.45059204 79.07196045 C-5.90398467 79.09390716 -3.35912397 79.07941992 -0.8125 79.0625 C0.96199882 79.06586953 2.73649539 79.07072329 4.51098633 79.07699585 C8.22662368 79.08436072 11.94165927 79.07367443 15.65722656 79.05029297 C20.41573484 79.021805 25.17283311 79.0382111 29.93128967 79.06815529 C33.59454945 79.08623892 37.25747593 79.08046544 40.92074585 79.06751633 C42.67499967 79.06418524 44.42928393 79.06825896 46.1835022 79.07991409 C48.63747079 79.09264101 51.08916895 79.0732234 53.54296875 79.04541016 C54.62630997 79.06059189 54.62630997 79.06059189 55.73153687 79.07608032 C59.49605057 78.99718923 61.27771462 78.47101571 64.32406616 76.19833374 C66.5962418 73.09640236 67.00582144 71.74175087 67.02197266 67.953125 C67.03773346 66.88852051 67.05349426 65.82391602 67.06973267 64.72705078 C67.05455093 63.01751221 67.05455093 63.01751221 67.0390625 61.2734375 C67.04384613 60.09378418 67.04862976 58.91413086 67.05355835 57.69873047 C67.05695727 55.20734319 67.04775565 52.71591131 67.02685547 50.22460938 C67.00009343 46.41174851 67.02660743 42.60183182 67.05859375 38.7890625 C67.05528966 36.367181 67.04888344 33.94530134 67.0390625 31.5234375 C67.04918365 30.38374512 67.05930481 29.24405273 67.06973267 28.06982422 C67.05397186 27.00521973 67.03821106 25.94061523 67.02197266 24.84375 C67.01799469 23.91062988 67.01401672 22.97750977 67.00991821 22.01611328 C66.08166259 18.18904988 64.5094756 16.73686301 61.375 14.3984375 C58.56074567 13.90275039 56.3505657 13.71211973 53.54296875 13.75146484 C52.76998444 13.74270325 51.99700012 13.73394165 51.20059204 13.72491455 C48.65398467 13.70296784 46.10912397 13.71745508 43.5625 13.734375 C41.78800118 13.73100547 40.01350461 13.72615171 38.23901367 13.71987915 C34.52337632 13.71251428 30.80834073 13.72320057 27.09277344 13.74658203 C22.33426516 13.77507 17.57716689 13.7586639 12.81871033 13.72871971 C9.15545055 13.71063608 5.49252407 13.71640956 1.82925415 13.72935867 C0.07500033 13.73268976 -1.67928393 13.72861604 -3.4335022 13.71696091 C-5.88747079 13.70423399 -8.33916895 13.7236516 -10.79296875 13.75146484 C-11.51519623 13.74134369 -12.23742371 13.73122253 -12.98153687 13.72079468 C-18.20733444 13.83030918 -20.55371133 15.20557207 -23.625 19.3984375 Z " fill="#000000" transform="translate(426.625,351.6015625)"/>
</svg>
