<?xml version="1.0" encoding="UTF-8"?>
<svg version="1.1" xmlns="http://www.w3.org/2000/svg" width="512" height="512">
<path d="M0 0 C1.0209375 0.04253906 1.0209375 0.04253906 2.0625 0.0859375 C2.743125 0.09882813 3.42375 0.11171875 4.125 0.125 C6.0625 0.4609375 6.0625 0.4609375 9.0625 2.4609375 C9.98937325 5.24155725 10.18443396 6.88145609 10.17602539 9.7487793 C10.17594986 10.60944504 10.17587433 11.47011078 10.17579651 12.3568573 C10.17063522 13.28194595 10.16547394 14.20703461 10.16015625 15.16015625 C10.15803383 16.58543388 10.15803383 16.58543388 10.15586853 18.039505 C10.15026875 21.07584779 10.13771632 24.11211698 10.125 27.1484375 C10.11998497 29.20637914 10.11542207 31.26432194 10.11132812 33.32226562 C10.10115008 38.36854079 10.08157456 43.4146567 10.0625 48.4609375 C21.2825 48.4609375 32.5025 48.4609375 44.0625 48.4609375 C44.03929687 45.40328125 44.01609375 42.345625 43.9921875 39.1953125 C43.97658907 36.2332399 43.9644454 33.27117188 43.95263672 30.30908203 C43.94258046 28.25079296 43.92893371 26.19251817 43.91162109 24.13427734 C43.88735646 21.17541987 43.87601312 18.21675133 43.8671875 15.2578125 C43.85686493 14.33788513 43.84654236 13.41795776 43.83590698 12.47015381 C43.83575592 11.6095636 43.83560486 10.74897339 43.83544922 9.86230469 C43.831008 9.10729675 43.82656677 8.35228882 43.82199097 7.57440186 C44.09995811 5.13177576 44.76855217 3.54304207 46.0625 1.4609375 C49.17170609 -0.09366555 52.69333028 -0.26626943 56.0625 0.4609375 C58.6577381 3.28910409 59.43594773 5.14100127 59.40307617 8.95410156 C59.40284958 9.83471252 59.40262299 10.71532349 59.40238953 11.62261963 C59.38690567 12.56442078 59.37142181 13.50622192 59.35546875 14.4765625 C59.35122391 15.44752869 59.34697906 16.41849487 59.34260559 17.41888428 C59.32582853 20.51651881 59.28817772 23.61349999 59.25 26.7109375 C59.23495192 28.8124906 59.22126373 30.9140539 59.20898438 33.015625 C59.17848147 38.164516 59.11975758 43.31199644 59.0625 48.4609375 C70.6125 48.4609375 82.1625 48.4609375 94.0625 48.4609375 C94.02769531 45.24730469 93.99289063 42.03367187 93.95703125 38.72265625 C93.93364441 35.61499928 93.91542283 32.50735205 93.89770508 29.3996582 C93.88260556 27.23750429 93.86212429 25.07538107 93.83618164 22.91333008 C93.79984983 19.8080285 93.78278538 16.70313136 93.76953125 13.59765625 C93.75404739 12.62882004 93.73856354 11.65998383 93.72261047 10.66178894 C93.72227058 9.31072807 93.72227058 9.31072807 93.72192383 7.93237305 C93.71193108 6.74323555 93.71193108 6.74323555 93.70173645 5.53007507 C94.15417969 2.93511416 95.00901935 2.05955588 97.0625 0.4609375 C99 0.0625 99 0.0625 101.0625 0.0859375 C102.0834375 0.07433594 102.0834375 0.07433594 103.125 0.0625 C105.66632894 0.585112 106.45372702 1.44500539 108.0625 3.4609375 C108.42326355 5.53007507 108.42326355 5.53007507 108.40307617 7.93237305 C108.40284958 8.83308029 108.40262299 9.73378754 108.40238953 10.66178894 C108.38690567 11.63062515 108.37142181 12.59946136 108.35546875 13.59765625 C108.35122391 14.59223343 108.34697906 15.58681061 108.34260559 16.61152649 C108.32580153 19.79077125 108.28814576 22.96938406 108.25 26.1484375 C108.23495541 28.30272523 108.22126662 30.45702288 108.20898438 32.61132812 C108.17844309 37.89497108 108.11972409 43.17724625 108.0625 48.4609375 C119.6125 48.4609375 131.1625 48.4609375 143.0625 48.4609375 C143.02769531 45.33109375 142.99289062 42.20125 142.95703125 38.9765625 C142.93363451 35.94499626 142.91541856 32.91344008 142.89770508 29.88183594 C142.88261931 27.7750193 142.86214807 25.66823406 142.83618164 23.56152344 C142.79978947 20.5331243 142.7827715 17.50514041 142.76953125 14.4765625 C142.75404739 13.53476135 142.73856354 12.59296021 142.72261047 11.62261963 C142.72238388 10.74200867 142.72215729 9.86139771 142.72192383 8.95410156 C142.71193108 7.79494232 142.71193108 7.79494232 142.70173645 6.61236572 C143.1605001 3.87650986 144.20528669 2.49017044 146.0625 0.4609375 C148 0 148 0 150.0625 0.0859375 C150.743125 0.09882813 151.42375 0.11171875 152.125 0.125 C154.0625 0.4609375 154.0625 0.4609375 157.0625 2.4609375 C157.98937325 5.24155725 158.18443396 6.88145609 158.17602539 9.7487793 C158.17594986 10.60944504 158.17587433 11.47011078 158.17579651 12.3568573 C158.17063522 13.28194595 158.16547394 14.20703461 158.16015625 15.16015625 C158.15803383 16.58543388 158.15803383 16.58543388 158.15586853 18.039505 C158.15026875 21.07584779 158.13771632 24.11211698 158.125 27.1484375 C158.11998497 29.20637914 158.11542207 31.26432194 158.11132812 33.32226562 C158.10115008 38.36854079 158.08157456 43.4146567 158.0625 48.4609375 C169.2825 48.4609375 180.5025 48.4609375 192.0625 48.4609375 C192.03929687 45.40328125 192.01609375 42.345625 191.9921875 39.1953125 C191.97658907 36.2332399 191.9644454 33.27117188 191.95263672 30.30908203 C191.94258046 28.25079296 191.92893371 26.19251817 191.91162109 24.13427734 C191.88735646 21.17541987 191.87601312 18.21675133 191.8671875 15.2578125 C191.85686493 14.33788513 191.84654236 13.41795776 191.83590698 12.47015381 C191.83575592 11.6095636 191.83560486 10.74897339 191.83544922 9.86230469 C191.831008 9.10729675 191.82656677 8.35228882 191.82199097 7.57440186 C192.09995811 5.13177576 192.76855217 3.54304207 194.0625 1.4609375 C197.17170609 -0.09366555 200.69333028 -0.26626943 204.0625 0.4609375 C206.6577381 3.28910409 207.43594773 5.14100127 207.40307617 8.95410156 C207.40284958 9.83471252 207.40262299 10.71532349 207.40238953 11.62261963 C207.38690567 12.56442078 207.37142181 13.50622192 207.35546875 14.4765625 C207.35122391 15.44752869 207.34697906 16.41849487 207.34260559 17.41888428 C207.32582853 20.51651881 207.28817772 23.61349999 207.25 26.7109375 C207.23495192 28.8124906 207.22126373 30.9140539 207.20898438 33.015625 C207.17592811 38.16431379 207.12415208 43.31251491 207.0625 48.4609375 C207.82956268 48.44983444 208.59662537 48.43873138 209.38693237 48.42729187 C216.6535361 48.32666268 223.91979695 48.25075803 231.18691826 48.20187664 C234.92211769 48.17590019 238.65673631 48.14072581 242.39160156 48.08374023 C246.00321191 48.0289868 249.61426743 47.99942733 253.22626114 47.98655128 C254.59688158 47.97738819 255.96747531 47.95949645 257.33785629 47.93228722 C265.91731402 47.76888035 272.95708464 48.2755126 280.0625 53.4609375 C285.53840243 59.26047371 288.32188732 64.74380064 288.28955078 72.81176758 C288.28939972 74.0726973 288.28924866 75.33362701 288.28909302 76.63276672 C288.27888136 77.99866902 288.2684494 79.36456969 288.2578125 80.73046875 C288.25407941 82.13579609 288.25123383 83.54112603 288.24923706 84.94645691 C288.24162389 88.63393418 288.22199553 92.32125232 288.1998291 96.00866699 C288.17932059 99.77593839 288.17022467 103.54323566 288.16015625 107.31054688 C288.13874725 114.69408273 288.10463954 122.07748776 288.0625 129.4609375 C290.03041504 129.43737183 290.03041504 129.43737183 292.03808594 129.41333008 C296.90586202 129.35902718 301.77361132 129.32458596 306.64160156 129.29614258 C308.7484182 129.28105681 310.85520344 129.26058557 312.96191406 129.23461914 C315.9903132 129.19822697 319.01829709 129.181209 322.046875 129.16796875 C322.98867615 129.15248489 323.93047729 129.13700104 324.90081787 129.12104797 C325.78142883 129.12082138 326.66203979 129.12059479 327.56933594 129.12036133 C328.72849518 129.11036858 328.72849518 129.11036858 329.91107178 129.10017395 C332.64692764 129.5589376 334.03326706 130.60372419 336.0625 132.4609375 C336.5234375 134.3984375 336.5234375 134.3984375 336.4375 136.4609375 C336.41816406 137.481875 336.41816406 137.481875 336.3984375 138.5234375 C336.0625 140.4609375 336.0625 140.4609375 334.0625 143.4609375 C331.28188025 144.38781075 329.64198141 144.58287146 326.7746582 144.57446289 C325.91399246 144.57438736 325.05332672 144.57431183 324.1665802 144.57423401 C323.24149155 144.56907272 322.31640289 144.56391144 321.36328125 144.55859375 C320.41309616 144.5571788 319.46291107 144.55576385 318.4839325 144.55430603 C315.44758971 144.54870625 312.41132052 144.53615382 309.375 144.5234375 C307.31705836 144.51842247 305.25911556 144.51385957 303.20117188 144.50976562 C298.15489671 144.49958758 293.1087808 144.48001206 288.0625 144.4609375 C288.0625 155.6809375 288.0625 166.9009375 288.0625 178.4609375 C291.12015625 178.43773437 294.1778125 178.41453125 297.328125 178.390625 C300.2901976 178.37502657 303.25226562 178.3628829 306.21435547 178.35107422 C308.27264454 178.34101796 310.33091933 178.32737121 312.38916016 178.31005859 C315.34801763 178.28579396 318.30668617 178.27445062 321.265625 178.265625 C322.18555237 178.25530243 323.10547974 178.24497986 324.05328369 178.23434448 C324.9138739 178.23419342 325.77446411 178.23404236 326.66113281 178.23388672 C327.79364471 178.22722488 327.79364471 178.22722488 328.94903564 178.22042847 C331.39166174 178.49839561 332.98039543 179.16698967 335.0625 180.4609375 C336.61710305 183.57014359 336.78970693 187.09176778 336.0625 190.4609375 C333.23433341 193.0561756 331.38243623 193.83438523 327.56933594 193.80151367 C326.24841949 193.80117378 326.24841949 193.80117378 324.90081787 193.80082703 C323.48811615 193.77760124 323.48811615 193.77760124 322.046875 193.75390625 C321.07590881 193.74966141 320.10494263 193.74541656 319.10455322 193.74104309 C316.00691869 193.72426603 312.90993751 193.68661522 309.8125 193.6484375 C307.7109469 193.63338942 305.6093836 193.61970123 303.5078125 193.60742188 C298.3589215 193.57691897 293.21144106 193.51819508 288.0625 193.4609375 C288.0625 205.0109375 288.0625 216.5609375 288.0625 228.4609375 C291.27613281 228.42613281 294.48976563 228.39132813 297.80078125 228.35546875 C300.90843822 228.33208191 304.01608545 228.31386033 307.1237793 228.29614258 C309.28593321 228.28104306 311.44805643 228.26056179 313.61010742 228.23461914 C316.715409 228.19828733 319.82030614 228.18122288 322.92578125 228.16796875 C323.89461746 228.15248489 324.86345367 228.13700104 325.86164856 228.12104797 C327.21270943 228.12070808 327.21270943 228.12070808 328.59106445 228.12036133 C329.38382278 228.11369949 330.17658112 228.10703766 330.99336243 228.10017395 C333.58832334 228.55261719 334.46388162 229.40745685 336.0625 231.4609375 C336.4609375 233.3984375 336.4609375 233.3984375 336.4375 235.4609375 C336.44523437 236.1415625 336.45296875 236.8221875 336.4609375 237.5234375 C335.9383255 240.06476644 335.07843211 240.85216452 333.0625 242.4609375 C330.99336243 242.82170105 330.99336243 242.82170105 328.59106445 242.80151367 C327.69035721 242.80128708 326.78964996 242.80106049 325.86164856 242.80082703 C324.40839424 242.77760124 324.40839424 242.77760124 322.92578125 242.75390625 C321.93120407 242.74966141 320.93662689 242.74541656 319.91191101 242.74104309 C316.73266625 242.72423903 313.55405344 242.68658326 310.375 242.6484375 C308.22071227 242.63339291 306.06641462 242.61970412 303.91210938 242.60742188 C298.62846642 242.57688059 293.34619125 242.51816159 288.0625 242.4609375 C288.0625 254.0109375 288.0625 265.5609375 288.0625 277.4609375 C291.19234375 277.42613281 294.3221875 277.39132812 297.546875 277.35546875 C300.57844124 277.33207201 303.60999742 277.31385606 306.64160156 277.29614258 C308.7484182 277.28105681 310.85520344 277.26058557 312.96191406 277.23461914 C315.9903132 277.19822697 319.01829709 277.181209 322.046875 277.16796875 C322.98867615 277.15248489 323.93047729 277.13700104 324.90081787 277.12104797 C325.78142883 277.12082138 326.66203979 277.12059479 327.56933594 277.12036133 C328.72849518 277.11036858 328.72849518 277.11036858 329.91107178 277.10017395 C332.64692764 277.5589376 334.03326706 278.60372419 336.0625 280.4609375 C336.5234375 282.3984375 336.5234375 282.3984375 336.4375 284.4609375 C336.41816406 285.481875 336.41816406 285.481875 336.3984375 286.5234375 C336.0625 288.4609375 336.0625 288.4609375 334.0625 291.4609375 C331.28188025 292.38781075 329.64198141 292.58287146 326.7746582 292.57446289 C325.91399246 292.57438736 325.05332672 292.57431183 324.1665802 292.57423401 C323.24149155 292.56907272 322.31640289 292.56391144 321.36328125 292.55859375 C320.41309616 292.5571788 319.46291107 292.55576385 318.4839325 292.55430603 C315.44758971 292.54870625 312.41132052 292.53615382 309.375 292.5234375 C307.31705836 292.51842247 305.25911556 292.51385957 303.20117188 292.50976562 C298.15489671 292.49958758 293.1087808 292.48001206 288.0625 292.4609375 C288.0625 303.6809375 288.0625 314.9009375 288.0625 326.4609375 C291.12015625 326.43773437 294.1778125 326.41453125 297.328125 326.390625 C300.2901976 326.37502657 303.25226562 326.3628829 306.21435547 326.35107422 C308.27264454 326.34101796 310.33091933 326.32737121 312.38916016 326.31005859 C315.34801763 326.28579396 318.30668617 326.27445062 321.265625 326.265625 C322.18555237 326.25530243 323.10547974 326.24497986 324.05328369 326.23434448 C324.9138739 326.23419342 325.77446411 326.23404236 326.66113281 326.23388672 C327.41614075 326.2294455 328.17114868 326.22500427 328.94903564 326.22042847 C331.39166174 326.49839561 332.98039543 327.16698967 335.0625 328.4609375 C336.61710305 331.57014359 336.78970693 335.09176778 336.0625 338.4609375 C333.23433341 341.0561756 331.38243623 341.83438523 327.56933594 341.80151367 C326.24841949 341.80117378 326.24841949 341.80117378 324.90081787 341.80082703 C323.48811615 341.77760124 323.48811615 341.77760124 322.046875 341.75390625 C320.59042572 341.74753899 320.59042572 341.74753899 319.10455322 341.74104309 C316.00691869 341.72426603 312.90993751 341.68661522 309.8125 341.6484375 C307.7109469 341.63338942 305.6093836 341.61970123 303.5078125 341.60742188 C298.35912371 341.57436561 293.21092259 341.52258958 288.0625 341.4609375 C288.07360306 342.22800018 288.08470612 342.99506287 288.09614563 343.78536987 C288.19677482 351.0519736 288.27267947 358.31823445 288.32156086 365.58535576 C288.34753731 369.32055519 288.38271169 373.05517381 288.43969727 376.79003906 C288.4944507 380.40164941 288.52401017 384.01270493 288.53688622 387.62469864 C288.54604931 388.99531908 288.56394105 390.36591281 288.59115028 391.73629379 C288.75455715 400.31575152 288.2479249 407.35552214 283.0625 414.4609375 C277.26296379 419.93683993 271.77963686 422.72032482 263.71166992 422.68798828 C261.82027534 422.68776169 261.82027534 422.68776169 259.89067078 422.68753052 C258.52476848 422.67731886 257.15886781 422.6668869 255.79296875 422.65625 C254.38764141 422.65251691 252.98231147 422.64967133 251.57698059 422.64767456 C247.88950332 422.64006139 244.20218518 422.62043303 240.51477051 422.5982666 C236.74749911 422.57775809 232.98020184 422.56866217 229.21289062 422.55859375 C221.82935477 422.53718475 214.44594974 422.50307704 207.0625 422.4609375 C207.07821045 423.77288086 207.0939209 425.08482422 207.11010742 426.43652344 C207.16441032 431.30429952 207.19885154 436.17204882 207.22729492 441.04003906 C207.24238069 443.1468557 207.26285193 445.25364094 207.28881836 447.36035156 C207.32521053 450.3887507 207.3422285 453.41673459 207.35546875 456.4453125 C207.37095261 457.38711365 207.38643646 458.32891479 207.40238953 459.29925537 C207.40261612 460.17986633 207.40284271 461.06047729 207.40307617 461.96777344 C207.41306892 463.12693268 207.41306892 463.12693268 207.42326355 464.30950928 C206.9644999 467.04536514 205.91971331 468.43170456 204.0625 470.4609375 C202.125 470.921875 202.125 470.921875 200.0625 470.8359375 C199.0415625 470.81660156 199.0415625 470.81660156 198 470.796875 C196.0625 470.4609375 196.0625 470.4609375 193.0625 468.4609375 C192.13562675 465.68031775 191.94056604 464.04041891 191.94897461 461.1730957 C191.94905014 460.31242996 191.94912567 459.45176422 191.94920349 458.5650177 C191.95436478 457.63992905 191.95952606 456.71484039 191.96484375 455.76171875 C191.96696617 454.33644112 191.96696617 454.33644112 191.96913147 452.88237 C191.97473125 449.84602721 191.98728368 446.80975802 192 443.7734375 C192.00501503 441.71549586 192.00957793 439.65755306 192.01367188 437.59960938 C192.02384992 432.55333421 192.04342544 427.5072183 192.0625 422.4609375 C180.8425 422.4609375 169.6225 422.4609375 158.0625 422.4609375 C158.08570313 425.51859375 158.10890625 428.57625 158.1328125 431.7265625 C158.14841093 434.6886351 158.1605546 437.65070312 158.17236328 440.61279297 C158.18241954 442.67108204 158.19606629 444.72935683 158.21337891 446.78759766 C158.23764354 449.74645513 158.24898688 452.70512367 158.2578125 455.6640625 C158.26813507 456.58398987 158.27845764 457.50391724 158.28909302 458.45172119 C158.28924408 459.3123114 158.28939514 460.17290161 158.28955078 461.05957031 C158.293992 461.81457825 158.29843323 462.56958618 158.30300903 463.34747314 C158.02504189 465.79009924 157.35644783 467.37883293 156.0625 469.4609375 C152.95329391 471.01554055 149.43166972 471.18814443 146.0625 470.4609375 C143.4672619 467.63277091 142.68905227 465.78087373 142.72192383 461.96777344 C142.72215042 461.08716248 142.72237701 460.20655151 142.72261047 459.29925537 C142.74583626 457.88655365 142.74583626 457.88655365 142.76953125 456.4453125 C142.77377609 455.47434631 142.77802094 454.50338013 142.78239441 453.50299072 C142.79917147 450.40535619 142.83682228 447.30837501 142.875 444.2109375 C142.89004808 442.1093844 142.90373627 440.0078211 142.91601562 437.90625 C142.94651853 432.757359 143.00524242 427.60987856 143.0625 422.4609375 C131.5125 422.4609375 119.9625 422.4609375 108.0625 422.4609375 C108.09730469 425.67457031 108.13210938 428.88820313 108.16796875 432.19921875 C108.19135559 435.30687572 108.20957717 438.41452295 108.22729492 441.5222168 C108.24239444 443.68437071 108.26287571 445.84649393 108.28881836 448.00854492 C108.32515017 451.1138465 108.34221462 454.21874364 108.35546875 457.32421875 C108.37095261 458.29305496 108.38643646 459.26189117 108.40238953 460.26008606 C108.40272942 461.61114693 108.40272942 461.61114693 108.40307617 462.98950195 C108.41306892 464.17863945 108.41306892 464.17863945 108.42326355 465.39179993 C107.97082031 467.98676084 107.11598065 468.86231912 105.0625 470.4609375 C103.125 470.859375 103.125 470.859375 101.0625 470.8359375 C100.381875 470.84367187 99.70125 470.85140625 99 470.859375 C96.45867106 470.336763 95.67127298 469.47686961 94.0625 467.4609375 C93.70173645 465.39179993 93.70173645 465.39179993 93.72192383 462.98950195 C93.72215042 462.08879471 93.72237701 461.18808746 93.72261047 460.26008606 C93.73809433 459.29124985 93.75357819 458.32241364 93.76953125 457.32421875 C93.77377609 456.32964157 93.77802094 455.33506439 93.78239441 454.31034851 C93.79919847 451.13110375 93.83685424 447.95249094 93.875 444.7734375 C93.89004459 442.61914977 93.90373338 440.46485212 93.91601562 438.31054688 C93.94655691 433.02690392 94.00527591 427.74462875 94.0625 422.4609375 C82.5125 422.4609375 70.9625 422.4609375 59.0625 422.4609375 C59.09730469 425.59078125 59.13210937 428.720625 59.16796875 431.9453125 C59.19136549 434.97687874 59.20958144 438.00843492 59.22729492 441.04003906 C59.24238069 443.1468557 59.26285193 445.25364094 59.28881836 447.36035156 C59.32521053 450.3887507 59.3422285 453.41673459 59.35546875 456.4453125 C59.37095261 457.38711365 59.38643646 458.32891479 59.40238953 459.29925537 C59.40272942 460.62017181 59.40272942 460.62017181 59.40307617 461.96777344 C59.41306892 463.12693268 59.41306892 463.12693268 59.42326355 464.30950928 C58.9644999 467.04536514 57.91971331 468.43170456 56.0625 470.4609375 C54.125 470.921875 54.125 470.921875 52.0625 470.8359375 C51.0415625 470.81660156 51.0415625 470.81660156 50 470.796875 C48.0625 470.4609375 48.0625 470.4609375 45.0625 468.4609375 C44.13562675 465.68031775 43.94056604 464.04041891 43.94897461 461.1730957 C43.94905014 460.31242996 43.94912567 459.45176422 43.94920349 458.5650177 C43.95436478 457.63992905 43.95952606 456.71484039 43.96484375 455.76171875 C43.96696617 454.33644112 43.96696617 454.33644112 43.96913147 452.88237 C43.97473125 449.84602721 43.98728368 446.80975802 44 443.7734375 C44.00501503 441.71549586 44.00957793 439.65755306 44.01367188 437.59960938 C44.02384992 432.55333421 44.04342544 427.5072183 44.0625 422.4609375 C32.8425 422.4609375 21.6225 422.4609375 10.0625 422.4609375 C10.08570313 425.51859375 10.10890625 428.57625 10.1328125 431.7265625 C10.14841093 434.6886351 10.1605546 437.65070312 10.17236328 440.61279297 C10.18241954 442.67108204 10.19606629 444.72935683 10.21337891 446.78759766 C10.23764354 449.74645513 10.24898688 452.70512367 10.2578125 455.6640625 C10.26813507 456.58398987 10.27845764 457.50391724 10.28909302 458.45172119 C10.28924408 459.3123114 10.28939514 460.17290161 10.28955078 461.05957031 C10.293992 461.81457825 10.29843323 462.56958618 10.30300903 463.34747314 C10.02504189 465.79009924 9.35644783 467.37883293 8.0625 469.4609375 C4.95329391 471.01554055 1.43166972 471.18814443 -1.9375 470.4609375 C-4.5327381 467.63277091 -5.31094773 465.78087373 -5.27807617 461.96777344 C-5.27784958 461.08716248 -5.27762299 460.20655151 -5.27738953 459.29925537 C-5.25416374 457.88655365 -5.25416374 457.88655365 -5.23046875 456.4453125 C-5.22622391 455.47434631 -5.22197906 454.50338013 -5.21760559 453.50299072 C-5.20082853 450.40535619 -5.16317772 447.30837501 -5.125 444.2109375 C-5.10995192 442.1093844 -5.09626373 440.0078211 -5.08398438 437.90625 C-5.05092811 432.75756121 -4.99915208 427.60936009 -4.9375 422.4609375 C-5.70456268 422.47204056 -6.47162537 422.48314362 -7.26193237 422.49458313 C-14.5285361 422.59521232 -21.79479695 422.67111697 -29.06191826 422.71999836 C-32.79711769 422.74597481 -36.53173631 422.78114919 -40.26660156 422.83813477 C-43.87821191 422.8928882 -47.48926743 422.92244767 -51.10126114 422.93532372 C-52.47188158 422.94448681 -53.84247531 422.96237855 -55.21285629 422.98958778 C-63.79231402 423.15299465 -70.83208464 422.6463624 -77.9375 417.4609375 C-83.41340243 411.66140129 -86.19688732 406.17807436 -86.16455078 398.11010742 C-86.16439972 396.8491777 -86.16424866 395.58824799 -86.16409302 394.28910828 C-86.15388136 392.92320598 -86.1434494 391.55730531 -86.1328125 390.19140625 C-86.12907941 388.78607891 -86.12623383 387.38074897 -86.12423706 385.97541809 C-86.11662389 382.28794082 -86.09699553 378.60062268 -86.0748291 374.91320801 C-86.05432059 371.14593661 -86.04522467 367.37863934 -86.03515625 363.61132812 C-86.01374725 356.22779227 -85.97963954 348.84438724 -85.9375 341.4609375 C-87.24944336 341.47664795 -88.56138672 341.4923584 -89.91308594 341.50854492 C-94.78086202 341.56284782 -99.64861132 341.59728904 -104.51660156 341.62573242 C-106.6234182 341.64081819 -108.73020344 341.66128943 -110.83691406 341.68725586 C-113.8653132 341.72364803 -116.89329709 341.740666 -119.921875 341.75390625 C-121.33457672 341.77713203 -121.33457672 341.77713203 -122.77581787 341.80082703 C-123.65642883 341.80105362 -124.53703979 341.80128021 -125.44433594 341.80151367 C-126.21710876 341.80817551 -126.98988159 341.81483734 -127.78607178 341.82170105 C-130.52192764 341.3629374 -131.90826706 340.31815081 -133.9375 338.4609375 C-134.3984375 336.5234375 -134.3984375 336.5234375 -134.3125 334.4609375 C-134.29960937 333.7803125 -134.28671875 333.0996875 -134.2734375 332.3984375 C-133.9375 330.4609375 -133.9375 330.4609375 -131.9375 327.4609375 C-129.15688025 326.53406425 -127.51698141 326.33900354 -124.6496582 326.34741211 C-123.78899246 326.34748764 -122.92832672 326.34756317 -122.0415802 326.34764099 C-121.11649155 326.35280228 -120.19140289 326.35796356 -119.23828125 326.36328125 C-118.28809616 326.3646962 -117.33791107 326.36611115 -116.3589325 326.36756897 C-113.32258971 326.37316875 -110.28632052 326.38572118 -107.25 326.3984375 C-105.19205836 326.40345253 -103.13411556 326.40801543 -101.07617188 326.41210938 C-96.02989671 326.42228742 -90.9837808 326.44186294 -85.9375 326.4609375 C-85.9375 315.2409375 -85.9375 304.0209375 -85.9375 292.4609375 C-88.99515625 292.48414063 -92.0528125 292.50734375 -95.203125 292.53125 C-98.1651976 292.54684843 -101.12726562 292.5589921 -104.08935547 292.57080078 C-106.14764454 292.58085704 -108.20591933 292.59450379 -110.26416016 292.61181641 C-113.22301763 292.63608104 -116.18168617 292.64742438 -119.140625 292.65625 C-120.06055237 292.66657257 -120.98047974 292.67689514 -121.92828369 292.68753052 C-122.7888739 292.68768158 -123.64946411 292.68783264 -124.53613281 292.68798828 C-125.29114075 292.6924295 -126.04614868 292.69687073 -126.82403564 292.70144653 C-129.26666174 292.42347939 -130.85539543 291.75488533 -132.9375 290.4609375 C-134.49210305 287.35173141 -134.66470693 283.83010722 -133.9375 280.4609375 C-131.10933341 277.8656994 -129.25743623 277.08748977 -125.44433594 277.12036133 C-124.12341949 277.12070122 -124.12341949 277.12070122 -122.77581787 277.12104797 C-121.36311615 277.14427376 -121.36311615 277.14427376 -119.921875 277.16796875 C-118.46542572 277.17433601 -118.46542572 277.17433601 -116.97955322 277.18083191 C-113.88191869 277.19760897 -110.78493751 277.23525978 -107.6875 277.2734375 C-105.5859469 277.28848558 -103.4843836 277.30217377 -101.3828125 277.31445312 C-96.2339215 277.34495603 -91.08644106 277.40367992 -85.9375 277.4609375 C-85.9375 265.9109375 -85.9375 254.3609375 -85.9375 242.4609375 C-89.15113281 242.49574219 -92.36476563 242.53054688 -95.67578125 242.56640625 C-98.78343822 242.58979309 -101.89108545 242.60801467 -104.9987793 242.62573242 C-107.16093321 242.64083194 -109.32305643 242.66131321 -111.48510742 242.68725586 C-114.590409 242.72358767 -117.69530614 242.74065212 -120.80078125 242.75390625 C-121.76961746 242.76939011 -122.73845367 242.78487396 -123.73664856 242.80082703 C-125.08770943 242.80116692 -125.08770943 242.80116692 -126.46606445 242.80151367 C-127.65520195 242.81150642 -127.65520195 242.81150642 -128.86836243 242.82170105 C-131.46332334 242.36925781 -132.33888162 241.51441815 -133.9375 239.4609375 C-134.3359375 237.5234375 -134.3359375 237.5234375 -134.3125 235.4609375 C-134.32023437 234.7803125 -134.32796875 234.0996875 -134.3359375 233.3984375 C-133.8133255 230.85710856 -132.95343211 230.06971048 -130.9375 228.4609375 C-128.86836243 228.10017395 -128.86836243 228.10017395 -126.46606445 228.12036133 C-125.56535721 228.12058792 -124.66464996 228.12081451 -123.73664856 228.12104797 C-122.28339424 228.14427376 -122.28339424 228.14427376 -120.80078125 228.16796875 C-119.30891548 228.17433601 -119.30891548 228.17433601 -117.78691101 228.18083191 C-114.60766625 228.19763597 -111.42905344 228.23529174 -108.25 228.2734375 C-106.09571227 228.28848209 -103.94141462 228.30217088 -101.78710938 228.31445312 C-96.50346642 228.34499441 -91.22119125 228.40371341 -85.9375 228.4609375 C-85.9375 216.9109375 -85.9375 205.3609375 -85.9375 193.4609375 C-89.06734375 193.49574219 -92.1971875 193.53054687 -95.421875 193.56640625 C-98.45344124 193.58980299 -101.48499742 193.60801894 -104.51660156 193.62573242 C-106.6234182 193.64081819 -108.73020344 193.66128943 -110.83691406 193.68725586 C-113.8653132 193.72364803 -116.89329709 193.740666 -119.921875 193.75390625 C-121.33457672 193.77713203 -121.33457672 193.77713203 -122.77581787 193.80082703 C-123.65642883 193.80105362 -124.53703979 193.80128021 -125.44433594 193.80151367 C-126.21710876 193.80817551 -126.98988159 193.81483734 -127.78607178 193.82170105 C-130.52192764 193.3629374 -131.90826706 192.31815081 -133.9375 190.4609375 C-134.3984375 188.5234375 -134.3984375 188.5234375 -134.3125 186.4609375 C-134.29960937 185.7803125 -134.28671875 185.0996875 -134.2734375 184.3984375 C-133.9375 182.4609375 -133.9375 182.4609375 -131.9375 179.4609375 C-129.15688025 178.53406425 -127.51698141 178.33900354 -124.6496582 178.34741211 C-123.78899246 178.34748764 -122.92832672 178.34756317 -122.0415802 178.34764099 C-121.11649155 178.35280228 -120.19140289 178.35796356 -119.23828125 178.36328125 C-118.28809616 178.3646962 -117.33791107 178.36611115 -116.3589325 178.36756897 C-113.32258971 178.37316875 -110.28632052 178.38572118 -107.25 178.3984375 C-105.19205836 178.40345253 -103.13411556 178.40801543 -101.07617188 178.41210938 C-96.02989671 178.42228742 -90.9837808 178.44186294 -85.9375 178.4609375 C-85.9375 167.2409375 -85.9375 156.0209375 -85.9375 144.4609375 C-88.99515625 144.48414063 -92.0528125 144.50734375 -95.203125 144.53125 C-98.1651976 144.54684843 -101.12726562 144.5589921 -104.08935547 144.57080078 C-106.14764454 144.58085704 -108.20591933 144.59450379 -110.26416016 144.61181641 C-113.22301763 144.63608104 -116.18168617 144.64742438 -119.140625 144.65625 C-120.06055237 144.66657257 -120.98047974 144.67689514 -121.92828369 144.68753052 C-122.7888739 144.68768158 -123.64946411 144.68783264 -124.53613281 144.68798828 C-125.66864471 144.69465012 -125.66864471 144.69465012 -126.82403564 144.70144653 C-129.26666174 144.42347939 -130.85539543 143.75488533 -132.9375 142.4609375 C-134.49210305 139.35173141 -134.66470693 135.83010722 -133.9375 132.4609375 C-131.10933341 129.8656994 -129.25743623 129.08748977 -125.44433594 129.12036133 C-124.12341949 129.12070122 -124.12341949 129.12070122 -122.77581787 129.12104797 C-121.36311615 129.14427376 -121.36311615 129.14427376 -119.921875 129.16796875 C-118.95090881 129.17221359 -117.97994263 129.17645844 -116.97955322 129.18083191 C-113.88191869 129.19760897 -110.78493751 129.23525978 -107.6875 129.2734375 C-105.5859469 129.28848558 -103.4843836 129.30217377 -101.3828125 129.31445312 C-96.23412371 129.34750939 -91.08592259 129.39928542 -85.9375 129.4609375 C-85.95415459 128.31034348 -85.95415459 128.31034348 -85.97114563 127.13650513 C-86.07177482 119.8699014 -86.14767947 112.60364055 -86.19656086 105.33651924 C-86.22253731 101.60131981 -86.25771169 97.86670119 -86.31469727 94.13183594 C-86.3694507 90.52022559 -86.39901017 86.90917007 -86.41188622 83.29717636 C-86.42104931 81.92655592 -86.43894105 80.55596219 -86.46615028 79.18558121 C-86.62955715 70.60612348 -86.1229249 63.56635286 -80.9375 56.4609375 C-75.13796379 50.98503507 -69.65463686 48.20155018 -61.58666992 48.23388672 C-59.69527534 48.23411331 -59.69527534 48.23411331 -57.76567078 48.23434448 C-56.39976848 48.24455614 -55.03386781 48.2549881 -53.66796875 48.265625 C-52.26264141 48.26935809 -50.85731147 48.27220367 -49.45198059 48.27420044 C-45.76450332 48.28181361 -42.07718518 48.30144197 -38.38977051 48.3236084 C-34.62249911 48.34411691 -30.85520184 48.35321283 -27.08789062 48.36328125 C-19.70435477 48.38469025 -12.32094974 48.41879796 -4.9375 48.4609375 C-4.96106567 46.49302246 -4.96106567 46.49302246 -4.98510742 44.48535156 C-5.03941032 39.61757548 -5.07385154 34.74982618 -5.10229492 29.88183594 C-5.11738069 27.7750193 -5.13785193 25.66823406 -5.16381836 23.56152344 C-5.20021053 20.5331243 -5.2172285 17.50514041 -5.23046875 14.4765625 C-5.24595261 13.53476135 -5.26143646 12.59296021 -5.27738953 11.62261963 C-5.27772942 10.30170319 -5.27772942 10.30170319 -5.27807617 8.95410156 C-5.28806892 7.79494232 -5.28806892 7.79494232 -5.29826355 6.61236572 C-4.74914898 3.33769849 -3.33847844 0.79423479 0 0 Z M-69.8125 67.3984375 C-71.89235656 71.21150787 -72.06345375 74.69465253 -72.06892776 78.99360371 C-72.07276891 80.12587117 -72.07661005 81.25813864 -72.0805676 82.42471725 C-72.07970112 83.66895829 -72.07883463 84.91319934 -72.07794189 86.19514465 C-72.08052586 87.53004422 -72.08353911 88.86494301 -72.0869453 90.19984072 C-72.09501472 93.87140284 -72.09680483 97.5429454 -72.09754276 101.21451533 C-72.0993934 105.17303977 -72.10694074 109.13155406 -72.11367798 113.09007263 C-72.127261 121.74705308 -72.13328585 130.4040289 -72.13768864 139.06101823 C-72.14045088 144.46562883 -72.14468818 149.87023764 -72.14919281 155.27484703 C-72.16138499 170.23651041 -72.1716847 185.19817235 -72.1750679 200.15984058 C-72.17528747 201.11744521 -72.17550703 202.07504984 -72.17573325 203.06167279 C-72.17595153 204.02157532 -72.17616981 204.98147785 -72.1763947 205.97046834 C-72.17683817 207.91561496 -72.17728473 209.86076158 -72.17773438 211.8059082 C-72.1779558 212.77076921 -72.17817723 213.73563022 -72.17840537 214.72972944 C-72.18235421 230.3672952 -72.19981105 246.00481439 -72.2230939 261.64236216 C-72.24680107 277.6943506 -72.25926945 293.74631566 -72.26043582 309.7983219 C-72.26135289 318.81211012 -72.26711333 327.82583764 -72.28525543 336.83960915 C-72.3006478 344.51425942 -72.30578196 352.18883023 -72.29751733 359.863493 C-72.29360787 363.77928814 -72.29455479 367.69492321 -72.30857468 371.6106987 C-72.32129579 375.19650189 -72.32013202 378.78202444 -72.30798396 382.36782714 C-72.30509638 384.27720511 -72.31697628 386.18658784 -72.32940602 388.09592754 C-72.29346453 394.31406641 -72.05033093 399.01198246 -68.9375 404.4609375 C-64.91378737 408.35485295 -60.81701193 408.58547374 -55.40483379 408.59236526 C-54.27256633 408.59620641 -53.14029886 408.60004755 -51.97372025 408.6040051 C-50.72947921 408.60313862 -49.48523816 408.60227213 -48.20329285 408.60137939 C-46.86839328 408.60396336 -45.53349449 408.60697661 -44.19859678 408.6103828 C-40.52703466 408.61845222 -36.8554921 408.62024233 -33.18392217 408.62098026 C-29.22539773 408.6228309 -25.26688344 408.63037824 -21.30836487 408.63711548 C-12.65138442 408.6506985 -3.9944086 408.65672335 4.66258073 408.66112614 C10.06719133 408.66388838 15.47180014 408.66812568 20.87640953 408.67263031 C35.83807291 408.68482249 50.79973485 408.6951222 65.76140308 408.6985054 C66.71900771 408.69872497 67.67661234 408.69894453 68.66323529 408.69917075 C69.62313782 408.69938903 70.58304035 408.69960731 71.57203084 408.6998322 C73.51717746 408.70027567 75.46232408 408.70072223 77.4074707 408.70117188 C78.85476221 408.70150402 78.85476221 408.70150402 80.33129194 408.70184287 C95.9688577 408.70579171 111.60637689 408.72324855 127.24392466 408.7465314 C143.2959131 408.77023857 159.34787816 408.78270695 175.3998844 408.78387332 C184.41367262 408.78479039 193.42740014 408.79055083 202.44117165 408.80869293 C210.11582192 408.8240853 217.79039273 408.82921946 225.4650555 408.82095483 C229.38085064 408.81704537 233.29648571 408.81799229 237.2122612 408.83201218 C240.79806439 408.84473329 244.38358694 408.84356952 247.96938964 408.83142146 C249.87876761 408.82853388 251.78815034 408.84041378 253.69749004 408.85284352 C259.91562891 408.81690203 264.61354496 408.57376843 270.0625 405.4609375 C273.95641545 401.43722487 274.18703624 397.34044943 274.19392776 391.92827129 C274.19776891 390.79600383 274.20161005 389.66373636 274.2055676 388.49715775 C274.20426787 386.63079619 274.20426787 386.63079619 274.20294189 384.72673035 C274.20552586 383.39183078 274.20853911 382.05693199 274.2119453 380.72203428 C274.22001472 377.05047216 274.22180483 373.3789296 274.22254276 369.70735967 C274.2243934 365.74883523 274.23194074 361.79032094 274.23867798 357.83180237 C274.252261 349.17482192 274.25828585 340.5178461 274.26268864 331.86085677 C274.26545088 326.45624617 274.26968818 321.05163736 274.27419281 315.64702797 C274.28638499 300.68536459 274.2966847 285.72370265 274.3000679 270.76203442 C274.30028747 269.80442979 274.30050703 268.84682516 274.30073325 267.86020221 C274.30095153 266.90029968 274.30116981 265.94039715 274.3013947 264.95140666 C274.30183817 263.00626004 274.30228473 261.06111342 274.30273438 259.1159668 C274.3029558 258.15110579 274.30317723 257.18624478 274.30340537 256.19214556 C274.30735421 240.5545798 274.32481105 224.91706061 274.3480939 209.27951284 C274.37180107 193.2275244 274.38426945 177.17555934 274.38543582 161.1235531 C274.38635289 152.10976488 274.39211333 143.09603736 274.41025543 134.08226585 C274.4256478 126.40761558 274.43078196 118.73304477 274.42251733 111.058382 C274.41860787 107.14258686 274.41955479 103.22695179 274.43357468 99.3111763 C274.44629579 95.72537311 274.44513202 92.13985056 274.43298396 88.55404786 C274.43009638 86.64466989 274.44197628 84.73528716 274.45440602 82.82594746 C274.41846453 76.60780859 274.17533093 71.90989254 271.0625 66.4609375 C267.03878737 62.56702205 262.94201193 62.33640126 257.52983379 62.32950974 C256.39756633 62.32566859 255.26529886 62.32182745 254.09872025 62.3178699 C252.85447921 62.31873638 251.61023816 62.31960287 250.32829285 62.32049561 C248.99339328 62.31791164 247.65849449 62.31489839 246.32359678 62.3114922 C242.65203466 62.30342278 238.9804921 62.30163267 235.30892217 62.30089474 C231.35039773 62.2990441 227.39188344 62.29149676 223.43336487 62.28475952 C214.77638442 62.2711765 206.1194086 62.26515165 197.46241927 62.26074886 C192.05780867 62.25798662 186.65319986 62.25374932 181.24859047 62.24924469 C166.28692709 62.23705251 151.32526515 62.2267528 136.36359692 62.2233696 C135.40599229 62.22315003 134.44838766 62.22293047 133.46176471 62.22270425 C132.50186218 62.22248597 131.54195965 62.22226769 130.55296916 62.2220428 C128.60782254 62.22159933 126.66267592 62.22115277 124.7175293 62.22070312 C123.27023779 62.22037098 123.27023779 62.22037098 121.79370806 62.22003213 C106.1561423 62.21608329 90.51862311 62.19862645 74.88107534 62.1753436 C58.8290869 62.15163643 42.77712184 62.13916805 26.7251156 62.13800168 C17.71132738 62.13708461 8.69759986 62.13132417 -0.31617165 62.11318207 C-7.99082192 62.0977897 -15.66539273 62.09265554 -23.3400555 62.10092017 C-27.25585064 62.10482963 -31.17148571 62.10388271 -35.0872612 62.08986282 C-38.67306439 62.07714171 -42.25858694 62.07830548 -45.84438964 62.09045354 C-47.75376761 62.09334112 -49.66315034 62.08146122 -51.57249004 62.06903148 C-61.61075912 62.10379268 -61.61075912 62.10379268 -69.8125 67.3984375 Z " fill="#000000" transform="translate(154.9375,20.5390625)"/>
<path d="M0 0 C7.93352621 0.15119473 15.84710933 0.09649731 23.77990437 -0.0720129 C112.82761894 -1.90090255 112.82761894 -1.90090255 135.19884968 19.17408085 C157.30864765 42.23070098 153.76985117 82.09438972 153.21724606 111.58414555 C153.0379839 119.49574006 152.76099316 127.40360912 152.47189486 135.31184292 C152.06051532 146.8546619 151.93149925 158.39642536 151.8044709 169.94521713 C151.68518273 179.85574949 151.48941455 189.76500104 151.28478718 199.67408085 C151.26405541 200.72837473 151.24332365 201.78266861 151.22196364 202.86891079 C151.09916367 208.91747894 150.93817381 214.96276909 150.71843243 221.00862026 C150.65662384 222.83357873 150.60604459 224.65895852 150.56771183 226.48456097 C150.22653061 241.94607395 150.22653061 241.94607395 145.83688068 247.05080509 C144.65451617 248.11759976 143.44410522 249.15509023 142.19494343 250.14283085 C141.52069828 250.8589806 140.84645313 251.57513035 140.15177631 252.31298161 C139.60487644 252.86067707 139.05797657 253.40837254 138.49450397 253.97266483 C137.86082401 254.60949696 137.22714405 255.24632908 136.57426167 255.90245914 C135.58792492 256.88575954 135.58792492 256.88575954 134.58166218 257.8889246 C133.88603672 258.58550678 133.19041126 259.28208897 132.47370625 259.9997797 C131.01864997 261.45551084 129.5623528 262.91000265 128.10485554 264.36328983 C125.86743448 266.59530353 123.63546665 268.83267219 121.4039278 271.07056522 C119.98432688 272.48950619 118.56441625 273.90813739 117.14416218 275.3264246 C116.47648319 275.99612782 115.80880421 276.66583103 115.12089252 277.35582829 C114.50297337 277.97059528 113.88505421 278.58536228 113.24841022 279.21875858 C112.43402737 280.03194805 112.43402737 280.03194805 111.60319233 280.86156559 C108.39790963 283.77782376 104.8506126 283.39580673 100.7447176 283.5322504 C99.96677157 283.56132746 99.18882553 283.59040452 98.38730538 283.6203627 C95.76459222 283.71611286 93.14168796 283.80402614 90.5186739 283.89112186 C89.60150656 283.92298399 88.68433922 283.95484612 87.73937893 283.98767376 C69.51242163 284.61833262 51.28150553 285.00015503 33.04633617 285.29744911 C21.44803592 285.49136381 9.86136524 285.76017822 -1.72986126 286.21534061 C-90.6862776 289.62298858 -90.6862776 289.62298858 -112.36233425 271.50942135 C-132.81571052 251.85962013 -133.45372175 220.75833325 -134.20825624 194.12936568 C-134.47074118 180.861605 -134.22967108 167.60301843 -133.94788921 154.3377766 C-133.79669039 146.40424979 -133.85138685 138.49066556 -134.01990032 130.55786991 C-135.84835039 41.54758374 -135.84835039 41.54758374 -114.68005657 19.26783085 C-86.95617179 -7.07300613 -34.97078307 -0.74287155 0 0 Z M-108.62600613 37.4085207 C-124.24516954 64.58615484 -119.7643745 104.66355019 -119.17646933 134.72886395 C-119.04795213 142.05356235 -119.09445584 149.36264996 -119.23767376 156.68677616 C-122.65698605 210.21539739 -122.65698605 210.21539739 -103.22693157 257.56470585 C-79.03973045 280.43119497 -29.68738619 274.1100301 0.78097653 273.5142436 C8.10567493 273.38572641 15.41476253 273.43223012 22.73888874 273.57544804 C76.26750997 276.99476033 76.26750997 276.99476033 123.61681843 257.56470585 C146.48330754 233.37750473 140.16214268 184.02516047 139.56635618 153.55679774 C139.43783899 146.23209935 139.4843427 138.92301174 139.62756062 131.59888554 C143.04687291 78.07026431 143.04687291 78.07026431 123.61681843 30.72095585 C99.42961731 7.85446673 50.07727305 14.1756316 19.60891032 14.77141809 C12.28421193 14.89993529 4.97512432 14.85343158 -2.34900188 14.71021366 C-60.9839165 10.76307067 -60.9839165 10.76307067 -108.62600613 37.4085207 Z " fill="#000000" transform="translate(245.80505657196045,111.85716915130615)"/>
<path d="M0 0 C1.41036026 -0.00642769 1.41036026 -0.00642769 2.84921265 -0.01298523 C4.83110754 -0.01871491 6.81302346 -0.01923885 8.79492188 -0.01489258 C11.83239273 -0.01172245 14.86889874 -0.0352438 17.90625 -0.06054688 C19.8333321 -0.06281893 21.76041683 -0.0635238 23.6875 -0.0625 C25.05160507 -0.07631462 25.05160507 -0.07631462 26.44326782 -0.09040833 C27.2877951 -0.08417953 28.13232239 -0.07795074 29.00244141 -0.0715332 C29.74458893 -0.07216263 30.48673645 -0.07279205 31.25137329 -0.07344055 C33.75859262 0.40536802 34.64816838 1.32195022 36.2109375 3.30078125 C36.609375 5.23828125 36.609375 5.23828125 36.5859375 7.30078125 C36.59753906 8.32171875 36.59753906 8.32171875 36.609375 9.36328125 C36.06093894 12.03018599 35.44662959 12.70832055 33.2109375 14.30078125 C30.47556958 14.60810281 27.95598679 14.74176833 25.21875 14.7421875 C24.43579559 14.75539536 23.65284119 14.76860321 22.84616089 14.7822113 C20.34271726 14.82311215 17.83963959 14.84476915 15.3359375 14.86328125 C12.83948991 14.88711426 10.34338485 14.91533763 7.84713745 14.95506287 C6.29462587 14.97929627 4.74193392 14.99425522 3.1892395 14.99867249 C-2.08784767 15.07431156 -5.98018648 15.49190523 -9.7890625 19.30078125 C-11.80484093 24.79231588 -10.97500224 31.21641593 -10.97436523 36.99975586 C-10.97655167 39.22724517 -10.99472678 41.45423883 -11.01367188 43.68164062 C-11.01660628 45.10546707 -11.01859076 46.52929585 -11.01953125 47.953125 C-11.02569458 49.8865979 -11.02569458 49.8865979 -11.03198242 51.85913086 C-10.71816982 56.30517741 -9.95611021 59.13373354 -6.7890625 62.30078125 C-2.96956244 63.73881844 1.12248904 63.48461129 5.1484375 63.48828125 C6.20321289 63.50665039 6.20321289 63.50665039 7.27929688 63.52539062 C11.37209946 63.53689804 14.56847186 63.21257261 18.2109375 61.30078125 C20.93200444 58.57971431 20.81749322 56.45301814 21.3359375 52.67578125 C21.50351563 51.48726563 21.67109375 50.29875 21.84375 49.07421875 C21.96492188 48.15898437 22.08609375 47.24375 22.2109375 46.30078125 C20.85548828 46.35298828 20.85548828 46.35298828 19.47265625 46.40625 C18.29316406 46.43332031 17.11367187 46.46039063 15.8984375 46.48828125 C14.72667969 46.52308594 13.55492187 46.55789063 12.34765625 46.59375 C9.2109375 46.30078125 9.2109375 46.30078125 7.31640625 45.0390625 C5.99618891 42.96310237 5.80811378 41.74926855 5.8359375 39.30078125 C5.82820313 38.62015625 5.82046875 37.93953125 5.8125 37.23828125 C6.3413134 34.66679646 7.13971193 33.90281878 9.2109375 32.30078125 C11.70703125 31.91259766 11.70703125 31.91259766 14.6484375 31.90234375 C15.70804688 31.89847656 16.76765625 31.89460938 17.859375 31.890625 C18.96539062 31.90222656 20.07140625 31.91382813 21.2109375 31.92578125 C22.86996094 31.90837891 22.86996094 31.90837891 24.5625 31.890625 C25.62210938 31.89449219 26.68171875 31.89835937 27.7734375 31.90234375 C29.22943359 31.90741943 29.22943359 31.90741943 30.71484375 31.91259766 C33.2109375 32.30078125 33.2109375 32.30078125 35.02368164 33.45581055 C37.7355217 37.66995311 36.67641013 43.64901588 36.6484375 48.48828125 C36.6784082 50.2990918 36.6784082 50.2990918 36.70898438 52.14648438 C36.70450512 60.33904996 35.96148943 65.95450406 30.46484375 72.32421875 C29.90667969 72.77023437 29.34851563 73.21625 28.7734375 73.67578125 C27.94005859 74.36800781 27.94005859 74.36800781 27.08984375 75.07421875 C20.90905866 79.10907638 14.61045558 78.67309733 7.45581055 78.67138672 C5.41434464 78.67574727 3.3750667 78.71206991 1.33398438 78.75 C-7.27043964 78.77549459 -13.12360709 78.32676304 -19.8125 72.5546875 C-20.25851563 71.99652344 -20.70453125 71.43835938 -21.1640625 70.86328125 C-21.62554687 70.30769531 -22.08703125 69.75210938 -22.5625 69.1796875 C-26.18244955 63.63447815 -26.1100191 58.46134405 -26.125 52.03125 C-26.1316568 51.03628006 -26.1383136 50.04131012 -26.14517212 49.01618958 C-26.15528148 46.91405074 -26.15998967 44.81187992 -26.15966797 42.7097168 C-26.16403327 39.50970953 -26.20035011 36.31109087 -26.23828125 33.11132812 C-26.24415149 31.06380677 -26.2481195 29.0162789 -26.25 26.96875 C-26.27155655 25.54492256 -26.27155655 25.54492256 -26.29354858 24.09233093 C-26.24543603 17.02226562 -24.71148959 11.68739698 -20.04296875 6.27734375 C-19.48480469 5.83132812 -18.92664063 5.3853125 -18.3515625 4.92578125 C-17.79597656 4.46429688 -17.24039063 4.0028125 -16.66796875 3.52734375 C-11.24807097 -0.01080158 -6.28178797 -0.00632378 0 0 Z " fill="#000000" transform="translate(174.7890625,216.69921875)"/>
<path d="M0 0 C1.0209375 -0.01160156 1.0209375 -0.01160156 2.0625 -0.0234375 C4.62091246 0.50268764 5.39438977 1.32815191 7 3.375 C7.38526917 5.67623901 7.38526917 5.67623901 7.40063477 8.40966797 C7.41397354 9.43438202 7.42731232 10.45909607 7.4410553 11.51486206 C7.44117111 12.62112946 7.44128693 13.72739685 7.44140625 14.8671875 C7.45461411 16.00527863 7.46782196 17.14336975 7.48143005 18.31594849 C7.52240341 21.96065697 7.54401388 25.60511299 7.5625 29.25 C7.58628975 32.88766832 7.61443965 36.52509881 7.65428162 40.16262817 C7.6786203 42.42741628 7.69349372 44.69233026 7.69789124 46.95724487 C7.70807785 47.98826324 7.71826447 49.01928162 7.72875977 50.08154297 C7.73303482 50.98516571 7.73730988 51.88878845 7.74171448 52.8197937 C8.14351663 56.79480314 9.16900054 59.54400054 12 62.375 C15.81950006 63.81303719 19.91155154 63.55883004 23.9375 63.5625 C24.99227539 63.58086914 24.99227539 63.58086914 26.06835938 63.59960938 C30.16116196 63.61111679 33.35753436 63.28679136 37 61.375 C40.28951115 58.08548885 40.12546053 54.69304511 40.15771484 50.19506836 C40.17310806 48.64842751 40.17310806 48.64842751 40.18881226 47.07054138 C40.19611359 45.96316116 40.20341492 44.85578094 40.2109375 43.71484375 C40.23899122 41.37173763 40.26765557 39.02863875 40.296875 36.68554688 C40.33824223 32.98982838 40.37512958 29.2942474 40.40136719 25.59838867 C40.42887722 22.03275669 40.47473166 18.46774057 40.5234375 14.90234375 C40.52669037 13.7929393 40.52994324 12.68353485 40.53329468 11.54051208 C40.54986115 10.51257034 40.56642761 9.4846286 40.58349609 8.42553711 C40.59158295 7.52048935 40.5996698 6.61544159 40.60800171 5.68296814 C41.07505051 2.93312512 41.80243756 2.04100939 44 0.375 C45.9375 -0.0234375 45.9375 -0.0234375 48 0 C49.0209375 -0.01160156 49.0209375 -0.01160156 50.0625 -0.0234375 C52.64039916 0.50669499 53.39921786 1.29222454 55 3.375 C55.38768005 5.92179871 55.38768005 5.92179871 55.40405273 9.00463867 C55.41673691 10.15981491 55.42942108 11.31499115 55.44248962 12.50517273 C55.43955399 13.75514542 55.43661835 15.0051181 55.43359375 16.29296875 C55.4388356 17.57931717 55.44407745 18.86566559 55.44947815 20.19099426 C55.45841645 22.91722396 55.45598165 25.64316092 55.44604492 28.36938477 C55.4346049 31.84512622 55.45468436 35.31984417 55.48396206 38.79545116 C55.50685605 42.1280087 55.49984995 45.46033469 55.49609375 48.79296875 C55.50732773 50.03282028 55.51856171 51.27267181 55.53013611 52.5500946 C55.46603139 60.55169208 54.63332937 66.16456463 49.25390625 72.3984375 C48.69574219 72.84445312 48.13757813 73.29046875 47.5625 73.75 C46.72912109 74.44222656 46.72912109 74.44222656 45.87890625 75.1484375 C39.69812116 79.18329513 33.39951808 78.74731608 26.24487305 78.74560547 C24.20340714 78.74996602 22.1641292 78.78628866 20.12304688 78.82421875 C11.51862286 78.84971334 5.66545541 78.40098179 -1.0234375 72.62890625 C-1.46945312 72.07074219 -1.91546875 71.51257813 -2.375 70.9375 C-2.83648437 70.38191406 -3.29796875 69.82632813 -3.7734375 69.25390625 C-6.50617461 65.06777073 -7.25243188 61.39798529 -7.2746582 56.43896484 C-7.28419022 55.26780121 -7.29372223 54.09663757 -7.30354309 52.88998413 C-7.30263168 51.63464874 -7.30172028 50.37931335 -7.30078125 49.0859375 C-7.30506638 47.79056061 -7.3093515 46.49518372 -7.31376648 45.16055298 C-7.32120956 42.42535292 -7.32095015 39.69028202 -7.31567383 36.95507812 C-7.30986336 33.44993704 -7.32685662 29.94532166 -7.3500185 26.44026756 C-7.36827959 23.09296837 -7.36457133 19.74578629 -7.36328125 16.3984375 C-7.372491 15.13905365 -7.38170074 13.8796698 -7.39118958 12.5821228 C-7.38184639 10.83483383 -7.38184639 10.83483383 -7.37231445 9.05224609 C-7.37294388 8.02586029 -7.3735733 6.99947449 -7.3742218 5.94198608 C-7 3.375 -7 3.375 -5.5978241 1.54507446 C-3.60688212 0.08712276 -2.45059183 -0.02784763 0 0 Z " fill="#000000" transform="translate(308,216.625)"/>
<path d="M0 0 C0.75364334 -0.00524185 1.50728668 -0.0104837 2.2837677 -0.0158844 C3.88000255 -0.02230674 5.4762847 -0.0209648 7.07250977 -0.01245117 C9.49388146 -0.00399582 11.91284914 -0.03260583 14.33398438 -0.06445312 C23.32758602 -0.10645589 30.23699972 0.03691596 37.35546875 6.1796875 C38.02449219 7.01693359 38.02449219 7.01693359 38.70703125 7.87109375 C39.16851562 8.42667969 39.63 8.98226562 40.10546875 9.5546875 C44.33649231 16.03596881 44.00235773 22.94121044 43.33203125 30.43359375 C41.69991692 36.63953746 37.63807219 40.96977492 32.33203125 44.43359375 C28.60184679 46.19144116 25.70438078 46.67287022 21.59375 46.62890625 C19.99370117 46.61923828 19.99370117 46.61923828 18.36132812 46.609375 C17.25853516 46.59261719 16.15574219 46.57585937 15.01953125 46.55859375 C13.89740234 46.54957031 12.77527344 46.54054688 11.61914062 46.53125 C8.85655216 46.50773861 6.09440193 46.4748753 3.33203125 46.43359375 C3.35559692 47.72777222 3.35559692 47.72777222 3.37963867 49.0480957 C3.4307908 52.25168642 3.46839285 55.4550689 3.49682617 58.65893555 C3.51190522 60.04507294 3.53237175 61.43116269 3.55834961 62.81713867 C3.59476841 64.81017521 3.61016143 66.80356098 3.625 68.796875 C3.64071045 69.99610596 3.6564209 71.19533691 3.67260742 72.4309082 C3.33203125 75.43359375 3.33203125 75.43359375 1.93481445 77.32348633 C-0.05960551 78.7048462 -1.25539867 78.83600932 -3.66796875 78.80859375 C-4.68890625 78.82019531 -4.68890625 78.82019531 -5.73046875 78.83203125 C-8.35428512 78.29245611 -9.07511463 77.59781616 -10.66796875 75.43359375 C-11.04891968 72.35961914 -11.04891968 72.35961914 -11.05615234 68.53125 C-11.0614093 67.83337372 -11.06666626 67.13549744 -11.07208252 66.41647339 C-11.08528721 64.10945255 -11.0765433 61.80312162 -11.06640625 59.49609375 C-11.06842686 57.8933092 -11.0713382 56.29052554 -11.07510376 54.68774414 C-11.07952773 51.32852425 -11.07309388 47.96954365 -11.05908203 44.61035156 C-11.04198991 40.30252536 -11.05183073 35.99525985 -11.06979942 31.68745422 C-11.08063541 28.37776457 -11.07719182 25.06820805 -11.06941605 21.7585144 C-11.06741352 20.17007379 -11.06987518 18.58162112 -11.07685471 16.99319458 C-11.08446638 14.77378279 -11.0728702 12.55528141 -11.05615234 10.3359375 C-11.05376556 9.07257568 -11.05137878 7.80921387 -11.04891968 6.50756836 C-10.66796875 3.43359375 -10.66796875 3.43359375 -9.35786438 1.52745056 C-6.49543582 -0.32537805 -3.30144609 -0.01336804 0 0 Z M3.33203125 14.43359375 C3.33203125 20.37359375 3.33203125 26.31359375 3.33203125 32.43359375 C7.38484375 32.49546875 7.38484375 32.49546875 11.51953125 32.55859375 C12.78253052 32.58590576 12.78253052 32.58590576 14.07104492 32.61376953 C19.12439806 32.65101046 22.77704095 32.0194498 27.14453125 29.30859375 C29.10834814 26.20783024 28.97368595 22.9309644 28.33203125 19.43359375 C26.00253879 16.18894354 24.16154103 15.17272271 20.33203125 14.43359375 C18.96402306 14.35650652 17.59279533 14.32555766 16.22265625 14.3359375 C15.20220215 14.33968384 15.20220215 14.33968384 14.16113281 14.34350586 C13.3100293 14.35260986 12.45892578 14.36171387 11.58203125 14.37109375 C8.85953125 14.39171875 6.13703125 14.41234375 3.33203125 14.43359375 Z " fill="#000000" transform="translate(239.66796875,216.56640625)"/>
</svg>
